<svg width="306" height="56" viewBox="0 0 306 56" fill="none" xmlns="http://www.w3.org/2000/svg">
<path d="M34.9223 25.105C34.2223 25.105 33.5923 24.985 33.0323 24.745C32.4723 24.495 32.0323 24.145 31.7123 23.695C31.3923 23.245 31.2323 22.72 31.2323 22.12H33.0623C33.1023 22.57 33.2773 22.94 33.5873 23.23C33.9073 23.52 34.3523 23.665 34.9223 23.665C35.5123 23.665 35.9723 23.525 36.3023 23.245C36.6323 22.955 36.7973 22.585 36.7973 22.135C36.7973 21.785 36.6923 21.5 36.4823 21.28C36.2823 21.06 36.0273 20.89 35.7173 20.77C35.4173 20.65 34.9973 20.52 34.4573 20.38C33.7773 20.2 33.2223 20.02 32.7923 19.84C32.3723 19.65 32.0123 19.36 31.7123 18.97C31.4123 18.58 31.2623 18.06 31.2623 17.41C31.2623 16.81 31.4123 16.285 31.7123 15.835C32.0123 15.385 32.4323 15.04 32.9723 14.8C33.5123 14.56 34.1373 14.44 34.8473 14.44C35.8573 14.44 36.6823 14.695 37.3223 15.205C37.9723 15.705 38.3323 16.395 38.4023 17.275H36.5123C36.4823 16.895 36.3023 16.57 35.9723 16.3C35.6423 16.03 35.2073 15.895 34.6673 15.895C34.1773 15.895 33.7773 16.02 33.4673 16.27C33.1573 16.52 33.0023 16.88 33.0023 17.35C33.0023 17.67 33.0973 17.935 33.2873 18.145C33.4873 18.345 33.7373 18.505 34.0373 18.625C34.3373 18.745 34.7473 18.875 35.2673 19.015C35.9573 19.205 36.5173 19.395 36.9473 19.585C37.3873 19.775 37.7573 20.07 38.0573 20.47C38.3673 20.86 38.5223 21.385 38.5223 22.045C38.5223 22.575 38.3773 23.075 38.0873 23.545C37.8073 24.015 37.3923 24.395 36.8423 24.685C36.3023 24.965 35.6623 25.105 34.9223 25.105ZM48.115 20.665C48.115 20.975 48.095 21.255 48.055 21.505H41.74C41.79 22.165 42.035 22.695 42.475 23.095C42.915 23.495 43.455 23.695 44.095 23.695C45.015 23.695 45.665 23.31 46.045 22.54H47.89C47.64 23.3 47.185 23.925 46.525 24.415C45.875 24.895 45.065 25.135 44.095 25.135C43.305 25.135 42.595 24.96 41.965 24.61C41.345 24.25 40.855 23.75 40.495 23.11C40.145 22.46 39.97 21.71 39.97 20.86C39.97 20.01 40.14 19.265 40.48 18.625C40.83 17.975 41.315 17.475 41.935 17.125C42.565 16.775 43.285 16.6 44.095 16.6C44.875 16.6 45.57 16.77 46.18 17.11C46.79 17.45 47.265 17.93 47.605 18.55C47.945 19.16 48.115 19.865 48.115 20.665ZM46.33 20.125C46.32 19.495 46.095 18.99 45.655 18.61C45.215 18.23 44.67 18.04 44.02 18.04C43.43 18.04 42.925 18.23 42.505 18.61C42.085 18.98 41.835 19.485 41.755 20.125H46.33ZM57.3729 20.665C57.3729 20.975 57.3529 21.255 57.3129 21.505H50.9979C51.0479 22.165 51.2929 22.695 51.7329 23.095C52.1729 23.495 52.7129 23.695 53.3529 23.695C54.2729 23.695 54.9229 23.31 55.3029 22.54H57.1479C56.8979 23.3 56.4429 23.925 55.7829 24.415C55.1329 24.895 54.3229 25.135 53.3529 25.135C52.5629 25.135 51.8529 24.96 51.2229 24.61C50.6029 24.25 50.1129 23.75 49.7529 23.11C49.4029 22.46 49.2279 21.71 49.2279 20.86C49.2279 20.01 49.3979 19.265 49.7379 18.625C50.0879 17.975 50.5729 17.475 51.1929 17.125C51.8229 16.775 52.5429 16.6 53.3529 16.6C54.1329 16.6 54.8279 16.77 55.4379 17.11C56.0479 17.45 56.5229 17.93 56.8629 18.55C57.2029 19.16 57.3729 19.865 57.3729 20.665ZM55.5879 20.125C55.5779 19.495 55.3529 18.99 54.9129 18.61C54.4729 18.23 53.9279 18.04 53.2779 18.04C52.6879 18.04 52.1829 18.23 51.7629 18.61C51.3429 18.98 51.0929 19.485 51.0129 20.125H55.5879ZM64.6621 13.9V25H62.9521V13.9H64.6621ZM67.7772 15.64C67.4672 15.64 67.2072 15.535 66.9972 15.325C66.7872 15.115 66.6822 14.855 66.6822 14.545C66.6822 14.235 66.7872 13.975 66.9972 13.765C67.2072 13.555 67.4672 13.45 67.7772 13.45C68.0772 13.45 68.3322 13.555 68.5422 13.765C68.7522 13.975 68.8572 14.235 68.8572 14.545C68.8572 14.855 68.7522 15.115 68.5422 15.325C68.3322 15.535 68.0772 15.64 67.7772 15.64ZM68.6172 16.735V25H66.9072V16.735H68.6172ZM74.0573 23.47L76.3973 16.735H78.2123L75.0623 25H73.0223L69.8873 16.735H71.7173L74.0573 23.47ZM87.0799 20.665C87.0799 20.975 87.0599 21.255 87.0199 21.505H80.7049C80.7549 22.165 80.9999 22.695 81.4399 23.095C81.8799 23.495 82.4199 23.695 83.0599 23.695C83.9799 23.695 84.6299 23.31 85.0099 22.54H86.8549C86.6049 23.3 86.1499 23.925 85.4899 24.415C84.8399 24.895 84.0299 25.135 83.0599 25.135C82.2699 25.135 81.5599 24.96 80.9299 24.61C80.3099 24.25 79.8199 23.75 79.4599 23.11C79.1099 22.46 78.9349 21.71 78.9349 20.86C78.9349 20.01 79.1049 19.265 79.4449 18.625C79.7949 17.975 80.2799 17.475 80.8999 17.125C81.5299 16.775 82.2499 16.6 83.0599 16.6C83.8399 16.6 84.5349 16.77 85.1449 17.11C85.7549 17.45 86.2299 17.93 86.5699 18.55C86.9099 19.16 87.0799 19.865 87.0799 20.665ZM85.2949 20.125C85.2849 19.495 85.0599 18.99 84.6199 18.61C84.1799 18.23 83.6349 18.04 82.9849 18.04C82.3949 18.04 81.8899 18.23 81.4699 18.61C81.0499 18.98 80.7999 19.485 80.7199 20.125H85.2949Z" fill="#396DF2"/>
<path fill-rule="evenodd" clip-rule="evenodd" d="M103 20C103 16.134 106.134 13 110 13C110.552 13 111 12.5523 111 12C111 11.4477 110.552 11 110 11C105.029 11 101 15.0294 101 20C101 24.9706 105.029 29 110 29C114.971 29 119 24.9706 119 20C119 19.4477 118.552 19 118 19C117.448 19 117 19.4477 117 20C117 23.866 113.866 27 110 27C106.134 27 103 23.866 103 20ZM114 11C113.448 11 113 11.4477 113 12C113 12.5523 113.448 13 114 13H115.586L109.293 19.2929C108.902 19.6834 108.902 20.3166 109.293 20.7071C109.683 21.0976 110.317 21.0976 110.707 20.7071L117 14.4142V16C117 16.5523 117.448 17 118 17C118.552 17 119 16.5523 119 16V12C119 11.4477 118.552 11 118 11H114Z" fill="#6070FF"/>
<rect x="5.5" y="0.5" width="141" height="39" rx="7.5" stroke="#6070FF"/>
<path d="M179.284 22.18C179.284 22.7 179.159 23.185 178.909 23.635C178.659 24.075 178.279 24.43 177.769 24.7C177.259 24.97 176.634 25.105 175.894 25.105C175.174 25.105 174.529 24.98 173.959 24.73C173.389 24.47 172.934 24.11 172.594 23.65C172.254 23.19 172.059 22.66 172.009 22.06H173.839C173.889 22.52 174.084 22.915 174.424 23.245C174.774 23.575 175.239 23.74 175.819 23.74C176.339 23.74 176.739 23.6 177.019 23.32C177.309 23.04 177.454 22.68 177.454 22.24C177.454 21.86 177.349 21.55 177.139 21.31C176.929 21.06 176.669 20.865 176.359 20.725C176.049 20.585 175.624 20.425 175.084 20.245C174.424 20.035 173.884 19.825 173.464 19.615C173.054 19.405 172.704 19.1 172.414 18.7C172.124 18.3 171.979 17.775 171.979 17.125C171.979 16.555 172.119 16.055 172.399 15.625C172.679 15.195 173.079 14.865 173.599 14.635C174.119 14.395 174.719 14.275 175.399 14.275C176.479 14.275 177.334 14.535 177.964 15.055C178.604 15.575 178.969 16.255 179.059 17.095H177.214C177.144 16.695 176.954 16.355 176.644 16.075C176.344 15.785 175.929 15.64 175.399 15.64C174.919 15.64 174.534 15.765 174.244 16.015C173.954 16.255 173.809 16.605 173.809 17.065C173.809 17.425 173.909 17.725 174.109 17.965C174.309 18.195 174.559 18.38 174.859 18.52C175.169 18.65 175.589 18.805 176.119 18.985C176.789 19.195 177.334 19.41 177.754 19.63C178.184 19.84 178.544 20.15 178.834 20.56C179.134 20.97 179.284 21.51 179.284 22.18ZM188.675 20.47C188.675 20.75 188.655 20.995 188.615 21.205H182.255C182.285 22.055 182.52 22.685 182.96 23.095C183.4 23.505 183.945 23.71 184.595 23.71C185.165 23.71 185.645 23.565 186.035 23.275C186.435 22.985 186.68 22.6 186.77 22.12H188.6C188.49 22.7 188.26 23.215 187.91 23.665C187.56 24.115 187.105 24.47 186.545 24.73C185.985 24.98 185.36 25.105 184.67 25.105C183.87 25.105 183.16 24.935 182.54 24.595C181.93 24.255 181.45 23.765 181.1 23.125C180.75 22.485 180.575 21.73 180.575 20.86C180.575 20 180.75 19.25 181.1 18.61C181.45 17.97 181.93 17.48 182.54 17.14C183.16 16.8 183.87 16.63 184.67 16.63C185.48 16.63 186.185 16.8 186.785 17.14C187.395 17.47 187.86 17.93 188.18 18.52C188.51 19.1 188.675 19.75 188.675 20.47ZM186.95 20.425C186.97 19.885 186.875 19.435 186.665 19.075C186.465 18.705 186.185 18.435 185.825 18.265C185.475 18.085 185.09 17.995 184.67 17.995C184 17.995 183.44 18.2 182.99 18.61C182.54 19.02 182.295 19.625 182.255 20.425H186.95ZM198.007 20.47C198.007 20.75 197.987 20.995 197.947 21.205H191.587C191.617 22.055 191.852 22.685 192.292 23.095C192.732 23.505 193.277 23.71 193.927 23.71C194.497 23.71 194.977 23.565 195.367 23.275C195.767 22.985 196.012 22.6 196.102 22.12H197.932C197.822 22.7 197.592 23.215 197.242 23.665C196.892 24.115 196.437 24.47 195.877 24.73C195.317 24.98 194.692 25.105 194.002 25.105C193.202 25.105 192.492 24.935 191.872 24.595C191.262 24.255 190.782 23.765 190.432 23.125C190.082 22.485 189.907 21.73 189.907 20.86C189.907 20 190.082 19.25 190.432 18.61C190.782 17.97 191.262 17.48 191.872 17.14C192.492 16.8 193.202 16.63 194.002 16.63C194.812 16.63 195.517 16.8 196.117 17.14C196.727 17.47 197.192 17.93 197.512 18.52C197.842 19.1 198.007 19.75 198.007 20.47ZM196.282 20.425C196.302 19.885 196.207 19.435 195.997 19.075C195.797 18.705 195.517 18.435 195.157 18.265C194.807 18.085 194.422 17.995 194.002 17.995C193.332 17.995 192.772 18.2 192.322 18.61C191.872 19.02 191.627 19.625 191.587 20.425H196.282ZM210.133 22.18C210.133 22.7 210.008 23.185 209.758 23.635C209.508 24.075 209.128 24.43 208.618 24.7C208.108 24.97 207.483 25.105 206.743 25.105C206.023 25.105 205.378 24.98 204.808 24.73C204.238 24.47 203.783 24.11 203.443 23.65C203.103 23.19 202.908 22.66 202.858 22.06H204.688C204.738 22.52 204.933 22.915 205.273 23.245C205.623 23.575 206.088 23.74 206.668 23.74C207.188 23.74 207.588 23.6 207.868 23.32C208.158 23.04 208.303 22.68 208.303 22.24C208.303 21.86 208.198 21.55 207.988 21.31C207.778 21.06 207.518 20.865 207.208 20.725C206.898 20.585 206.473 20.425 205.933 20.245C205.273 20.035 204.733 19.825 204.313 19.615C203.903 19.405 203.553 19.1 203.263 18.7C202.973 18.3 202.828 17.775 202.828 17.125C202.828 16.555 202.968 16.055 203.248 15.625C203.528 15.195 203.928 14.865 204.448 14.635C204.968 14.395 205.568 14.275 206.248 14.275C207.328 14.275 208.183 14.535 208.813 15.055C209.453 15.575 209.818 16.255 209.908 17.095H208.063C207.993 16.695 207.803 16.355 207.493 16.075C207.193 15.785 206.778 15.64 206.248 15.64C205.768 15.64 205.383 15.765 205.093 16.015C204.803 16.255 204.658 16.605 204.658 17.065C204.658 17.425 204.758 17.725 204.958 17.965C205.158 18.195 205.408 18.38 205.708 18.52C206.018 18.65 206.438 18.805 206.968 18.985C207.638 19.195 208.183 19.41 208.603 19.63C209.033 19.84 209.393 20.15 209.683 20.56C209.983 20.97 210.133 21.51 210.133 22.18ZM215.625 16.63C216.425 16.63 217.145 16.8 217.785 17.14C218.425 17.48 218.925 17.97 219.285 18.61C219.645 19.25 219.825 20 219.825 20.86C219.825 21.73 219.645 22.485 219.285 23.125C218.925 23.765 218.425 24.255 217.785 24.595C217.145 24.935 216.425 25.105 215.625 25.105C214.825 25.105 214.105 24.935 213.465 24.595C212.835 24.255 212.335 23.765 211.965 23.125C211.605 22.475 211.425 21.72 211.425 20.86C211.425 20 211.605 19.25 211.965 18.61C212.335 17.97 212.835 17.48 213.465 17.14C214.105 16.8 214.825 16.63 215.625 16.63ZM215.625 18.115C215.185 18.115 214.78 18.215 214.41 18.415C214.04 18.615 213.74 18.925 213.51 19.345C213.29 19.755 213.18 20.26 213.18 20.86C213.18 21.47 213.29 21.98 213.51 22.39C213.74 22.8 214.04 23.105 214.41 23.305C214.78 23.505 215.185 23.605 215.625 23.605C216.065 23.605 216.47 23.505 216.84 23.305C217.21 23.105 217.505 22.8 217.725 22.39C217.955 21.98 218.07 21.47 218.07 20.86C218.07 20.26 217.955 19.755 217.725 19.345C217.505 18.925 217.21 18.615 216.84 18.415C216.47 18.215 216.065 18.115 215.625 18.115ZM229.089 16.735V25H227.364V23.2C227.154 23.81 226.789 24.285 226.269 24.625C225.749 24.955 225.144 25.12 224.454 25.12C223.494 25.12 222.724 24.81 222.144 24.19C221.564 23.57 221.274 22.685 221.274 21.535V16.735H222.984V21.355C222.984 22.105 223.174 22.685 223.554 23.095C223.934 23.495 224.454 23.695 225.114 23.695C225.794 23.695 226.339 23.475 226.749 23.035C227.159 22.595 227.364 21.955 227.364 21.115V16.735H229.089ZM232.847 18.355C233.127 17.815 233.527 17.39 234.047 17.08C234.567 16.76 235.167 16.6 235.847 16.6V18.46H235.337C234.587 18.46 233.982 18.645 233.522 19.015C233.072 19.375 232.847 19.975 232.847 20.815V25H231.137V16.735H232.847V18.355ZM240.803 16.63C241.873 16.63 242.758 16.915 243.458 17.485C244.158 18.045 244.593 18.81 244.763 19.78H242.948C242.848 19.26 242.603 18.855 242.213 18.565C241.833 18.265 241.353 18.115 240.773 18.115C240.113 18.115 239.563 18.35 239.123 18.82C238.683 19.28 238.463 19.96 238.463 20.86C238.463 21.76 238.683 22.445 239.123 22.915C239.563 23.385 240.113 23.62 240.773 23.62C241.353 23.62 241.833 23.47 242.213 23.17C242.603 22.87 242.848 22.46 242.948 21.94H244.763C244.593 22.91 244.158 23.68 243.458 24.25C242.758 24.82 241.873 25.105 240.803 25.105C240.003 25.105 239.293 24.935 238.673 24.595C238.063 24.255 237.583 23.765 237.233 23.125C236.883 22.485 236.708 21.73 236.708 20.86C236.708 20 236.883 19.25 237.233 18.61C237.583 17.97 238.063 17.48 238.673 17.14C239.293 16.8 240.003 16.63 240.803 16.63ZM254.095 20.47C254.095 20.75 254.075 20.995 254.035 21.205H247.675C247.705 22.055 247.94 22.685 248.38 23.095C248.82 23.505 249.365 23.71 250.015 23.71C250.585 23.71 251.065 23.565 251.455 23.275C251.855 22.985 252.1 22.6 252.19 22.12H254.02C253.91 22.7 253.68 23.215 253.33 23.665C252.98 24.115 252.525 24.47 251.965 24.73C251.405 24.98 250.78 25.105 250.09 25.105C249.29 25.105 248.58 24.935 247.96 24.595C247.35 24.255 246.87 23.765 246.52 23.125C246.17 22.485 245.995 21.73 245.995 20.86C245.995 20 246.17 19.25 246.52 18.61C246.87 17.97 247.35 17.48 247.96 17.14C248.58 16.8 249.29 16.63 250.09 16.63C250.9 16.63 251.605 16.8 252.205 17.14C252.815 17.47 253.28 17.93 253.6 18.52C253.93 19.1 254.095 19.75 254.095 20.47ZM252.37 20.425C252.39 19.885 252.295 19.435 252.085 19.075C251.885 18.705 251.605 18.435 251.245 18.265C250.895 18.085 250.51 17.995 250.09 17.995C249.42 17.995 248.86 18.2 248.41 18.61C247.96 19.02 247.715 19.625 247.675 20.425H252.37Z" fill="#6070FF"/>
<g clip-path="url(#clip0_34_1250)">
<path d="M285.999 17.4611C285.999 16.3212 285.633 15.2504 284.934 14.3178C285.2 13.4197 285.267 12.2798 285.2 10.9672C285.167 10.4145 284.735 10 284.202 10C283.903 10 281.374 10.0345 279.91 11.3817C278.646 11.1399 277.315 11.1399 276.017 11.3817C274.587 10.0345 272.058 10 271.725 10C271.193 10 270.76 10.4145 270.727 10.9672C270.627 12.2798 270.727 13.4197 270.993 14.3178C270.295 15.285 269.929 16.3558 269.929 17.4611C269.929 19.8791 271.725 22.0553 274.454 23.0915C274.354 23.2988 274.287 23.5406 274.221 23.7824C271.326 23.4715 269.962 20.7427 269.895 20.639C269.662 20.1209 269.064 19.9136 268.564 20.19C268.065 20.4318 267.866 21.0535 268.132 21.5717C268.199 21.7444 270.028 25.4404 274.054 25.8549V28.9637C274.054 29.5509 274.487 30 275.052 30H280.875C281.441 30 281.873 29.5509 281.873 28.9637V24.8532C281.873 24.2314 281.74 23.6442 281.507 23.1261C284.202 22.0553 285.999 19.9136 285.999 17.4611Z" fill="#6070FF"/>
</g>
<rect x="159.5" y="0.5" width="141" height="39" rx="7.5" stroke="#6070FF"/>
<defs>
<clipPath id="clip0_34_1250">
<rect width="18" height="20" fill="white" transform="translate(268 10)"/>
</clipPath>
</defs>
</svg>
