<svg width="162" height="48" viewBox="0 0 162 48" fill="none" xmlns="http://www.w3.org/2000/svg">
<path d="M18.9531 17.896C20.3811 17.896 21.5711 18.2473 22.5231 18.95C23.4751 19.6527 24.1041 20.6103 24.4101 21.823H22.3701C22.1095 21.177 21.6788 20.6613 21.0781 20.276C20.4888 19.8907 19.7861 19.698 18.9701 19.698C18.2221 19.698 17.5478 19.8737 16.9471 20.225C16.3578 20.5763 15.8931 21.075 15.5531 21.721C15.2245 22.367 15.0601 23.1263 15.0601 23.999C15.0601 24.917 15.2301 25.7047 15.5701 26.362C15.9101 27.0193 16.3861 27.5237 16.9981 27.875C17.6215 28.215 18.3411 28.385 19.1571 28.385C20.1545 28.385 21.0101 28.079 21.7241 27.467C22.4381 26.8437 22.8688 25.9937 23.0161 24.917H18.6131V23.489H24.6481V25.342C24.5121 26.226 24.1948 27.0307 23.6961 27.756C23.2088 28.47 22.5571 29.0423 21.7411 29.473C20.9365 29.9037 20.0128 30.119 18.9701 30.119C17.8028 30.119 16.7715 29.8583 15.8761 29.337C14.9808 28.8157 14.2895 28.096 13.8021 27.178C13.3148 26.2487 13.0711 25.189 13.0711 23.999C13.0711 22.809 13.3148 21.755 13.8021 20.837C14.2895 19.9077 14.9751 19.188 15.8591 18.678C16.7545 18.1567 17.7858 17.896 18.9531 17.896ZM35.8246 24.866C35.8246 25.1833 35.8019 25.461 35.7566 25.699H28.5486C28.5826 26.6623 28.8489 27.3763 29.3476 27.841C29.8462 28.3057 30.4639 28.538 31.2006 28.538C31.8466 28.538 32.3906 28.3737 32.8326 28.045C33.2859 27.7163 33.5636 27.28 33.6656 26.736H35.7396C35.6149 27.3933 35.3542 27.977 34.9576 28.487C34.5609 28.997 34.0452 29.3993 33.4106 29.694C32.7759 29.9773 32.0676 30.119 31.2856 30.119C30.3789 30.119 29.5742 29.9263 28.8716 29.541C28.1802 29.1557 27.6362 28.6003 27.2396 27.875C26.8429 27.1497 26.6446 26.294 26.6446 25.308C26.6446 24.3333 26.8429 23.4833 27.2396 22.758C27.6362 22.0327 28.1802 21.4773 28.8716 21.092C29.5742 20.7067 30.3789 20.514 31.2856 20.514C32.2036 20.514 33.0026 20.7067 33.6826 21.092C34.3739 21.466 34.9009 21.9873 35.2636 22.656C35.6376 23.3133 35.8246 24.05 35.8246 24.866ZM33.8696 24.815C33.8922 24.203 33.7846 23.693 33.5466 23.285C33.3199 22.8657 33.0026 22.5597 32.5946 22.367C32.1979 22.163 31.7616 22.061 31.2856 22.061C30.5262 22.061 29.8916 22.2933 29.3816 22.758C28.8716 23.2227 28.5939 23.9083 28.5486 24.815H33.8696ZM42.9148 28.317V30H41.7248C40.7274 30 39.9681 29.762 39.4468 29.286C38.9368 28.7987 38.6818 27.994 38.6818 26.872V22.282H37.3388V20.633H38.6818V18.304H40.6368V20.633H42.8978V22.282H40.6368V26.906C40.6368 27.4387 40.7331 27.807 40.9258 28.011C41.1298 28.215 41.4811 28.317 41.9798 28.317H42.9148ZM61.4475 20.48C62.5582 20.48 63.4422 20.8313 64.0995 21.534C64.7682 22.2367 65.1025 23.2397 65.1025 24.543V30H63.1645V24.747C63.1645 23.931 62.9605 23.302 62.5525 22.86C62.1445 22.4067 61.5835 22.18 60.8695 22.18C60.1102 22.18 59.5039 22.4237 59.0505 22.911C58.6085 23.387 58.3875 24.0897 58.3875 25.019V30H56.4495V24.747C56.4495 23.931 56.2455 23.302 55.8375 22.86C55.4295 22.4067 54.8685 22.18 54.1545 22.18C53.3952 22.18 52.7889 22.4237 52.3355 22.911C51.8935 23.387 51.6725 24.0897 51.6725 25.019V30H49.7345V20.633H51.6725V22.588C51.9105 21.908 52.3072 21.3867 52.8625 21.024C53.4179 20.6613 54.0695 20.48 54.8175 20.48C55.5995 20.48 56.2739 20.6727 56.8405 21.058C57.4185 21.4433 57.8379 21.9987 58.0985 22.724C58.3705 22.0213 58.8069 21.4717 59.4075 21.075C60.0082 20.6783 60.6882 20.48 61.4475 20.48ZM68.9804 20.633L71.7854 27.518L74.3864 20.633H76.5454L70.8844 34.454H68.7254L70.7484 29.779L66.8044 20.633H68.9804ZM84.7621 22.469C85.0794 21.857 85.5328 21.3753 86.1221 21.024C86.7114 20.6613 87.3914 20.48 88.1621 20.48V22.588H87.5841C86.7341 22.588 86.0484 22.7977 85.5271 23.217C85.0171 23.625 84.7621 24.305 84.7621 25.257V30H82.8241V20.633H84.7621V22.469ZM98.8282 24.866C98.8282 25.1833 98.8055 25.461 98.7602 25.699H91.5522C91.5862 26.6623 91.8525 27.3763 92.3512 27.841C92.8498 28.3057 93.4675 28.538 94.2042 28.538C94.8502 28.538 95.3942 28.3737 95.8362 28.045C96.2895 27.7163 96.5672 27.28 96.6692 26.736H98.7432C98.6185 27.3933 98.3578 27.977 97.9612 28.487C97.5645 28.997 97.0488 29.3993 96.4142 29.694C95.7795 29.9773 95.0712 30.119 94.2892 30.119C93.3825 30.119 92.5778 29.9263 91.8752 29.541C91.1838 29.1557 90.6398 28.6003 90.2432 27.875C89.8465 27.1497 89.6482 26.294 89.6482 25.308C89.6482 24.3333 89.8465 23.4833 90.2432 22.758C90.6398 22.0327 91.1838 21.4773 91.8752 21.092C92.5778 20.7067 93.3825 20.514 94.2892 20.514C95.2072 20.514 96.0062 20.7067 96.6862 21.092C97.3775 21.466 97.9045 21.9873 98.2672 22.656C98.6412 23.3133 98.8282 24.05 98.8282 24.866ZM96.8732 24.815C96.8958 24.203 96.7882 23.693 96.5502 23.285C96.3235 22.8657 96.0062 22.5597 95.5982 22.367C95.2015 22.163 94.7652 22.061 94.2892 22.061C93.5298 22.061 92.8952 22.2933 92.3852 22.758C91.8752 23.2227 91.5975 23.9083 91.5522 24.815H96.8732ZM104.286 20.514C105.386 20.514 106.264 20.7973 106.921 21.364C107.59 21.9193 107.998 22.6673 108.145 23.608H106.309C106.23 23.098 106.009 22.69 105.646 22.384C105.295 22.0667 104.825 21.908 104.235 21.908C103.748 21.908 103.368 22.027 103.096 22.265C102.836 22.4917 102.705 22.8033 102.705 23.2C102.705 23.4947 102.802 23.7327 102.994 23.914C103.187 24.0953 103.425 24.237 103.708 24.339C104.003 24.441 104.417 24.5543 104.949 24.679C105.652 24.8377 106.219 25.002 106.649 25.172C107.091 25.342 107.465 25.614 107.771 25.988C108.089 26.3507 108.247 26.8493 108.247 27.484C108.247 28.266 107.947 28.9007 107.346 29.388C106.757 29.8753 105.958 30.119 104.949 30.119C103.782 30.119 102.836 29.847 102.11 29.303C101.396 28.759 100.966 27.9997 100.818 27.025H102.705C102.762 27.535 102.989 27.9487 103.385 28.266C103.782 28.5833 104.303 28.742 104.949 28.742C105.414 28.742 105.777 28.623 106.037 28.385C106.309 28.1357 106.445 27.824 106.445 27.45C106.445 27.1213 106.343 26.8607 106.139 26.668C105.935 26.4753 105.68 26.328 105.374 26.226C105.068 26.1127 104.649 25.9993 104.116 25.886C103.436 25.7273 102.881 25.5687 102.45 25.41C102.031 25.2513 101.668 24.9963 101.362 24.645C101.068 24.2823 100.92 23.795 100.92 23.183C100.92 22.3897 101.215 21.7493 101.804 21.262C102.405 20.7633 103.232 20.514 104.286 20.514ZM119.337 20.633V30H117.382V27.96C117.144 28.6513 116.73 29.1897 116.141 29.575C115.551 29.949 114.866 30.136 114.084 30.136C112.996 30.136 112.123 29.7847 111.466 29.082C110.808 28.3793 110.48 27.3763 110.48 26.073V20.633H112.418V25.869C112.418 26.719 112.633 27.3763 113.064 27.841C113.494 28.2943 114.084 28.521 114.832 28.521C115.602 28.521 116.22 28.2717 116.685 27.773C117.149 27.2743 117.382 26.549 117.382 25.597V20.633H119.337ZM133.881 20.48C134.991 20.48 135.875 20.8313 136.533 21.534C137.201 22.2367 137.536 23.2397 137.536 24.543V30H135.598V24.747C135.598 23.931 135.394 23.302 134.986 22.86C134.578 22.4067 134.017 22.18 133.303 22.18C132.543 22.18 131.937 22.4237 131.484 22.911C131.042 23.387 130.821 24.0897 130.821 25.019V30H128.883V24.747C128.883 23.931 128.679 23.302 128.271 22.86C127.863 22.4067 127.302 22.18 126.588 22.18C125.828 22.18 125.222 22.4237 124.769 22.911C124.327 23.387 124.106 24.0897 124.106 25.019V30H122.168V20.633H124.106V22.588C124.344 21.908 124.74 21.3867 125.296 21.024C125.851 20.6613 126.503 20.48 127.251 20.48C128.033 20.48 128.707 20.6727 129.274 21.058C129.852 21.4433 130.271 21.9987 130.532 22.724C130.804 22.0213 131.24 21.4717 131.841 21.075C132.441 20.6783 133.121 20.48 133.881 20.48ZM149.013 24.866C149.013 25.1833 148.99 25.461 148.945 25.699H141.737C141.771 26.6623 142.037 27.3763 142.536 27.841C143.034 28.3057 143.652 28.538 144.389 28.538C145.035 28.538 145.579 28.3737 146.021 28.045C146.474 27.7163 146.752 27.28 146.854 26.736H148.928C148.803 27.3933 148.542 27.977 148.146 28.487C147.749 28.997 147.233 29.3993 146.599 29.694C145.964 29.9773 145.256 30.119 144.474 30.119C143.567 30.119 142.762 29.9263 142.06 29.541C141.368 29.1557 140.824 28.6003 140.428 27.875C140.031 27.1497 139.833 26.294 139.833 25.308C139.833 24.3333 140.031 23.4833 140.428 22.758C140.824 22.0327 141.368 21.4773 142.06 21.092C142.762 20.7067 143.567 20.514 144.474 20.514C145.392 20.514 146.191 20.7067 146.871 21.092C147.562 21.466 148.089 21.9873 148.452 22.656C148.826 23.3133 149.013 24.05 149.013 24.866ZM147.058 24.815C147.08 24.203 146.973 23.693 146.735 23.285C146.508 22.8657 146.191 22.5597 145.783 22.367C145.386 22.163 144.95 22.061 144.474 22.061C143.714 22.061 143.08 22.2933 142.57 22.758C142.06 23.2227 141.782 23.9083 141.737 24.815H147.058Z" fill="#396DF2"/>
<rect x="0.5" y="0.5" width="161" height="47" rx="7.5" stroke="#6070FF"/>
</svg>
