<svg width="55" height="32" viewBox="0 0 55 32" fill="none" xmlns="http://www.w3.org/2000/svg">
<path d="M4.979 11.731C6.123 11.731 7.072 12.0257 7.826 12.615C8.58 13.2043 9.07833 14.006 9.321 15.02H7.397C7.19767 14.526 6.88567 14.136 6.461 13.85C6.045 13.564 5.54233 13.421 4.953 13.421C4.46767 13.421 4.03 13.5423 3.64 13.785C3.25 14.0277 2.94667 14.3743 2.73 14.825C2.51333 15.2757 2.405 15.8043 2.405 16.411C2.405 17.009 2.51333 17.5333 2.73 17.984C2.94667 18.4347 3.25 18.7813 3.64 19.024C4.03 19.2667 4.46767 19.388 4.953 19.388C5.54233 19.388 6.045 19.245 6.461 18.959C6.88567 18.673 7.19767 18.283 7.397 17.789H9.321C9.07833 18.803 8.58 19.6047 7.826 20.194C7.072 20.7833 6.123 21.078 4.979 21.078C4.10367 21.078 3.328 20.883 2.652 20.493C1.98467 20.0943 1.46467 19.5397 1.092 18.829C0.728 18.1183 0.546 17.3123 0.546 16.411C0.546 15.501 0.728 14.6907 1.092 13.98C1.46467 13.2693 1.98467 12.719 2.652 12.329C3.31933 11.9303 4.095 11.731 4.979 11.731ZM16.2863 19.154H12.6073L11.9573 21H10.0203L13.4003 11.926H15.4933L18.8603 21H16.9233L16.2863 19.154ZM15.7923 17.763L14.4403 13.889L13.0883 17.763H15.7923ZM27.6236 21H25.7906L21.6826 14.76V21H19.8496V11.822H21.6826L25.7906 18.114V11.822H27.6236V21ZM33.5852 11.692C34.4432 11.692 35.2189 11.8913 35.9122 12.29C36.6142 12.6887 37.1645 13.2477 37.5632 13.967C37.9705 14.6777 38.1742 15.4837 38.1742 16.385C38.1742 17.2863 37.9705 18.0967 37.5632 18.816C37.1645 19.5353 36.6142 20.0943 35.9122 20.493C35.2189 20.8917 34.4432 21.091 33.5852 21.091C32.7272 21.091 31.9472 20.8917 31.2452 20.493C30.5519 20.0943 30.0015 19.5353 29.5942 18.816C29.1955 18.0967 28.9962 17.2863 28.9962 16.385C28.9962 15.4837 29.1955 14.6777 29.5942 13.967C30.0015 13.2477 30.5519 12.6887 31.2452 12.29C31.9472 11.8913 32.7272 11.692 33.5852 11.692ZM33.5852 13.382C33.0479 13.382 32.5755 13.5033 32.1682 13.746C31.7609 13.9887 31.4402 14.3397 31.2062 14.799C30.9809 15.2497 30.8682 15.7783 30.8682 16.385C30.8682 16.9917 30.9809 17.5247 31.2062 17.984C31.4402 18.4347 31.7609 18.7813 32.1682 19.024C32.5755 19.2667 33.0479 19.388 33.5852 19.388C34.1225 19.388 34.5949 19.2667 35.0022 19.024C35.4095 18.7813 35.7259 18.4347 35.9512 17.984C36.1852 17.5247 36.3022 16.9917 36.3022 16.385C36.3022 15.7783 36.1852 15.2497 35.9512 14.799C35.7259 14.3397 35.4095 13.9887 35.0022 13.746C34.5949 13.5033 34.1225 13.382 33.5852 13.382ZM41.3857 17.594V21H39.5527V11.822H42.8937C43.977 11.822 44.7917 12.082 45.3377 12.602C45.8924 13.122 46.1697 13.8283 46.1697 14.721C46.1697 15.5963 45.8837 16.294 45.3117 16.814C44.7484 17.334 43.9424 17.594 42.8937 17.594H41.3857ZM42.6987 16.125C43.7734 16.125 44.3107 15.657 44.3107 14.721C44.3107 14.2617 44.185 13.9107 43.9337 13.668C43.6824 13.4253 43.2707 13.304 42.6987 13.304H41.3857V16.125H42.6987ZM54.7573 11.822L51.6503 17.789V21H49.8043V17.789L46.6843 11.822H48.7903L50.7403 15.839L52.6903 11.822H54.7573Z" fill="#344563"/>
</svg>
