<svg width="45" height="24" viewBox="0 0 45 24" fill="none" xmlns="http://www.w3.org/2000/svg">
<rect width="45" height="24" rx="8" fill="#EBEBFF"/>
<path d="M15.768 9.304C16.624 9.304 17.332 9.532 17.892 9.988C18.452 10.436 18.8 11.048 18.936 11.824H17.484C17.404 11.408 17.208 11.084 16.896 10.852C16.592 10.612 16.208 10.492 15.744 10.492C15.216 10.492 14.776 10.68 14.424 11.056C14.072 11.424 13.896 11.968 13.896 12.688C13.896 13.408 14.072 13.956 14.424 14.332C14.776 14.708 15.216 14.896 15.744 14.896C16.208 14.896 16.592 14.776 16.896 14.536C17.208 14.296 17.404 13.968 17.484 13.552H18.936C18.8 14.328 18.452 14.944 17.892 15.4C17.332 15.856 16.624 16.084 15.768 16.084C15.128 16.084 14.56 15.948 14.064 15.676C13.576 15.404 13.192 15.012 12.912 14.5C12.632 13.988 12.492 13.384 12.492 12.688C12.492 12 12.632 11.4 12.912 10.888C13.192 10.376 13.576 9.984 14.064 9.712C14.56 9.44 15.128 9.304 15.768 9.304ZM22.7897 9.304C23.5657 9.304 24.1857 9.504 24.6497 9.904C25.1217 10.296 25.4097 10.824 25.5137 11.488H24.2177C24.1617 11.128 24.0057 10.84 23.7497 10.624C23.5017 10.4 23.1697 10.288 22.7537 10.288C22.4097 10.288 22.1417 10.372 21.9497 10.54C21.7657 10.7 21.6737 10.92 21.6737 11.2C21.6737 11.408 21.7417 11.576 21.8777 11.704C22.0137 11.832 22.1817 11.932 22.3817 12.004C22.5897 12.076 22.8817 12.156 23.2577 12.244C23.7537 12.356 24.1537 12.472 24.4577 12.592C24.7697 12.712 25.0337 12.904 25.2497 13.168C25.4737 13.424 25.5857 13.776 25.5857 14.224C25.5857 14.776 25.3737 15.224 24.9497 15.568C24.5337 15.912 23.9697 16.084 23.2577 16.084C22.4337 16.084 21.7657 15.892 21.2537 15.508C20.7497 15.124 20.4457 14.588 20.3417 13.9H21.6737C21.7137 14.26 21.8737 14.552 22.1537 14.776C22.4337 15 22.8017 15.112 23.2577 15.112C23.5857 15.112 23.8417 15.028 24.0257 14.86C24.2177 14.684 24.3137 14.464 24.3137 14.2C24.3137 13.968 24.2417 13.784 24.0977 13.648C23.9537 13.512 23.7737 13.408 23.5577 13.336C23.3417 13.256 23.0457 13.176 22.6697 13.096C22.1897 12.984 21.7977 12.872 21.4937 12.76C21.1977 12.648 20.9417 12.468 20.7257 12.22C20.5177 11.964 20.4137 11.62 20.4137 11.188C20.4137 10.628 20.6217 10.176 21.0377 9.832C21.4617 9.48 22.0457 9.304 22.7897 9.304ZM29.4895 9.304C30.2655 9.304 30.8855 9.504 31.3495 9.904C31.8215 10.296 32.1095 10.824 32.2135 11.488H30.9175C30.8615 11.128 30.7055 10.84 30.4495 10.624C30.2015 10.4 29.8695 10.288 29.4535 10.288C29.1095 10.288 28.8415 10.372 28.6495 10.54C28.4655 10.7 28.3735 10.92 28.3735 11.2C28.3735 11.408 28.4415 11.576 28.5775 11.704C28.7135 11.832 28.8815 11.932 29.0815 12.004C29.2895 12.076 29.5815 12.156 29.9575 12.244C30.4535 12.356 30.8535 12.472 31.1575 12.592C31.4695 12.712 31.7335 12.904 31.9495 13.168C32.1735 13.424 32.2855 13.776 32.2855 14.224C32.2855 14.776 32.0735 15.224 31.6495 15.568C31.2335 15.912 30.6695 16.084 29.9575 16.084C29.1335 16.084 28.4655 15.892 27.9535 15.508C27.4495 15.124 27.1455 14.588 27.0415 13.9H28.3735C28.4135 14.26 28.5735 14.552 28.8535 14.776C29.1335 15 29.5015 15.112 29.9575 15.112C30.2855 15.112 30.5415 15.028 30.7255 14.86C30.9175 14.684 31.0135 14.464 31.0135 14.2C31.0135 13.968 30.9415 13.784 30.7975 13.648C30.6535 13.512 30.4735 13.408 30.2575 13.336C30.0415 13.256 29.7455 13.176 29.3695 13.096C28.8895 12.984 28.4975 12.872 28.1935 12.76C27.8975 12.648 27.6415 12.468 27.4255 12.22C27.2175 11.964 27.1135 11.62 27.1135 11.188C27.1135 10.628 27.3215 10.176 27.7375 9.832C28.1615 9.48 28.7455 9.304 29.4895 9.304Z" fill="#6070FF"/>
</svg>
