<svg width="47" height="39" viewBox="0 0 47 39" fill="none" xmlns="http://www.w3.org/2000/svg">
<path d="M41.2341 38.7825C43.5564 36.0166 45.1946 32.7426 46.0163 29.2258C46.8379 25.7089 46.8197 22.048 45.9633 18.5395C45.1069 15.0309 43.4363 11.7734 41.0868 9.03054C38.7373 6.28773 35.7748 4.13676 32.4394 2.7518C29.1039 1.36684 25.4892 0.786809 21.8879 1.05868C18.2866 1.33055 14.7999 2.44668 11.7102 4.3167C8.6205 6.18672 6.01458 8.75806 4.10345 11.8225C2.19233 14.887 1.02972 18.3584 0.709762 21.9558L10.5678 22.8326C10.7501 20.7832 11.4124 18.8055 12.5012 17.0597C13.5899 15.3139 15.0745 13.849 16.8347 12.7836C18.5949 11.7183 20.5813 11.0824 22.6329 10.9275C24.6846 10.7726 26.7439 11.1031 28.6441 11.8921C30.5443 12.6811 32.232 13.9065 33.5705 15.4691C34.909 17.0317 35.8608 18.8875 36.3487 20.8863C36.8366 22.8851 36.8469 24.9707 36.3788 26.9743C35.9108 28.9778 34.9774 30.843 33.6545 32.4188L41.2341 38.7825Z" fill="#EBEBFF"/>
</svg>
