<svg width="124" height="48" viewBox="0 0 124 48" fill="none" xmlns="http://www.w3.org/2000/svg">
<path d="M21.2215 26.804C21.2215 27.3933 21.0798 27.943 20.7965 28.453C20.5131 28.9517 20.0825 29.354 19.5045 29.66C18.9265 29.966 18.2181 30.119 17.3795 30.119C16.5635 30.119 15.8325 29.9773 15.1865 29.694C14.5405 29.3993 14.0248 28.9913 13.6395 28.47C13.2541 27.9487 13.0331 27.348 12.9764 26.668H15.0505C15.1071 27.1893 15.3281 27.637 15.7135 28.011C16.1101 28.385 16.6371 28.572 17.2945 28.572C17.8838 28.572 18.3371 28.4133 18.6545 28.096C18.9831 27.7787 19.1475 27.3707 19.1475 26.872C19.1475 26.4413 19.0285 26.09 18.7905 25.818C18.5525 25.5347 18.2578 25.3137 17.9065 25.155C17.5551 24.9963 17.0735 24.815 16.4615 24.611C15.7135 24.373 15.1015 24.135 14.6255 23.897C14.1608 23.659 13.7641 23.3133 13.4355 22.86C13.1068 22.4067 12.9425 21.8117 12.9425 21.075C12.9425 20.429 13.1011 19.8623 13.4184 19.375C13.7358 18.8877 14.1891 18.5137 14.7785 18.253C15.3678 17.981 16.0478 17.845 16.8185 17.845C18.0425 17.845 19.0115 18.1397 19.7255 18.729C20.4508 19.3183 20.8645 20.089 20.9665 21.041H18.8755C18.7961 20.5877 18.5808 20.2023 18.2295 19.885C17.8895 19.5563 17.4191 19.392 16.8185 19.392C16.2745 19.392 15.8381 19.5337 15.5095 19.817C15.1808 20.089 15.0165 20.4857 15.0165 21.007C15.0165 21.415 15.1298 21.755 15.3565 22.027C15.5831 22.2877 15.8665 22.4973 16.2065 22.656C16.5578 22.8033 17.0338 22.979 17.6345 23.183C18.3938 23.421 19.0115 23.6647 19.4875 23.914C19.9748 24.152 20.3828 24.5033 20.7115 24.968C21.0515 25.4327 21.2215 26.0447 21.2215 26.804ZM32.3756 24.866C32.3756 25.1833 32.3529 25.461 32.3076 25.699H25.0996C25.1336 26.6623 25.3999 27.3763 25.8986 27.841C26.3972 28.3057 27.0149 28.538 27.7516 28.538C28.3976 28.538 28.9416 28.3737 29.3836 28.045C29.8369 27.7163 30.1146 27.28 30.2166 26.736H32.2906C32.1659 27.3933 31.9052 27.977 31.5086 28.487C31.1119 28.997 30.5962 29.3993 29.9616 29.694C29.3269 29.9773 28.6186 30.119 27.8366 30.119C26.9299 30.119 26.1252 29.9263 25.4226 29.541C24.7312 29.1557 24.1872 28.6003 23.7906 27.875C23.3939 27.1497 23.1956 26.294 23.1956 25.308C23.1956 24.3333 23.3939 23.4833 23.7906 22.758C24.1872 22.0327 24.7312 21.4773 25.4226 21.092C26.1252 20.7067 26.9299 20.514 27.8366 20.514C28.7546 20.514 29.5536 20.7067 30.2336 21.092C30.9249 21.466 31.4519 21.9873 31.8146 22.656C32.1886 23.3133 32.3756 24.05 32.3756 24.866ZM30.4206 24.815C30.4432 24.203 30.3356 23.693 30.0976 23.285C29.8709 22.8657 29.5536 22.5597 29.1456 22.367C28.7489 22.163 28.3126 22.061 27.8366 22.061C27.0772 22.061 26.4426 22.2933 25.9326 22.758C25.4226 23.2227 25.1449 23.9083 25.0996 24.815H30.4206ZM43.4608 24.866C43.4608 25.1833 43.4381 25.461 43.3928 25.699H36.1848C36.2188 26.6623 36.4851 27.3763 36.9838 27.841C37.4824 28.3057 38.1001 28.538 38.8368 28.538C39.4828 28.538 40.0268 28.3737 40.4688 28.045C40.9221 27.7163 41.1998 27.28 41.3018 26.736H43.3758C43.2511 27.3933 42.9904 27.977 42.5938 28.487C42.1971 28.997 41.6814 29.3993 41.0468 29.694C40.4121 29.9773 39.7038 30.119 38.9218 30.119C38.0151 30.119 37.2104 29.9263 36.5078 29.541C35.8164 29.1557 35.2724 28.6003 34.8758 27.875C34.4791 27.1497 34.2808 26.294 34.2808 25.308C34.2808 24.3333 34.4791 23.4833 34.8758 22.758C35.2724 22.0327 35.8164 21.4773 36.5078 21.092C37.2104 20.7067 38.0151 20.514 38.9218 20.514C39.8398 20.514 40.6388 20.7067 41.3188 21.092C42.0101 21.466 42.5371 21.9873 42.8998 22.656C43.2738 23.3133 43.4608 24.05 43.4608 24.866ZM41.5058 24.815C41.5284 24.203 41.4208 23.693 41.1828 23.285C40.9561 22.8657 40.6388 22.5597 40.2308 22.367C39.8341 22.163 39.3978 22.061 38.9218 22.061C38.1624 22.061 37.5278 22.2933 37.0178 22.758C36.5078 23.2227 36.2301 23.9083 36.1848 24.815H41.5058ZM52.2743 25.342V30H50.3363V17.998H54.4163C55.799 17.998 56.836 18.3267 57.5273 18.984C58.23 19.6413 58.5813 20.5423 58.5813 21.687C58.5813 22.8203 58.2243 23.7157 57.5103 24.373C56.7963 25.019 55.765 25.342 54.4163 25.342H52.2743ZM54.2123 23.761C55.8103 23.761 56.6093 23.0697 56.6093 21.687C56.6093 21.007 56.4167 20.4913 56.0313 20.14C55.6573 19.7773 55.051 19.596 54.2123 19.596H52.2743V23.761H54.2123ZM62.7287 22.469C63.046 21.857 63.4993 21.3753 64.0887 21.024C64.678 20.6613 65.358 20.48 66.1287 20.48V22.588H65.5507C64.7007 22.588 64.015 22.7977 63.4937 23.217C62.9837 23.625 62.7287 24.305 62.7287 25.257V30H60.7907V20.633H62.7287V22.469ZM72.3747 20.514C73.2814 20.514 74.0974 20.7067 74.8227 21.092C75.5481 21.4773 76.1147 22.0327 76.5227 22.758C76.9307 23.4833 77.1347 24.3333 77.1347 25.308C77.1347 26.294 76.9307 27.1497 76.5227 27.875C76.1147 28.6003 75.5481 29.1557 74.8227 29.541C74.0974 29.9263 73.2814 30.119 72.3747 30.119C71.4681 30.119 70.6521 29.9263 69.9267 29.541C69.2127 29.1557 68.6461 28.6003 68.2267 27.875C67.8187 27.1383 67.6147 26.2827 67.6147 25.308C67.6147 24.3333 67.8187 23.4833 68.2267 22.758C68.6461 22.0327 69.2127 21.4773 69.9267 21.092C70.6521 20.7067 71.4681 20.514 72.3747 20.514ZM72.3747 22.197C71.8761 22.197 71.4171 22.3103 70.9977 22.537C70.5784 22.7637 70.2384 23.115 69.9777 23.591C69.7284 24.0557 69.6037 24.628 69.6037 25.308C69.6037 25.9993 69.7284 26.5773 69.9777 27.042C70.2384 27.5067 70.5784 27.8523 70.9977 28.079C71.4171 28.3057 71.8761 28.419 72.3747 28.419C72.8734 28.419 73.3324 28.3057 73.7517 28.079C74.1711 27.8523 74.5054 27.5067 74.7547 27.042C75.0154 26.5773 75.1457 25.9993 75.1457 25.308C75.1457 24.628 75.0154 24.0557 74.7547 23.591C74.5054 23.115 74.1711 22.7637 73.7517 22.537C73.3324 22.3103 72.8734 22.197 72.3747 22.197ZM80.5619 19.018C80.1879 19.018 79.8819 18.916 79.6439 18.712C79.4173 18.508 79.3039 18.2417 79.3039 17.913C79.3039 17.5843 79.4173 17.3123 79.6439 17.097C79.8819 16.8817 80.1879 16.774 80.5619 16.774C80.9359 16.774 81.2363 16.8817 81.4629 17.097C81.6896 17.3123 81.8029 17.5843 81.8029 17.913C81.8029 18.2417 81.6896 18.508 81.4629 18.712C81.2363 18.916 80.9359 19.018 80.5619 19.018ZM77.8419 32.754H78.5049C78.8789 32.754 79.1509 32.669 79.3209 32.499C79.5023 32.3403 79.5929 32.0627 79.5929 31.666V20.633H81.5479V31.683C81.5479 33.5303 80.6186 34.454 78.7599 34.454H77.8419V32.754ZM93.0716 24.866C93.0716 25.1833 93.0489 25.461 93.0035 25.699H85.7955C85.8295 26.6623 86.0959 27.3763 86.5945 27.841C87.0932 28.3057 87.7109 28.538 88.4475 28.538C89.0935 28.538 89.6376 28.3737 90.0796 28.045C90.5329 27.7163 90.8105 27.28 90.9126 26.736H92.9866C92.8619 27.3933 92.6012 27.977 92.2046 28.487C91.8079 28.997 91.2922 29.3993 90.6575 29.694C90.0229 29.9773 89.3145 30.119 88.5325 30.119C87.6259 30.119 86.8212 29.9263 86.1185 29.541C85.4272 29.1557 84.8832 28.6003 84.4865 27.875C84.0899 27.1497 83.8915 26.294 83.8915 25.308C83.8915 24.3333 84.0899 23.4833 84.4865 22.758C84.8832 22.0327 85.4272 21.4773 86.1185 21.092C86.8212 20.7067 87.6259 20.514 88.5325 20.514C89.4505 20.514 90.2495 20.7067 90.9295 21.092C91.6209 21.466 92.1479 21.9873 92.5106 22.656C92.8846 23.3133 93.0716 24.05 93.0716 24.866ZM91.1165 24.815C91.1392 24.203 91.0315 23.693 90.7936 23.285C90.5669 22.8657 90.2495 22.5597 89.8416 22.367C89.4449 22.163 89.0085 22.061 88.5325 22.061C87.7732 22.061 87.1385 22.2933 86.6285 22.758C86.1185 23.2227 85.8409 23.9083 85.7955 24.815H91.1165ZM99.6177 20.514C100.83 20.514 101.833 20.837 102.627 21.483C103.42 22.1177 103.913 22.9847 104.106 24.084H102.049C101.935 23.4947 101.658 23.0357 101.216 22.707C100.785 22.367 100.241 22.197 99.5837 22.197C98.8357 22.197 98.2124 22.4633 97.7137 22.996C97.2151 23.5173 96.9657 24.288 96.9657 25.308C96.9657 26.328 97.2151 27.1043 97.7137 27.637C98.2124 28.1697 98.8357 28.436 99.5837 28.436C100.241 28.436 100.785 28.266 101.216 27.926C101.658 27.586 101.935 27.1213 102.049 26.532H104.106C103.913 27.6313 103.42 28.504 102.627 29.15C101.833 29.796 100.83 30.119 99.6177 30.119C98.7111 30.119 97.9064 29.9263 97.2037 29.541C96.5124 29.1557 95.9684 28.6003 95.5717 27.875C95.1751 27.1497 94.9767 26.294 94.9767 25.308C94.9767 24.3333 95.1751 23.4833 95.5717 22.758C95.9684 22.0327 96.5124 21.4773 97.2037 21.092C97.9064 20.7067 98.7111 20.514 99.6177 20.514ZM111.197 28.317V30H110.007C109.01 30 108.25 29.762 107.729 29.286C107.219 28.7987 106.964 27.994 106.964 26.872V22.282H105.621V20.633H106.964V18.304H108.919V20.633H111.18V22.282H108.919V26.906C108.919 27.4387 109.015 27.807 109.208 28.011C109.412 28.215 109.763 28.317 110.262 28.317H111.197Z" fill="#396DF2"/>
<rect x="0.5" y="0.5" width="123" height="47" rx="7.5" stroke="#6070FF"/>
</svg>
