<svg width="327" height="73" viewBox="0 0 327 73" fill="none" xmlns="http://www.w3.org/2000/svg">
<g clip-path="url(#clip0_39_269)">
<path d="M21.72 29.0267V30.8667H15.66V35.2467H20.66V37.0067H15.66V43.1467H13.38V29.0267H21.72ZM26.0311 34.2867C26.4044 33.5667 26.9378 33.0001 27.6311 32.5867C28.3244 32.1601 29.1244 31.9467 30.0311 31.9467V34.4267H29.3511C28.3511 34.4267 27.5444 34.6734 26.9311 35.1667C26.3311 35.6467 26.0311 36.4467 26.0311 37.5667V43.1467H23.7511V32.1267H26.0311V34.2867ZM36.1594 31.9867C37.1594 31.9867 38.0127 32.2334 38.7194 32.7267C39.426 33.2201 39.926 33.8734 40.2194 34.6867V32.1267H42.4994V43.1467H40.2194V40.5867C39.926 41.4001 39.426 42.0534 38.7194 42.5467C38.0127 43.0401 37.1594 43.2867 36.1594 43.2867C35.1994 43.2867 34.3394 43.0601 33.5794 42.6067C32.8327 42.1534 32.246 41.5001 31.8194 40.6467C31.3927 39.7934 31.1794 38.7867 31.1794 37.6267C31.1794 36.4801 31.3927 35.4801 31.8194 34.6267C32.246 33.7734 32.8327 33.1201 33.5794 32.6667C34.3394 32.2134 35.1994 31.9867 36.1594 31.9867ZM36.8594 33.9867C35.846 33.9867 35.0327 34.3134 34.4194 34.9667C33.8194 35.6067 33.5194 36.4934 33.5194 37.6267C33.5194 38.7601 33.8194 39.6534 34.4194 40.3067C35.0327 40.9467 35.846 41.2667 36.8594 41.2667C37.4994 41.2667 38.0727 41.1201 38.5794 40.8267C39.086 40.5201 39.486 40.0934 39.7794 39.5467C40.0727 39.0001 40.2194 38.3601 40.2194 37.6267C40.2194 36.9067 40.0727 36.2734 39.7794 35.7267C39.486 35.1667 39.086 34.7401 38.5794 34.4467C38.0727 34.1401 37.4994 33.9867 36.8594 33.9867ZM59.0155 31.9467C60.3221 31.9467 61.3621 32.3601 62.1355 33.1867C62.9221 34.0134 63.3155 35.1934 63.3155 36.7267V43.1467H61.0355V36.9667C61.0355 36.0067 60.7955 35.2667 60.3155 34.7467C59.8355 34.2134 59.1755 33.9467 58.3355 33.9467C57.4421 33.9467 56.7288 34.2334 56.1955 34.8067C55.6755 35.3667 55.4155 36.1934 55.4155 37.2867V43.1467H53.1355V36.9667C53.1355 36.0067 52.8955 35.2667 52.4155 34.7467C51.9355 34.2134 51.2755 33.9467 50.4355 33.9467C49.5421 33.9467 48.8288 34.2334 48.2955 34.8067C47.7755 35.3667 47.5155 36.1934 47.5155 37.2867V43.1467H45.2355V32.1267H47.5155V34.4267C47.7955 33.6267 48.2621 33.0134 48.9155 32.5867C49.5688 32.1601 50.3355 31.9467 51.2155 31.9467C52.1355 31.9467 52.9288 32.1734 53.5955 32.6267C54.2755 33.0801 54.7688 33.7334 55.0755 34.5867C55.3955 33.7601 55.9088 33.1134 56.6155 32.6467C57.3221 32.1801 58.1221 31.9467 59.0155 31.9467ZM76.2177 37.1067C76.2177 37.4801 76.191 37.8067 76.1377 38.0867H67.6577C67.6977 39.2201 68.011 40.0601 68.5977 40.6067C69.1843 41.1534 69.911 41.4267 70.7777 41.4267C71.5377 41.4267 72.1777 41.2334 72.6977 40.8467C73.231 40.4601 73.5577 39.9467 73.6777 39.3067H76.1177C75.971 40.0801 75.6643 40.7667 75.1977 41.3667C74.731 41.9667 74.1243 42.4401 73.3777 42.7867C72.631 43.1201 71.7977 43.2867 70.8777 43.2867C69.811 43.2867 68.8643 43.0601 68.0377 42.6067C67.2243 42.1534 66.5843 41.5001 66.1177 40.6467C65.651 39.7934 65.4177 38.7867 65.4177 37.6267C65.4177 36.4801 65.651 35.4801 66.1177 34.6267C66.5843 33.7734 67.2243 33.1201 68.0377 32.6667C68.8643 32.2134 69.811 31.9867 70.8777 31.9867C71.9577 31.9867 72.8977 32.2134 73.6977 32.6667C74.511 33.1067 75.131 33.7201 75.5577 34.5067C75.9977 35.2801 76.2177 36.1467 76.2177 37.1067ZM73.9177 37.0467C73.9443 36.3267 73.8177 35.7267 73.5377 35.2467C73.271 34.7534 72.8977 34.3934 72.4177 34.1667C71.951 33.9267 71.4377 33.8067 70.8777 33.8067C69.9843 33.8067 69.2377 34.0801 68.6377 34.6267C68.0377 35.1734 67.711 35.9801 67.6577 37.0467H73.9177ZM93.8591 32.1267L90.7991 43.1467H88.2791L85.5591 34.6267L82.7991 43.1467H80.2991L77.2391 32.1267H79.5391L81.6391 41.0467L84.3991 32.1267H86.7991L89.5991 41.0467L91.6991 32.1267H93.8591ZM100.451 31.9867C101.518 31.9867 102.478 32.2134 103.331 32.6667C104.185 33.1201 104.851 33.7734 105.331 34.6267C105.811 35.4801 106.051 36.4801 106.051 37.6267C106.051 38.7867 105.811 39.7934 105.331 40.6467C104.851 41.5001 104.185 42.1534 103.331 42.6067C102.478 43.0601 101.518 43.2867 100.451 43.2867C99.3846 43.2867 98.4246 43.0601 97.5713 42.6067C96.7313 42.1534 96.0646 41.5001 95.5713 40.6467C95.0913 39.7801 94.8513 38.7734 94.8513 37.6267C94.8513 36.4801 95.0913 35.4801 95.5713 34.6267C96.0646 33.7734 96.7313 33.1201 97.5713 32.6667C98.4246 32.2134 99.3846 31.9867 100.451 31.9867ZM100.451 33.9667C99.8646 33.9667 99.3246 34.1001 98.8313 34.3667C98.3379 34.6334 97.9379 35.0467 97.6313 35.6067C97.3379 36.1534 97.1913 36.8267 97.1913 37.6267C97.1913 38.4401 97.3379 39.1201 97.6313 39.6667C97.9379 40.2134 98.3379 40.6201 98.8313 40.8867C99.3246 41.1534 99.8646 41.2867 100.451 41.2867C101.038 41.2867 101.578 41.1534 102.071 40.8867C102.565 40.6201 102.958 40.2134 103.251 39.6667C103.558 39.1201 103.711 38.4401 103.711 37.6267C103.711 36.8267 103.558 36.1534 103.251 35.6067C102.958 35.0467 102.565 34.6334 102.071 34.3667C101.578 34.1001 101.038 33.9667 100.451 33.9667ZM110.523 34.2867C110.897 33.5667 111.43 33.0001 112.123 32.5867C112.817 32.1601 113.617 31.9467 114.523 31.9467V34.4267H113.843C112.843 34.4267 112.037 34.6734 111.423 35.1667C110.823 35.6467 110.523 36.4467 110.523 37.5667V43.1467H108.243V32.1267H110.523V34.2867ZM122.472 43.1467L118.512 38.2467V43.1467H116.232V28.3467H118.512V36.8267L122.432 32.1267H125.172L120.372 37.6067L125.292 43.1467H122.472ZM130.398 31.9867C131.692 31.9867 132.725 32.3201 133.498 32.9867C134.285 33.6401 134.765 34.5201 134.938 35.6267H132.778C132.685 35.0267 132.425 34.5467 131.998 34.1867C131.585 33.8134 131.032 33.6267 130.338 33.6267C129.765 33.6267 129.318 33.7667 128.998 34.0467C128.692 34.3134 128.538 34.6801 128.538 35.1467C128.538 35.4934 128.652 35.7734 128.878 35.9867C129.105 36.2001 129.385 36.3667 129.718 36.4867C130.065 36.6067 130.552 36.7401 131.178 36.8867C132.005 37.0734 132.672 37.2667 133.178 37.4667C133.698 37.6667 134.138 37.9867 134.498 38.4267C134.872 38.8534 135.058 39.4401 135.058 40.1867C135.058 41.1067 134.705 41.8534 133.998 42.4267C133.305 43.0001 132.365 43.2867 131.178 43.2867C129.805 43.2867 128.692 42.9667 127.838 42.3267C126.998 41.6867 126.492 40.7934 126.318 39.6467H128.538C128.605 40.2467 128.872 40.7334 129.338 41.1067C129.805 41.4801 130.418 41.6667 131.178 41.6667C131.725 41.6667 132.152 41.5267 132.458 41.2467C132.778 40.9534 132.938 40.5867 132.938 40.1467C132.938 39.7601 132.818 39.4534 132.578 39.2267C132.338 39.0001 132.038 38.8267 131.678 38.7067C131.318 38.5734 130.825 38.4401 130.198 38.3067C129.398 38.1201 128.745 37.9334 128.238 37.7467C127.745 37.5601 127.318 37.2601 126.958 36.8467C126.612 36.4201 126.438 35.8467 126.438 35.1267C126.438 34.1934 126.785 33.4401 127.478 32.8667C128.185 32.2801 129.158 31.9867 130.398 31.9867Z" fill="black"/>
<path fill-rule="evenodd" clip-rule="evenodd" d="M278.293 29.4396C278.683 29.0491 279.317 29.0491 279.707 29.4396L285.707 35.4396C286.098 35.8301 286.098 36.4633 285.707 36.8538L279.707 42.8538C279.317 43.2444 278.683 43.2444 278.293 42.8538C277.902 42.4633 277.902 41.8301 278.293 41.4396L283.586 36.1467L278.293 30.8538C277.902 30.4633 277.902 29.8301 278.293 29.4396Z" fill="#505F79"/>
<rect y="71.1467" width="327" height="1" fill="#DFE1E6"/>
</g>
<defs>
<clipPath id="clip0_39_269">
<rect width="327" height="72" fill="white" transform="translate(0 0.146729)"/>
</clipPath>
</defs>
</svg>
