<svg width="236" height="32" viewBox="0 0 236 32" fill="none" xmlns="http://www.w3.org/2000/svg">
<path d="M4.979 11.731C6.123 11.731 7.072 12.0257 7.826 12.615C8.58 13.2043 9.07833 14.006 9.321 15.02H7.397C7.19767 14.526 6.88567 14.136 6.461 13.85C6.045 13.564 5.54233 13.421 4.953 13.421C4.46767 13.421 4.03 13.5423 3.64 13.785C3.25 14.0277 2.94667 14.3743 2.73 14.825C2.51333 15.2757 2.405 15.8043 2.405 16.411C2.405 17.009 2.51333 17.5333 2.73 17.984C2.94667 18.4347 3.25 18.7813 3.64 19.024C4.03 19.2667 4.46767 19.388 4.953 19.388C5.54233 19.388 6.045 19.245 6.461 18.959C6.88567 18.673 7.19767 18.283 7.397 17.789H9.321C9.07833 18.803 8.58 19.6047 7.826 20.194C7.072 20.7833 6.123 21.078 4.979 21.078C4.10367 21.078 3.328 20.883 2.652 20.493C1.98467 20.0943 1.46467 19.5397 1.092 18.829C0.728 18.1183 0.546 17.3123 0.546 16.411C0.546 15.501 0.728 14.6907 1.092 13.98C1.46467 13.2693 1.98467 12.719 2.652 12.329C3.31933 11.9303 4.095 11.731 4.979 11.731ZM16.2863 19.154H12.6073L11.9573 21H10.0203L13.4003 11.926H15.4933L18.8603 21H16.9233L16.2863 19.154ZM15.7923 17.763L14.4403 13.889L13.0883 17.763H15.7923ZM27.6236 21H25.7906L21.6826 14.76V21H19.8496V11.822H21.6826L25.7906 18.114V11.822H27.6236V21ZM33.5852 11.692C34.4432 11.692 35.2189 11.8913 35.9122 12.29C36.6142 12.6887 37.1645 13.2477 37.5632 13.967C37.9705 14.6777 38.1742 15.4837 38.1742 16.385C38.1742 17.2863 37.9705 18.0967 37.5632 18.816C37.1645 19.5353 36.6142 20.0943 35.9122 20.493C35.2189 20.8917 34.4432 21.091 33.5852 21.091C32.7272 21.091 31.9472 20.8917 31.2452 20.493C30.5519 20.0943 30.0015 19.5353 29.5942 18.816C29.1955 18.0967 28.9962 17.2863 28.9962 16.385C28.9962 15.4837 29.1955 14.6777 29.5942 13.967C30.0015 13.2477 30.5519 12.6887 31.2452 12.29C31.9472 11.8913 32.7272 11.692 33.5852 11.692ZM33.5852 13.382C33.0479 13.382 32.5755 13.5033 32.1682 13.746C31.7609 13.9887 31.4402 14.3397 31.2062 14.799C30.9809 15.2497 30.8682 15.7783 30.8682 16.385C30.8682 16.9917 30.9809 17.5247 31.2062 17.984C31.4402 18.4347 31.7609 18.7813 32.1682 19.024C32.5755 19.2667 33.0479 19.388 33.5852 19.388C34.1225 19.388 34.5949 19.2667 35.0022 19.024C35.4095 18.7813 35.7259 18.4347 35.9512 17.984C36.1852 17.5247 36.3022 16.9917 36.3022 16.385C36.3022 15.7783 36.1852 15.2497 35.9512 14.799C35.7259 14.3397 35.4095 13.9887 35.0022 13.746C34.5949 13.5033 34.1225 13.382 33.5852 13.382ZM41.3857 17.594V21H39.5527V11.822H42.8937C43.977 11.822 44.7917 12.082 45.3377 12.602C45.8924 13.122 46.1697 13.8283 46.1697 14.721C46.1697 15.5963 45.8837 16.294 45.3117 16.814C44.7484 17.334 43.9424 17.594 42.8937 17.594H41.3857ZM42.6987 16.125C43.7734 16.125 44.3107 15.657 44.3107 14.721C44.3107 14.2617 44.185 13.9107 43.9337 13.668C43.6824 13.4253 43.2707 13.304 42.6987 13.304H41.3857V16.125H42.6987ZM54.7573 11.822L51.6503 17.789V21H49.8043V17.789L46.6843 11.822H48.7903L50.7403 15.839L52.6903 11.822H54.7573Z" fill="#344563"/>
<circle cx="71" cy="16" r="4" fill="#C1C7D0"/>
<path d="M92.954 16.268C93.5087 16.3807 93.9507 16.645 94.28 17.061C94.618 17.4683 94.787 17.9493 94.787 18.504C94.787 19.2753 94.527 19.8863 94.007 20.337C93.4957 20.779 92.7503 21 91.771 21H87.832V11.822H91.693C92.6203 11.822 93.331 12.0257 93.825 12.433C94.3277 12.8403 94.579 13.4123 94.579 14.149C94.579 14.721 94.4273 15.189 94.124 15.553C93.8293 15.917 93.4393 16.1553 92.954 16.268ZM89.665 15.67H91.316C91.7753 15.67 92.122 15.5703 92.356 15.371C92.5987 15.163 92.72 14.8683 92.72 14.487C92.72 14.1057 92.603 13.811 92.369 13.603C92.135 13.395 91.7753 13.291 91.29 13.291H89.665V15.67ZM91.407 19.505C91.8923 19.505 92.265 19.401 92.525 19.193C92.785 18.9763 92.915 18.6643 92.915 18.257C92.915 17.8497 92.7807 17.5377 92.512 17.321C92.252 17.0957 91.8793 16.983 91.394 16.983H89.665V19.505H91.407ZM98.8923 13.707C99.4989 13.707 100.019 13.85 100.452 14.136C100.886 14.422 101.193 14.8077 101.375 15.293V13.798H103.195V21H101.375V19.492C101.193 19.9773 100.886 20.3673 100.452 20.662C100.019 20.948 99.4989 21.091 98.8923 21.091C98.2856 21.091 97.7396 20.9437 97.2543 20.649C96.7689 20.3543 96.3876 19.9297 96.1103 19.375C95.8416 18.8117 95.7073 18.153 95.7073 17.399C95.7073 16.645 95.8416 15.9907 96.1103 15.436C96.3876 14.8727 96.7689 14.4437 97.2543 14.149C97.7396 13.8543 98.2856 13.707 98.8923 13.707ZM99.4643 15.306C98.8923 15.306 98.4329 15.4923 98.0863 15.865C97.7396 16.2377 97.5663 16.749 97.5663 17.399C97.5663 18.049 97.7396 18.5603 98.0863 18.933C98.4329 19.297 98.8923 19.479 99.4643 19.479C100.019 19.479 100.474 19.2927 100.829 18.92C101.193 18.5387 101.375 18.0317 101.375 17.399C101.375 16.7577 101.193 16.2507 100.829 15.878C100.474 15.4967 100.019 15.306 99.4643 15.306ZM108.093 13.707C109.021 13.707 109.792 13.9583 110.407 14.461C111.031 14.9637 111.421 15.6483 111.577 16.515H109.64C109.562 16.1337 109.385 15.8347 109.107 15.618C108.83 15.3927 108.479 15.28 108.054 15.28C107.569 15.28 107.162 15.462 106.832 15.826C106.512 16.1813 106.351 16.7057 106.351 17.399C106.351 18.0923 106.512 18.621 106.832 18.985C107.162 19.3403 107.569 19.518 108.054 19.518C108.479 19.518 108.83 19.4097 109.107 19.193C109.385 18.9677 109.562 18.6643 109.64 18.283H111.577C111.421 19.1497 111.031 19.8343 110.407 20.337C109.792 20.8397 109.021 21.091 108.093 21.091C107.391 21.091 106.767 20.9437 106.221 20.649C105.675 20.3457 105.251 19.9167 104.947 19.362C104.644 18.8073 104.492 18.153 104.492 17.399C104.492 16.645 104.644 15.9907 104.947 15.436C105.251 14.8727 105.675 14.4437 106.221 14.149C106.767 13.8543 107.391 13.707 108.093 13.707ZM117.092 21L114.713 17.854V21H112.88V11.38H114.713V16.788L117.079 13.798H119.25L116.221 17.386L119.328 21H117.092ZM124.882 13.278V15.657H128.132V17.061H124.882V19.531H128.522V21H123.049V11.822H128.522V13.278H124.882ZM134.169 13.694C135.001 13.694 135.664 13.967 136.158 14.513C136.652 15.059 136.899 15.826 136.899 16.814V21H135.079V17.022C135.079 16.45 134.932 16.008 134.637 15.696C134.342 15.3753 133.939 15.215 133.428 15.215C132.908 15.215 132.492 15.384 132.18 15.722C131.868 16.06 131.712 16.5453 131.712 17.178V21H129.879V13.798H131.712V15.241C131.903 14.7557 132.215 14.3787 132.648 14.11C133.09 13.8327 133.597 13.694 134.169 13.694ZM141.333 13.707C141.939 13.707 142.455 13.85 142.88 14.136C143.313 14.422 143.625 14.8077 143.816 15.293V11.38H145.636V21H143.816V19.492C143.625 19.9773 143.313 20.3673 142.88 20.662C142.455 20.948 141.939 21.091 141.333 21.091C140.726 21.091 140.18 20.9437 139.695 20.649C139.209 20.3543 138.828 19.9297 138.551 19.375C138.282 18.8117 138.148 18.153 138.148 17.399C138.148 16.645 138.282 15.9907 138.551 15.436C138.828 14.8727 139.209 14.4437 139.695 14.149C140.18 13.8543 140.726 13.707 141.333 13.707ZM141.905 15.306C141.333 15.306 140.873 15.4923 140.527 15.865C140.18 16.2377 140.007 16.749 140.007 17.399C140.007 18.049 140.18 18.5603 140.527 18.933C140.873 19.297 141.333 19.479 141.905 19.479C142.459 19.479 142.914 19.2927 143.27 18.92C143.634 18.5387 143.816 18.0317 143.816 17.399C143.816 16.7577 143.634 16.2507 143.27 15.878C142.914 15.4967 142.459 15.306 141.905 15.306ZM158.201 16.398C158.201 17.308 158.01 18.1097 157.629 18.803C157.248 19.4963 156.693 20.038 155.965 20.428C155.246 20.8093 154.388 21 153.391 21H150.128V11.822H153.391C154.388 11.822 155.246 12.0127 155.965 12.394C156.693 12.7667 157.248 13.2997 157.629 13.993C158.01 14.6777 158.201 15.4793 158.201 16.398ZM153.235 19.362C154.223 19.362 154.986 19.102 155.523 18.582C156.069 18.062 156.342 17.334 156.342 16.398C156.342 15.4533 156.069 14.721 155.523 14.201C154.986 13.681 154.223 13.421 153.235 13.421H151.961V19.362H153.235ZM166.346 17.126C166.346 17.308 166.325 17.516 166.281 17.75H161.003C161.029 18.3913 161.203 18.8637 161.523 19.167C161.844 19.4703 162.243 19.622 162.719 19.622C163.144 19.622 163.495 19.518 163.772 19.31C164.058 19.102 164.24 18.8203 164.318 18.465H166.255C166.16 18.9677 165.956 19.4183 165.644 19.817C165.332 20.2157 164.929 20.5277 164.435 20.753C163.95 20.9783 163.408 21.091 162.81 21.091C162.108 21.091 161.484 20.9437 160.938 20.649C160.392 20.3457 159.968 19.9167 159.664 19.362C159.361 18.8073 159.209 18.153 159.209 17.399C159.209 16.645 159.361 15.9907 159.664 15.436C159.968 14.8727 160.392 14.4437 160.938 14.149C161.484 13.8543 162.108 13.707 162.81 13.707C163.521 13.707 164.141 13.8543 164.669 14.149C165.207 14.4437 165.618 14.851 165.904 15.371C166.199 15.8823 166.346 16.4673 166.346 17.126ZM164.5 16.944C164.526 16.3547 164.37 15.9083 164.032 15.605C163.703 15.3017 163.296 15.15 162.81 15.15C162.316 15.15 161.9 15.3017 161.562 15.605C161.224 15.9083 161.038 16.3547 161.003 16.944H164.5ZM170.78 19.167L172.6 13.798H174.55L171.885 21H169.649L166.984 13.798H168.947L170.78 19.167Z" fill="#7A869A"/>
<circle cx="191" cy="16" r="4" fill="#C1C7D0"/>
<path d="M207.481 19.557C210.419 17.5203 211.888 15.8303 211.888 14.487C211.888 14.0797 211.788 13.759 211.589 13.525C211.398 13.291 211.095 13.174 210.679 13.174C209.821 13.174 209.366 13.759 209.314 14.929H207.533C207.585 13.8457 207.914 13.0267 208.521 12.472C209.128 11.9087 209.895 11.627 210.822 11.627C211.767 11.627 212.49 11.874 212.993 12.368C213.504 12.8533 213.76 13.5033 213.76 14.318C213.76 14.9593 213.569 15.605 213.188 16.255C212.815 16.8963 212.339 17.49 211.758 18.036C211.177 18.5733 210.566 19.037 209.925 19.427H213.942V20.922H207.481V19.557ZM214.974 16.333C214.974 19.4443 216.144 21 218.484 21C219.724 21 220.616 20.584 221.162 19.752C221.708 18.92 221.981 17.7803 221.981 16.333C221.981 14.8943 221.708 13.759 221.162 12.927C220.616 12.095 219.724 11.679 218.484 11.679C216.144 11.679 214.974 13.2303 214.974 16.333ZM220.174 16.333C220.174 17.2777 220.057 18.0057 219.823 18.517C219.598 19.0197 219.152 19.271 218.484 19.271C217.808 19.271 217.353 19.0197 217.119 18.517C216.894 18.0057 216.781 17.2777 216.781 16.333C216.781 15.397 216.894 14.6777 217.119 14.175C217.353 13.6637 217.808 13.408 218.484 13.408C219.152 13.408 219.598 13.6637 219.823 14.175C220.057 14.6777 220.174 15.397 220.174 16.333ZM222.733 13.538V11.822H226.035V21H224.111V13.538H222.733ZM234.044 13.252H229.689V15.566C229.888 15.332 230.161 15.1457 230.508 15.007C230.863 14.8597 231.253 14.786 231.678 14.786C232.311 14.786 232.835 14.9247 233.251 15.202C233.676 15.4707 233.988 15.8347 234.187 16.294C234.395 16.7447 234.499 17.2473 234.499 17.802C234.499 18.7813 234.222 19.5657 233.667 20.155C233.121 20.7443 232.337 21.039 231.314 21.039C230.647 21.039 230.066 20.922 229.572 20.688C229.078 20.4453 228.692 20.1117 228.415 19.687C228.138 19.2537 227.986 18.751 227.96 18.179H229.741C229.81 18.569 229.971 18.881 230.222 19.115C230.473 19.3403 230.807 19.453 231.223 19.453C231.726 19.453 232.098 19.3013 232.341 18.998C232.592 18.686 232.718 18.2743 232.718 17.763C232.718 17.2777 232.588 16.9007 232.328 16.632C232.068 16.3633 231.7 16.229 231.223 16.229C230.876 16.229 230.582 16.307 230.339 16.463C230.096 16.6103 229.919 16.8097 229.806 17.061H228.025V11.64H234.044V13.252Z" fill="#7A869A"/>
</svg>
