<svg width="327" height="73" viewBox="0 0 327 73" fill="none" xmlns="http://www.w3.org/2000/svg">
<g clip-path="url(#clip0_39_277)">
<path d="M22.66 39.3867C22.66 40.0801 22.4933 40.7267 22.16 41.3267C21.8267 41.9134 21.32 42.3867 20.64 42.7467C19.96 43.1067 19.1267 43.2867 18.14 43.2867C17.18 43.2867 16.32 43.1201 15.56 42.7867C14.8 42.4401 14.1933 41.9601 13.74 41.3467C13.2867 40.7334 13.0267 40.0267 12.96 39.2267H15.4C15.4667 39.8401 15.7267 40.3667 16.18 40.8067C16.6467 41.2467 17.2667 41.4667 18.04 41.4667C18.7333 41.4667 19.2667 41.2801 19.64 40.9067C20.0267 40.5334 20.22 40.0534 20.22 39.4667C20.22 38.9601 20.08 38.5467 19.8 38.2267C19.52 37.8934 19.1733 37.6334 18.76 37.4467C18.3467 37.2601 17.78 37.0467 17.06 36.8067C16.18 36.5267 15.46 36.2467 14.9 35.9667C14.3533 35.6867 13.8867 35.2801 13.5 34.7467C13.1133 34.2134 12.92 33.5134 12.92 32.6467C12.92 31.8867 13.1067 31.2201 13.48 30.6467C13.8533 30.0734 14.3867 29.6334 15.08 29.3267C15.7733 29.0067 16.5733 28.8467 17.48 28.8467C18.92 28.8467 20.06 29.1934 20.9 29.8867C21.7533 30.5801 22.24 31.4867 22.36 32.6067H19.9C19.8067 32.0734 19.5533 31.6201 19.14 31.2467C18.74 30.8601 18.1867 30.6667 17.48 30.6667C16.84 30.6667 16.3267 30.8334 15.94 31.1667C15.5533 31.4867 15.36 31.9534 15.36 32.5667C15.36 33.0467 15.4933 33.4467 15.76 33.7667C16.0267 34.0734 16.36 34.3201 16.76 34.5067C17.1733 34.6801 17.7333 34.8867 18.44 35.1267C19.3333 35.4067 20.06 35.6934 20.62 35.9867C21.1933 36.2667 21.6733 36.6801 22.06 37.2267C22.46 37.7734 22.66 38.4934 22.66 39.3867ZM31.1825 43.1467L27.2225 38.2467V43.1467H24.9425V28.3467H27.2225V36.8267L31.1425 32.1267H33.8825L29.0825 37.6067L34.0025 43.1467H31.1825ZM35.1694 28.9267C35.1694 28.5401 35.3027 28.2201 35.5694 27.9667C35.836 27.7134 36.1894 27.5867 36.6294 27.5867C37.0694 27.5867 37.4227 27.7134 37.6894 27.9667C37.9694 28.2201 38.1094 28.5401 38.1094 28.9267C38.1094 29.3134 37.9694 29.6267 37.6894 29.8667C37.4227 30.1067 37.0694 30.2267 36.6294 30.2267C36.1894 30.2267 35.836 30.1067 35.5694 29.8667C35.3027 29.6267 35.1694 29.3134 35.1694 28.9267ZM37.7694 32.1267V43.1467H35.4894V32.1267H37.7694ZM42.8084 28.3467V43.1467H40.5284V28.3467H42.8084ZM47.8475 28.3467V43.1467H45.5675V28.3467H47.8475ZM54.2266 31.9867C55.5199 31.9867 56.5532 32.3201 57.3266 32.9867C58.1132 33.6401 58.5932 34.5201 58.7666 35.6267H56.6066C56.5132 35.0267 56.2532 34.5467 55.8266 34.1867C55.4132 33.8134 54.8599 33.6267 54.1666 33.6267C53.5932 33.6267 53.1466 33.7667 52.8266 34.0467C52.5199 34.3134 52.3666 34.6801 52.3666 35.1467C52.3666 35.4934 52.4799 35.7734 52.7066 35.9867C52.9332 36.2001 53.2132 36.3667 53.5466 36.4867C53.8932 36.6067 54.3799 36.7401 55.0066 36.8867C55.8332 37.0734 56.4999 37.2667 57.0066 37.4667C57.5266 37.6667 57.9666 37.9867 58.3266 38.4267C58.6999 38.8534 58.8866 39.4401 58.8866 40.1867C58.8866 41.1067 58.5332 41.8534 57.8266 42.4267C57.1332 43.0001 56.1932 43.2867 55.0066 43.2867C53.6332 43.2867 52.5199 42.9667 51.6666 42.3267C50.8266 41.6867 50.3199 40.7934 50.1466 39.6467H52.3666C52.4332 40.2467 52.6999 40.7334 53.1666 41.1067C53.6332 41.4801 54.2466 41.6667 55.0066 41.6667C55.5532 41.6667 55.9799 41.5267 56.2866 41.2467C56.6066 40.9534 56.7666 40.5867 56.7666 40.1467C56.7666 39.7601 56.6466 39.4534 56.4066 39.2267C56.1666 39.0001 55.8666 38.8267 55.5066 38.7067C55.1466 38.5734 54.6532 38.4401 54.0266 38.3067C53.2266 38.1201 52.5732 37.9334 52.0666 37.7467C51.5732 37.5601 51.1466 37.2601 50.7866 36.8467C50.4399 36.4201 50.2666 35.8467 50.2666 35.1267C50.2666 34.1934 50.6132 33.4401 51.3066 32.8667C52.0132 32.2801 52.9866 31.9867 54.2266 31.9867Z" fill="black"/>
<path fill-rule="evenodd" clip-rule="evenodd" d="M278.293 29.4396C278.683 29.0491 279.317 29.0491 279.707 29.4396L285.707 35.4396C286.098 35.8301 286.098 36.4633 285.707 36.8538L279.707 42.8538C279.317 43.2444 278.683 43.2444 278.293 42.8538C277.902 42.4633 277.902 41.8301 278.293 41.4396L283.586 36.1467L278.293 30.8538C277.902 30.4633 277.902 29.8301 278.293 29.4396Z" fill="#505F79"/>
<rect y="71.1467" width="327" height="1" fill="#DFE1E6"/>
</g>
<defs>
<clipPath id="clip0_39_277">
<rect width="327" height="72" fill="white" transform="translate(0 0.146729)"/>
</clipPath>
</defs>
</svg>
