<svg width="327" height="72" viewBox="0 0 327 72" fill="none" xmlns="http://www.w3.org/2000/svg">
<path d="M15.66 41.22H20.54V43H13.38V28.88H15.66V41.22ZM26.7453 31.84C27.7453 31.84 28.5986 32.0867 29.3053 32.58C30.012 33.0733 30.512 33.7267 30.8053 34.54V31.98H33.0853V43H30.8053V40.44C30.512 41.2533 30.012 41.9067 29.3053 42.4C28.5986 42.8933 27.7453 43.14 26.7453 43.14C25.7853 43.14 24.9253 42.9133 24.1653 42.46C23.4186 42.0067 22.832 41.3533 22.4053 40.5C21.9786 39.6467 21.7653 38.64 21.7653 37.48C21.7653 36.3333 21.9786 35.3333 22.4053 34.48C22.832 33.6267 23.4186 32.9733 24.1653 32.52C24.9253 32.0667 25.7853 31.84 26.7453 31.84ZM27.4453 33.84C26.432 33.84 25.6186 34.1667 25.0053 34.82C24.4053 35.46 24.1053 36.3467 24.1053 37.48C24.1053 38.6133 24.4053 39.5067 25.0053 40.16C25.6186 40.8 26.432 41.12 27.4453 41.12C28.0853 41.12 28.6586 40.9733 29.1653 40.68C29.672 40.3733 30.072 39.9467 30.3653 39.4C30.6586 38.8533 30.8053 38.2133 30.8053 37.48C30.8053 36.76 30.6586 36.1267 30.3653 35.58C30.072 35.02 29.672 34.5933 29.1653 34.3C28.6586 33.9933 28.0853 33.84 27.4453 33.84ZM41.9814 31.8C43.2614 31.8 44.2881 32.2133 45.0614 33.04C45.8347 33.8667 46.2214 35.0467 46.2214 36.58V43H43.9414V36.82C43.9414 35.8333 43.6881 35.0733 43.1814 34.54C42.6747 33.9933 41.9814 33.72 41.1014 33.72C40.1947 33.72 39.4681 34.0133 38.9214 34.6C38.3747 35.1733 38.1014 36.02 38.1014 37.14V43H35.8214V31.98H38.1014V34.4C38.3947 33.5733 38.8881 32.9333 39.5814 32.48C40.2747 32.0267 41.0747 31.8 41.9814 31.8ZM53.3078 31.84C54.3078 31.84 55.1611 32.0867 55.8678 32.58C56.5745 33.0733 57.0745 33.7267 57.3678 34.54V31.98H59.6478V43.12C59.6478 44.1467 59.4345 45.0533 59.0078 45.84C58.5945 46.64 57.9945 47.2667 57.2078 47.72C56.4211 48.1733 55.4878 48.4 54.4078 48.4C52.8611 48.4 51.6078 48.0333 50.6478 47.3C49.7011 46.5667 49.1078 45.5733 48.8678 44.32H51.1278C51.3145 44.9733 51.6745 45.48 52.2078 45.84C52.7411 46.2133 53.4211 46.4 54.2478 46.4C55.1545 46.4 55.9011 46.12 56.4878 45.56C57.0745 45 57.3678 44.1867 57.3678 43.12V40.44C57.0745 41.2533 56.5745 41.9067 55.8678 42.4C55.1611 42.8933 54.3078 43.14 53.3078 43.14C52.3478 43.14 51.4878 42.9133 50.7278 42.46C49.9811 42.0067 49.3945 41.3533 48.9678 40.5C48.5411 39.6467 48.3278 38.64 48.3278 37.48C48.3278 36.3333 48.5411 35.3333 48.9678 34.48C49.3945 33.6267 49.9811 32.9733 50.7278 32.52C51.4878 32.0667 52.3478 31.84 53.3078 31.84ZM54.0078 33.84C52.9945 33.84 52.1811 34.1667 51.5678 34.82C50.9678 35.46 50.6678 36.3467 50.6678 37.48C50.6678 38.6133 50.9678 39.5067 51.5678 40.16C52.1811 40.8 52.9945 41.12 54.0078 41.12C54.6478 41.12 55.2211 40.9733 55.7278 40.68C56.2345 40.3733 56.6345 39.9467 56.9278 39.4C57.2211 38.8533 57.3678 38.2133 57.3678 37.48C57.3678 36.76 57.2211 36.1267 56.9278 35.58C56.6345 35.02 56.2345 34.5933 55.7278 34.3C55.2211 33.9933 54.6478 33.84 54.0078 33.84ZM66.8039 31.84C67.8039 31.84 68.6572 32.0867 69.3639 32.58C70.0706 33.0733 70.5706 33.7267 70.8639 34.54V31.98H73.1439V43.12C73.1439 44.1467 72.9306 45.0533 72.5039 45.84C72.0906 46.64 71.4906 47.2667 70.7039 47.72C69.9172 48.1733 68.9839 48.4 67.9039 48.4C66.3572 48.4 65.1039 48.0333 64.1439 47.3C63.1972 46.5667 62.6039 45.5733 62.3639 44.32H64.6239C64.8106 44.9733 65.1706 45.48 65.7039 45.84C66.2372 46.2133 66.9172 46.4 67.7439 46.4C68.6506 46.4 69.3972 46.12 69.9839 45.56C70.5706 45 70.8639 44.1867 70.8639 43.12V40.44C70.5706 41.2533 70.0706 41.9067 69.3639 42.4C68.6572 42.8933 67.8039 43.14 66.8039 43.14C65.8439 43.14 64.9839 42.9133 64.2239 42.46C63.4772 42.0067 62.8906 41.3533 62.4639 40.5C62.0372 39.6467 61.8239 38.64 61.8239 37.48C61.8239 36.3333 62.0372 35.3333 62.4639 34.48C62.8906 33.6267 63.4772 32.9733 64.2239 32.52C64.9839 32.0667 65.8439 31.84 66.8039 31.84ZM67.5039 33.84C66.4906 33.84 65.6772 34.1667 65.0639 34.82C64.4639 35.46 64.1639 36.3467 64.1639 37.48C64.1639 38.6133 64.4639 39.5067 65.0639 40.16C65.6772 40.8 66.4906 41.12 67.5039 41.12C68.1439 41.12 68.7172 40.9733 69.2239 40.68C69.7306 40.3733 70.1306 39.9467 70.4239 39.4C70.7172 38.8533 70.8639 38.2133 70.8639 37.48C70.8639 36.76 70.7172 36.1267 70.4239 35.58C70.1306 35.02 69.7306 34.5933 69.2239 34.3C68.7172 33.9933 68.1439 33.84 67.5039 33.84ZM86.04 31.98V43H83.74V40.6C83.46 41.4133 82.9733 42.0467 82.28 42.5C81.5867 42.94 80.78 43.16 79.86 43.16C78.58 43.16 77.5533 42.7467 76.78 41.92C76.0067 41.0933 75.62 39.9133 75.62 38.38V31.98H77.9V38.14C77.9 39.14 78.1533 39.9133 78.66 40.46C79.1667 40.9933 79.86 41.26 80.74 41.26C81.6467 41.26 82.3733 40.9667 82.92 40.38C83.4667 39.7933 83.74 38.94 83.74 37.82V31.98H86.04ZM93.1906 31.84C94.1906 31.84 95.044 32.0867 95.7506 32.58C96.4573 33.0733 96.9573 33.7267 97.2506 34.54V31.98H99.5306V43H97.2506V40.44C96.9573 41.2533 96.4573 41.9067 95.7506 42.4C95.044 42.8933 94.1906 43.14 93.1906 43.14C92.2306 43.14 91.3706 42.9133 90.6106 42.46C89.864 42.0067 89.2773 41.3533 88.8506 40.5C88.424 39.6467 88.2106 38.64 88.2106 37.48C88.2106 36.3333 88.424 35.3333 88.8506 34.48C89.2773 33.6267 89.864 32.9733 90.6106 32.52C91.3706 32.0667 92.2306 31.84 93.1906 31.84ZM93.8906 33.84C92.8773 33.84 92.064 34.1667 91.4506 34.82C90.8506 35.46 90.5506 36.3467 90.5506 37.48C90.5506 38.6133 90.8506 39.5067 91.4506 40.16C92.064 40.8 92.8773 41.12 93.8906 41.12C94.5306 41.12 95.104 40.9733 95.6106 40.68C96.1173 40.3733 96.5173 39.9467 96.8106 39.4C97.104 38.8533 97.2506 38.2133 97.2506 37.48C97.2506 36.76 97.104 36.1267 96.8106 35.58C96.5173 35.02 96.1173 34.5933 95.6106 34.3C95.104 33.9933 94.5306 33.84 93.8906 33.84ZM106.687 31.84C107.687 31.84 108.54 32.0867 109.247 32.58C109.953 33.0733 110.453 33.7267 110.747 34.54V31.98H113.027V43.12C113.027 44.1467 112.813 45.0533 112.387 45.84C111.973 46.64 111.373 47.2667 110.587 47.72C109.8 48.1733 108.867 48.4 107.787 48.4C106.24 48.4 104.987 48.0333 104.027 47.3C103.08 46.5667 102.487 45.5733 102.247 44.32H104.507C104.693 44.9733 105.053 45.48 105.587 45.84C106.12 46.2133 106.8 46.4 107.627 46.4C108.533 46.4 109.28 46.12 109.867 45.56C110.453 45 110.747 44.1867 110.747 43.12V40.44C110.453 41.2533 109.953 41.9067 109.247 42.4C108.54 42.8933 107.687 43.14 106.687 43.14C105.727 43.14 104.867 42.9133 104.107 42.46C103.36 42.0067 102.773 41.3533 102.347 40.5C101.92 39.6467 101.707 38.64 101.707 37.48C101.707 36.3333 101.92 35.3333 102.347 34.48C102.773 33.6267 103.36 32.9733 104.107 32.52C104.867 32.0667 105.727 31.84 106.687 31.84ZM107.387 33.84C106.373 33.84 105.56 34.1667 104.947 34.82C104.347 35.46 104.047 36.3467 104.047 37.48C104.047 38.6133 104.347 39.5067 104.947 40.16C105.56 40.8 106.373 41.12 107.387 41.12C108.027 41.12 108.6 40.9733 109.107 40.68C109.613 40.3733 110.013 39.9467 110.307 39.4C110.6 38.8533 110.747 38.2133 110.747 37.48C110.747 36.76 110.6 36.1267 110.307 35.58C110.013 35.02 109.613 34.5933 109.107 34.3C108.6 33.9933 108.027 33.84 107.387 33.84ZM126.003 36.96C126.003 37.3333 125.976 37.66 125.923 37.94H117.443C117.483 39.0733 117.796 39.9133 118.383 40.46C118.969 41.0067 119.696 41.28 120.563 41.28C121.323 41.28 121.963 41.0867 122.483 40.7C123.016 40.3133 123.343 39.8 123.463 39.16H125.903C125.756 39.9333 125.449 40.62 124.983 41.22C124.516 41.82 123.909 42.2933 123.163 42.64C122.416 42.9733 121.583 43.14 120.663 43.14C119.596 43.14 118.649 42.9133 117.823 42.46C117.009 42.0067 116.369 41.3533 115.903 40.5C115.436 39.6467 115.203 38.64 115.203 37.48C115.203 36.3333 115.436 35.3333 115.903 34.48C116.369 33.6267 117.009 32.9733 117.823 32.52C118.649 32.0667 119.596 31.84 120.663 31.84C121.743 31.84 122.683 32.0667 123.483 32.52C124.296 32.96 124.916 33.5733 125.343 34.36C125.783 35.1333 126.003 36 126.003 36.96ZM123.703 36.9C123.729 36.18 123.603 35.58 123.323 35.1C123.056 34.6067 122.683 34.2467 122.203 34.02C121.736 33.78 121.223 33.66 120.663 33.66C119.769 33.66 119.023 33.9333 118.423 34.48C117.823 35.0267 117.496 35.8333 117.443 36.9H123.703ZM131.824 31.84C133.118 31.84 134.151 32.1733 134.924 32.84C135.711 33.4933 136.191 34.3733 136.364 35.48H134.204C134.111 34.88 133.851 34.4 133.424 34.04C133.011 33.6667 132.458 33.48 131.764 33.48C131.191 33.48 130.744 33.62 130.424 33.9C130.118 34.1667 129.964 34.5333 129.964 35C129.964 35.3467 130.078 35.6267 130.304 35.84C130.531 36.0533 130.811 36.22 131.144 36.34C131.491 36.46 131.978 36.5933 132.604 36.74C133.431 36.9267 134.098 37.12 134.604 37.32C135.124 37.52 135.564 37.84 135.924 38.28C136.298 38.7067 136.484 39.2933 136.484 40.04C136.484 40.96 136.131 41.7067 135.424 42.28C134.731 42.8533 133.791 43.14 132.604 43.14C131.231 43.14 130.118 42.82 129.264 42.18C128.424 41.54 127.918 40.6467 127.744 39.5H129.964C130.031 40.1 130.298 40.5867 130.764 40.96C131.231 41.3333 131.844 41.52 132.604 41.52C133.151 41.52 133.578 41.38 133.884 41.1C134.204 40.8067 134.364 40.44 134.364 40C134.364 39.6133 134.244 39.3067 134.004 39.08C133.764 38.8533 133.464 38.68 133.104 38.56C132.744 38.4267 132.251 38.2933 131.624 38.16C130.824 37.9733 130.171 37.7867 129.664 37.6C129.171 37.4133 128.744 37.1133 128.384 36.7C128.038 36.2733 127.864 35.7 127.864 34.98C127.864 34.0467 128.211 33.2933 128.904 32.72C129.611 32.1333 130.584 31.84 131.824 31.84Z" fill="black"/>
<path fill-rule="evenodd" clip-rule="evenodd" d="M274.293 32.2929C274.683 31.9024 275.317 31.9024 275.707 32.2929L281 37.5858L286.293 32.2929C286.683 31.9024 287.317 31.9024 287.707 32.2929C288.098 32.6834 288.098 33.3166 287.707 33.7071L281.707 39.7071C281.317 40.0976 280.683 40.0976 280.293 39.7071L274.293 33.7071C273.902 33.3166 273.902 32.6834 274.293 32.2929Z" fill="#5E6C84"/>
</svg>
