<svg width="53" height="24" viewBox="0 0 53 24" fill="none" xmlns="http://www.w3.org/2000/svg">
<rect width="53" height="24" rx="8" fill="#EBEBFF"/>
<path d="M16.524 9.28C17.292 9.28 17.908 9.528 18.372 10.024C18.836 10.52 19.068 11.228 19.068 12.148V16H17.7V12.292C17.7 11.7 17.548 11.244 17.244 10.924C16.94 10.596 16.524 10.432 15.996 10.432C15.452 10.432 15.016 10.608 14.688 10.96C14.36 11.304 14.196 11.812 14.196 12.484V16H12.828V7.12H14.196V10.84C14.372 10.344 14.668 9.96 15.084 9.688C15.5 9.416 15.98 9.28 16.524 9.28ZM24.3518 14.812V16H23.5118C22.8078 16 22.2718 15.832 21.9038 15.496C21.5438 15.152 21.3638 14.584 21.3638 13.792V10.552H20.4158V9.388H21.3638V7.744H22.7438V9.388H24.3398V10.552H22.7438V13.816C22.7438 14.192 22.8118 14.452 22.9478 14.596C23.0918 14.74 23.3398 14.812 23.6918 14.812H24.3518ZM34.2613 9.28C35.0453 9.28 35.6693 9.528 36.1333 10.024C36.6053 10.52 36.8413 11.228 36.8413 12.148V16H35.4733V12.292C35.4733 11.716 35.3293 11.272 35.0413 10.96C34.7533 10.64 34.3573 10.48 33.8533 10.48C33.3173 10.48 32.8893 10.652 32.5693 10.996C32.2573 11.332 32.1013 11.828 32.1013 12.484V16H30.7333V12.292C30.7333 11.716 30.5893 11.272 30.3013 10.96C30.0133 10.64 29.6173 10.48 29.1133 10.48C28.5773 10.48 28.1493 10.652 27.8293 10.996C27.5173 11.332 27.3613 11.828 27.3613 12.484V16H25.9933V9.388H27.3613V10.768C27.5293 10.288 27.8093 9.92 28.2013 9.664C28.5933 9.408 29.0533 9.28 29.5813 9.28C30.1333 9.28 30.6093 9.416 31.0093 9.688C31.4173 9.96 31.7133 10.352 31.8973 10.864C32.0893 10.368 32.3973 9.98 32.8213 9.7C33.2453 9.42 33.7253 9.28 34.2613 9.28ZM40.1666 7.12V16H38.7986V7.12H40.1666Z" fill="#6070FF"/>
</svg>
