<svg width="89" height="24" viewBox="0 0 89 24" fill="none" xmlns="http://www.w3.org/2000/svg">
<rect width="89" height="24" rx="8" fill="#EBEBFF"/>
<path d="M13.572 8.248C13.308 8.248 13.092 8.176 12.924 8.032C12.764 7.888 12.684 7.7 12.684 7.468C12.684 7.236 12.764 7.044 12.924 6.892C13.092 6.74 13.308 6.664 13.572 6.664C13.836 6.664 14.048 6.74 14.208 6.892C14.368 7.044 14.448 7.236 14.448 7.468C14.448 7.7 14.368 7.888 14.208 8.032C14.048 8.176 13.836 8.248 13.572 8.248ZM11.652 17.944H12.12C12.384 17.944 12.576 17.884 12.696 17.764C12.824 17.652 12.888 17.456 12.888 17.176V9.388H14.268V17.188C14.268 18.492 13.612 19.144 12.3 19.144H11.652V17.944ZM18.9103 9.304C19.5103 9.304 20.0223 9.452 20.4463 9.748C20.8703 10.044 21.1703 10.436 21.3463 10.924V9.388H22.7143V16H21.3463V14.464C21.1703 14.952 20.8703 15.344 20.4463 15.64C20.0223 15.936 19.5103 16.084 18.9103 16.084C18.3343 16.084 17.8183 15.948 17.3623 15.676C16.9143 15.404 16.5623 15.012 16.3063 14.5C16.0503 13.988 15.9223 13.384 15.9223 12.688C15.9223 12 16.0503 11.4 16.3063 10.888C16.5623 10.376 16.9143 9.984 17.3623 9.712C17.8183 9.44 18.3343 9.304 18.9103 9.304ZM19.3303 10.504C18.7223 10.504 18.2343 10.7 17.8663 11.092C17.5063 11.476 17.3263 12.008 17.3263 12.688C17.3263 13.368 17.5063 13.904 17.8663 14.296C18.2343 14.68 18.7223 14.872 19.3303 14.872C19.7143 14.872 20.0583 14.784 20.3623 14.608C20.6663 14.424 20.9063 14.168 21.0823 13.84C21.2583 13.512 21.3463 13.128 21.3463 12.688C21.3463 12.256 21.2583 11.876 21.0823 11.548C20.9063 11.212 20.6663 10.956 20.3623 10.78C20.0583 10.596 19.7143 10.504 19.3303 10.504ZM27.428 14.584L29.3 9.388H30.764L28.244 16H26.588L24.068 9.388H25.532L27.428 14.584ZM34.7827 9.304C35.3827 9.304 35.8947 9.452 36.3187 9.748C36.7427 10.044 37.0427 10.436 37.2187 10.924V9.388H38.5867V16H37.2187V14.464C37.0427 14.952 36.7427 15.344 36.3187 15.64C35.8947 15.936 35.3827 16.084 34.7827 16.084C34.2067 16.084 33.6907 15.948 33.2347 15.676C32.7867 15.404 32.4347 15.012 32.1787 14.5C31.9227 13.988 31.7947 13.384 31.7947 12.688C31.7947 12 31.9227 11.4 32.1787 10.888C32.4347 10.376 32.7867 9.984 33.2347 9.712C33.6907 9.44 34.2067 9.304 34.7827 9.304ZM35.2027 10.504C34.5947 10.504 34.1067 10.7 33.7387 11.092C33.3787 11.476 33.1987 12.008 33.1987 12.688C33.1987 13.368 33.3787 13.904 33.7387 14.296C34.1067 14.68 34.5947 14.872 35.2027 14.872C35.5867 14.872 35.9307 14.784 36.2347 14.608C36.5387 14.424 36.7787 14.168 36.9547 13.84C37.1307 13.512 37.2187 13.128 37.2187 12.688C37.2187 12.256 37.1307 11.876 36.9547 11.548C36.7787 11.212 36.5387 10.956 36.2347 10.78C35.9307 10.596 35.5867 10.504 35.2027 10.504ZM46.1563 13.744C46.1563 14.16 46.0563 14.548 45.8563 14.908C45.6563 15.26 45.3523 15.544 44.9443 15.76C44.5363 15.976 44.0363 16.084 43.4443 16.084C42.8683 16.084 42.3523 15.984 41.8963 15.784C41.4403 15.576 41.0763 15.288 40.8043 14.92C40.5323 14.552 40.3763 14.128 40.3363 13.648H41.8003C41.8403 14.016 41.9963 14.332 42.2683 14.596C42.5483 14.86 42.9203 14.992 43.3843 14.992C43.8003 14.992 44.1203 14.88 44.3443 14.656C44.5763 14.432 44.6923 14.144 44.6923 13.792C44.6923 13.488 44.6083 13.24 44.4403 13.048C44.2723 12.848 44.0643 12.692 43.8163 12.58C43.5683 12.468 43.2283 12.34 42.7963 12.196C42.2683 12.028 41.8363 11.86 41.5003 11.692C41.1723 11.524 40.8923 11.28 40.6603 10.96C40.4283 10.64 40.3123 10.22 40.3123 9.7C40.3123 9.244 40.4243 8.844 40.6483 8.5C40.8723 8.156 41.1923 7.892 41.6083 7.708C42.0243 7.516 42.5043 7.42 43.0483 7.42C43.9123 7.42 44.5963 7.628 45.1003 8.044C45.6123 8.46 45.9043 9.004 45.9763 9.676H44.5003C44.4443 9.356 44.2923 9.084 44.0443 8.86C43.8043 8.628 43.4723 8.512 43.0483 8.512C42.6643 8.512 42.3563 8.612 42.1243 8.812C41.8923 9.004 41.7763 9.284 41.7763 9.652C41.7763 9.94 41.8563 10.18 42.0163 10.372C42.1763 10.556 42.3763 10.704 42.6163 10.816C42.8643 10.92 43.2003 11.044 43.6243 11.188C44.1603 11.356 44.5963 11.528 44.9323 11.704C45.2763 11.872 45.5643 12.12 45.7963 12.448C46.0363 12.776 46.1563 13.208 46.1563 13.744ZM50.8258 9.304C51.6818 9.304 52.3898 9.532 52.9498 9.988C53.5098 10.436 53.8578 11.048 53.9938 11.824H52.5418C52.4618 11.408 52.2658 11.084 51.9538 10.852C51.6498 10.612 51.2658 10.492 50.8018 10.492C50.2738 10.492 49.8338 10.68 49.4818 11.056C49.1298 11.424 48.9538 11.968 48.9538 12.688C48.9538 13.408 49.1298 13.956 49.4818 14.332C49.8338 14.708 50.2738 14.896 50.8018 14.896C51.2658 14.896 51.6498 14.776 51.9538 14.536C52.2658 14.296 52.4618 13.968 52.5418 13.552H53.9938C53.8578 14.328 53.5098 14.944 52.9498 15.4C52.3898 15.856 51.6818 16.084 50.8258 16.084C50.1858 16.084 49.6178 15.948 49.1218 15.676C48.6338 15.404 48.2498 15.012 47.9698 14.5C47.6898 13.988 47.5498 13.384 47.5498 12.688C47.5498 12 47.6898 11.4 47.9698 10.888C48.2498 10.376 48.6338 9.984 49.1218 9.712C49.6178 9.44 50.1858 9.304 50.8258 9.304ZM57.0435 10.684C57.2675 10.252 57.5875 9.912 58.0035 9.664C58.4195 9.408 58.8995 9.28 59.4435 9.28V10.768H59.0355C58.4355 10.768 57.9515 10.916 57.5835 11.212C57.2235 11.5 57.0435 11.98 57.0435 12.652V16H55.6755V9.388H57.0435V10.684ZM60.6365 7.468C60.6365 7.236 60.7165 7.044 60.8765 6.892C61.0365 6.74 61.2485 6.664 61.5125 6.664C61.7765 6.664 61.9885 6.74 62.1485 6.892C62.3165 7.044 62.4005 7.236 62.4005 7.468C62.4005 7.7 62.3165 7.888 62.1485 8.032C61.9885 8.176 61.7765 8.248 61.5125 8.248C61.2485 8.248 61.0365 8.176 60.8765 8.032C60.7165 7.888 60.6365 7.7 60.6365 7.468ZM62.1965 9.388V16H60.8285V9.388H62.1965ZM68.0039 9.304C68.5799 9.304 69.0919 9.44 69.5399 9.712C69.9959 9.984 70.3519 10.376 70.6079 10.888C70.8639 11.4 70.9919 12 70.9919 12.688C70.9919 13.384 70.8639 13.988 70.6079 14.5C70.3519 15.012 69.9959 15.404 69.5399 15.676C69.0919 15.948 68.5799 16.084 68.0039 16.084C67.4039 16.084 66.8919 15.936 66.4679 15.64C66.0439 15.344 65.7479 14.952 65.5799 14.464V19.144H64.2119V9.388H65.5799V10.924C65.7479 10.436 66.0439 10.044 66.4679 9.748C66.8919 9.452 67.4039 9.304 68.0039 9.304ZM67.5839 10.504C67.1999 10.504 66.8559 10.596 66.5519 10.78C66.2479 10.956 66.0079 11.212 65.8319 11.548C65.6559 11.876 65.5679 12.256 65.5679 12.688C65.5679 13.128 65.6559 13.512 65.8319 13.84C66.0079 14.168 66.2479 14.424 66.5519 14.608C66.8559 14.784 67.1999 14.872 67.5839 14.872C68.1919 14.872 68.6799 14.68 69.0479 14.296C69.4159 13.904 69.5999 13.368 69.5999 12.688C69.5999 12.016 69.4159 11.484 69.0479 11.092C68.6799 10.7 68.1919 10.504 67.5839 10.504ZM75.9936 14.812V16H75.1536C74.4496 16 73.9136 15.832 73.5456 15.496C73.1856 15.152 73.0056 14.584 73.0056 13.792V10.552H72.0576V9.388H73.0056V7.744H74.3856V9.388H75.9816V10.552H74.3856V13.816C74.3856 14.192 74.4536 14.452 74.5896 14.596C74.7336 14.74 74.9816 14.812 75.3336 14.812H75.9936Z" fill="#6070FF"/>
</svg>
