<svg width="259" height="40" viewBox="0 0 259 40" fill="none" xmlns="http://www.w3.org/2000/svg">
<path d="M15.1537 20.89V25H13.4437V14.41H17.0437C18.2637 14.41 19.1787 14.7 19.7887 15.28C20.4087 15.86 20.7187 16.655 20.7187 17.665C20.7187 18.665 20.4037 19.455 19.7737 20.035C19.1437 20.605 18.2337 20.89 17.0437 20.89H15.1537ZM16.8637 19.495C18.2737 19.495 18.9787 18.885 18.9787 17.665C18.9787 17.065 18.8087 16.61 18.4687 16.3C18.1387 15.98 17.6037 15.82 16.8637 15.82H15.1537V19.495H16.8637ZM25.9981 16.63C26.7981 16.63 27.5181 16.8 28.1581 17.14C28.7981 17.48 29.2981 17.97 29.6581 18.61C30.0181 19.25 30.1981 20 30.1981 20.86C30.1981 21.73 30.0181 22.485 29.6581 23.125C29.2981 23.765 28.7981 24.255 28.1581 24.595C27.5181 24.935 26.7981 25.105 25.9981 25.105C25.1981 25.105 24.4781 24.935 23.8381 24.595C23.2081 24.255 22.7081 23.765 22.3381 23.125C21.9781 22.475 21.7981 21.72 21.7981 20.86C21.7981 20 21.9781 19.25 22.3381 18.61C22.7081 17.97 23.2081 17.48 23.8381 17.14C24.4781 16.8 25.1981 16.63 25.9981 16.63ZM25.9981 18.115C25.5581 18.115 25.1531 18.215 24.7831 18.415C24.4131 18.615 24.1131 18.925 23.8831 19.345C23.6631 19.755 23.5531 20.26 23.5531 20.86C23.5531 21.47 23.6631 21.98 23.8831 22.39C24.1131 22.8 24.4131 23.105 24.7831 23.305C25.1531 23.505 25.5581 23.605 25.9981 23.605C26.4381 23.605 26.8431 23.505 27.2131 23.305C27.5831 23.105 27.8781 22.8 28.0981 22.39C28.3281 21.98 28.4431 21.47 28.4431 20.86C28.4431 20.26 28.3281 19.755 28.0981 19.345C27.8781 18.925 27.5831 18.615 27.2131 18.415C26.8431 18.215 26.4381 18.115 25.9981 18.115ZM33.5521 18.355C33.8321 17.815 34.2321 17.39 34.7521 17.08C35.2721 16.76 35.8721 16.6 36.5521 16.6V18.46H36.0421C35.2921 18.46 34.6871 18.645 34.2271 19.015C33.7771 19.375 33.5521 19.975 33.5521 20.815V25H31.8421V16.735H33.5521V18.355ZM41.9883 23.515V25H40.9383C40.0583 25 39.3883 24.79 38.9283 24.37C38.4783 23.94 38.2533 23.23 38.2533 22.24V18.19H37.0683V16.735H38.2533V14.68H39.9783V16.735H41.9733V18.19H39.9783V22.27C39.9783 22.74 40.0633 23.065 40.2333 23.245C40.4133 23.425 40.7233 23.515 41.1633 23.515H41.9883ZM47.3702 16.63C48.1702 16.63 48.8902 16.8 49.5302 17.14C50.1702 17.48 50.6702 17.97 51.0302 18.61C51.3902 19.25 51.5702 20 51.5702 20.86C51.5702 21.73 51.3902 22.485 51.0302 23.125C50.6702 23.765 50.1702 24.255 49.5302 24.595C48.8902 24.935 48.1702 25.105 47.3702 25.105C46.5702 25.105 45.8502 24.935 45.2102 24.595C44.5802 24.255 44.0802 23.765 43.7102 23.125C43.3502 22.475 43.1702 21.72 43.1702 20.86C43.1702 20 43.3502 19.25 43.7102 18.61C44.0802 17.97 44.5802 17.48 45.2102 17.14C45.8502 16.8 46.5702 16.63 47.3702 16.63ZM47.3702 18.115C46.9302 18.115 46.5252 18.215 46.1552 18.415C45.7852 18.615 45.4852 18.925 45.2552 19.345C45.0352 19.755 44.9252 20.26 44.9252 20.86C44.9252 21.47 45.0352 21.98 45.2552 22.39C45.4852 22.8 45.7852 23.105 46.1552 23.305C46.5252 23.505 46.9302 23.605 47.3702 23.605C47.8102 23.605 48.2152 23.505 48.5852 23.305C48.9552 23.105 49.2502 22.8 49.4702 22.39C49.7002 21.98 49.8152 21.47 49.8152 20.86C49.8152 20.26 49.7002 19.755 49.4702 19.345C49.2502 18.925 48.9552 18.615 48.5852 18.415C48.2152 18.215 47.8102 18.115 47.3702 18.115ZM57.0692 15.025C56.3992 14.995 55.9292 15.105 55.6592 15.355C55.3892 15.595 55.2542 16.01 55.2542 16.6V16.735H57.0692V18.205H55.2542V25H53.5292V18.205H52.4042V16.735H53.5292V16.465C53.5292 15.455 53.8242 14.7 54.4142 14.2C55.0042 13.69 55.8892 13.465 57.0692 13.525V15.025ZM60.1537 13.9V25H58.4437V13.9H60.1537ZM61.983 14.335C61.983 14.045 62.083 13.805 62.283 13.615C62.483 13.425 62.748 13.33 63.078 13.33C63.408 13.33 63.673 13.425 63.873 13.615C64.083 13.805 64.188 14.045 64.188 14.335C64.188 14.625 64.083 14.86 63.873 15.04C63.673 15.22 63.408 15.31 63.078 15.31C62.748 15.31 62.483 15.22 62.283 15.04C62.083 14.86 61.983 14.625 61.983 14.335ZM63.933 16.735V25H62.223V16.735H63.933ZM69.7823 16.63C70.5823 16.63 71.3023 16.8 71.9423 17.14C72.5823 17.48 73.0823 17.97 73.4423 18.61C73.8023 19.25 73.9823 20 73.9823 20.86C73.9823 21.73 73.8023 22.485 73.4423 23.125C73.0823 23.765 72.5823 24.255 71.9423 24.595C71.3023 24.935 70.5823 25.105 69.7823 25.105C68.9823 25.105 68.2623 24.935 67.6223 24.595C66.9923 24.255 66.4923 23.765 66.1223 23.125C65.7623 22.475 65.5823 21.72 65.5823 20.86C65.5823 20 65.7623 19.25 66.1223 18.61C66.4923 17.97 66.9923 17.48 67.6223 17.14C68.2623 16.8 68.9823 16.63 69.7823 16.63ZM69.7823 18.115C69.3423 18.115 68.9373 18.215 68.5673 18.415C68.1973 18.615 67.8973 18.925 67.6673 19.345C67.4473 19.755 67.3373 20.26 67.3373 20.86C67.3373 21.47 67.4473 21.98 67.6673 22.39C67.8973 22.8 68.1973 23.105 68.5673 23.305C68.9373 23.505 69.3423 23.605 69.7823 23.605C70.2223 23.605 70.6273 23.505 70.9973 23.305C71.3673 23.105 71.6623 22.8 71.8823 22.39C72.1123 21.98 72.2273 21.47 72.2273 20.86C72.2273 20.26 72.1123 19.755 71.8823 19.345C71.6623 18.925 71.3673 18.615 70.9973 18.415C70.6273 18.215 70.2223 18.115 69.7823 18.115Z" fill="#344563"/>
<path d="M114.652 22.705H110.182L109.372 25H107.542L111.442 14.575H113.407L117.292 25H115.462L114.652 22.705ZM114.172 21.385L112.417 16.435L110.662 21.385H114.172ZM123.302 16.63C124.022 16.63 124.662 16.8 125.222 17.14C125.792 17.48 126.237 17.97 126.557 18.61C126.877 19.25 127.037 20 127.037 20.86C127.037 21.73 126.877 22.485 126.557 23.125C126.237 23.765 125.792 24.255 125.222 24.595C124.662 24.935 124.022 25.105 123.302 25.105C122.552 25.105 121.912 24.92 121.382 24.55C120.852 24.18 120.482 23.69 120.272 23.08V25H118.562V13.9H120.272V18.655C120.482 18.045 120.852 17.555 121.382 17.185C121.912 16.815 122.552 16.63 123.302 16.63ZM122.777 18.13C122.297 18.13 121.867 18.245 121.487 18.475C121.107 18.695 120.807 19.015 120.587 19.435C120.367 19.845 120.257 20.32 120.257 20.86C120.257 21.41 120.367 21.89 120.587 22.3C120.807 22.71 121.107 23.03 121.487 23.26C121.867 23.48 122.297 23.59 122.777 23.59C123.537 23.59 124.147 23.35 124.607 22.87C125.067 22.38 125.297 21.71 125.297 20.86C125.297 20.02 125.067 19.355 124.607 18.865C124.147 18.375 123.537 18.13 122.777 18.13ZM132.464 16.63C133.264 16.63 133.984 16.8 134.624 17.14C135.264 17.48 135.764 17.97 136.124 18.61C136.484 19.25 136.664 20 136.664 20.86C136.664 21.73 136.484 22.485 136.124 23.125C135.764 23.765 135.264 24.255 134.624 24.595C133.984 24.935 133.264 25.105 132.464 25.105C131.664 25.105 130.944 24.935 130.304 24.595C129.674 24.255 129.174 23.765 128.804 23.125C128.444 22.475 128.264 21.72 128.264 20.86C128.264 20 128.444 19.25 128.804 18.61C129.174 17.97 129.674 17.48 130.304 17.14C130.944 16.8 131.664 16.63 132.464 16.63ZM132.464 18.115C132.024 18.115 131.619 18.215 131.249 18.415C130.879 18.615 130.579 18.925 130.349 19.345C130.129 19.755 130.019 20.26 130.019 20.86C130.019 21.47 130.129 21.98 130.349 22.39C130.579 22.8 130.879 23.105 131.249 23.305C131.619 23.505 132.024 23.605 132.464 23.605C132.904 23.605 133.309 23.505 133.679 23.305C134.049 23.105 134.344 22.8 134.564 22.39C134.794 21.98 134.909 21.47 134.909 20.86C134.909 20.26 134.794 19.755 134.564 19.345C134.344 18.925 134.049 18.615 133.679 18.415C133.309 18.215 132.904 18.115 132.464 18.115ZM145.928 16.735V25H144.203V23.2C143.993 23.81 143.628 24.285 143.108 24.625C142.588 24.955 141.983 25.12 141.293 25.12C140.333 25.12 139.563 24.81 138.983 24.19C138.403 23.57 138.113 22.685 138.113 21.535V16.735H139.823V21.355C139.823 22.105 140.013 22.685 140.393 23.095C140.773 23.495 141.293 23.695 141.953 23.695C142.633 23.695 143.178 23.475 143.588 23.035C143.998 22.595 144.203 21.955 144.203 21.115V16.735H145.928ZM152.131 23.515V25H151.081C150.201 25 149.531 24.79 149.071 24.37C148.621 23.94 148.396 23.23 148.396 22.24V18.19H147.211V16.735H148.396V14.68H150.121V16.735H152.116V18.19H150.121V22.27C150.121 22.74 150.206 23.065 150.376 23.245C150.556 23.425 150.866 23.515 151.306 23.515H152.131Z" fill="#344563"/>
<path d="M190.881 14.305C192.181 14.305 193.261 14.635 194.121 15.295C194.981 15.955 195.561 16.85 195.861 17.98H194.046C193.796 17.34 193.396 16.835 192.846 16.465C192.306 16.085 191.641 15.895 190.851 15.895C190.221 15.895 189.656 16.05 189.156 16.36C188.666 16.67 188.276 17.115 187.986 17.695C187.706 18.265 187.566 18.935 187.566 19.705C187.566 20.465 187.706 21.135 187.986 21.715C188.276 22.285 188.666 22.725 189.156 23.035C189.656 23.345 190.221 23.5 190.851 23.5C191.641 23.5 192.306 23.315 192.846 22.945C193.396 22.565 193.796 22.06 194.046 21.43H195.861C195.561 22.56 194.981 23.455 194.121 24.115C193.261 24.765 192.181 25.09 190.881 25.09C189.881 25.09 188.996 24.865 188.226 24.415C187.456 23.955 186.861 23.32 186.441 22.51C186.021 21.69 185.811 20.755 185.811 19.705C185.811 18.655 186.021 17.725 186.441 16.915C186.861 16.095 187.456 15.455 188.226 14.995C188.996 14.535 189.881 14.305 190.881 14.305ZM201.347 16.63C202.147 16.63 202.867 16.8 203.507 17.14C204.147 17.48 204.647 17.97 205.007 18.61C205.367 19.25 205.547 20 205.547 20.86C205.547 21.73 205.367 22.485 205.007 23.125C204.647 23.765 204.147 24.255 203.507 24.595C202.867 24.935 202.147 25.105 201.347 25.105C200.547 25.105 199.827 24.935 199.187 24.595C198.557 24.255 198.057 23.765 197.687 23.125C197.327 22.475 197.147 21.72 197.147 20.86C197.147 20 197.327 19.25 197.687 18.61C198.057 17.97 198.557 17.48 199.187 17.14C199.827 16.8 200.547 16.63 201.347 16.63ZM201.347 18.115C200.907 18.115 200.502 18.215 200.132 18.415C199.762 18.615 199.462 18.925 199.232 19.345C199.012 19.755 198.902 20.26 198.902 20.86C198.902 21.47 199.012 21.98 199.232 22.39C199.462 22.8 199.762 23.105 200.132 23.305C200.502 23.505 200.907 23.605 201.347 23.605C201.787 23.605 202.192 23.505 202.562 23.305C202.932 23.105 203.227 22.8 203.447 22.39C203.677 21.98 203.792 21.47 203.792 20.86C203.792 20.26 203.677 19.755 203.447 19.345C203.227 18.925 202.932 18.615 202.562 18.415C202.192 18.215 201.787 18.115 201.347 18.115ZM211.811 16.6C212.771 16.6 213.541 16.91 214.121 17.53C214.701 18.15 214.991 19.035 214.991 20.185V25H213.281V20.365C213.281 19.625 213.091 19.055 212.711 18.655C212.331 18.245 211.811 18.04 211.151 18.04C210.471 18.04 209.926 18.26 209.516 18.7C209.106 19.13 208.901 19.765 208.901 20.605V25H207.191V16.735H208.901V18.55C209.121 17.93 209.491 17.45 210.011 17.11C210.531 16.77 211.131 16.6 211.811 16.6ZM221.146 23.515V25H220.096C219.216 25 218.546 24.79 218.086 24.37C217.636 23.94 217.411 23.23 217.411 22.24V18.19H216.226V16.735H217.411V14.68H219.136V16.735H221.131V18.19H219.136V22.27C219.136 22.74 219.221 23.065 219.391 23.245C219.571 23.425 219.881 23.515 220.321 23.515H221.146ZM226.063 16.63C226.813 16.63 227.453 16.815 227.983 17.185C228.513 17.555 228.888 18.045 229.108 18.655V16.735H230.818V25H229.108V23.08C228.888 23.69 228.513 24.18 227.983 24.55C227.453 24.92 226.813 25.105 226.063 25.105C225.343 25.105 224.698 24.935 224.128 24.595C223.568 24.255 223.128 23.765 222.808 23.125C222.488 22.485 222.328 21.73 222.328 20.86C222.328 20 222.488 19.25 222.808 18.61C223.128 17.97 223.568 17.48 224.128 17.14C224.698 16.8 225.343 16.63 226.063 16.63ZM226.588 18.13C225.828 18.13 225.218 18.375 224.758 18.865C224.308 19.345 224.083 20.01 224.083 20.86C224.083 21.71 224.308 22.38 224.758 22.87C225.218 23.35 225.828 23.59 226.588 23.59C227.068 23.59 227.498 23.48 227.878 23.26C228.258 23.03 228.558 22.71 228.778 22.3C228.998 21.89 229.108 21.41 229.108 20.86C229.108 20.32 228.998 19.845 228.778 19.435C228.558 19.015 228.258 18.695 227.878 18.475C227.498 18.245 227.068 18.13 226.588 18.13ZM236.545 16.63C237.615 16.63 238.5 16.915 239.2 17.485C239.9 18.045 240.335 18.81 240.505 19.78H238.69C238.59 19.26 238.345 18.855 237.955 18.565C237.575 18.265 237.095 18.115 236.515 18.115C235.855 18.115 235.305 18.35 234.865 18.82C234.425 19.28 234.205 19.96 234.205 20.86C234.205 21.76 234.425 22.445 234.865 22.915C235.305 23.385 235.855 23.62 236.515 23.62C237.095 23.62 237.575 23.47 237.955 23.17C238.345 22.87 238.59 22.46 238.69 21.94H240.505C240.335 22.91 239.9 23.68 239.2 24.25C238.5 24.82 237.615 25.105 236.545 25.105C235.745 25.105 235.035 24.935 234.415 24.595C233.805 24.255 233.325 23.765 232.975 23.125C232.625 22.485 232.45 21.73 232.45 20.86C232.45 20 232.625 19.25 232.975 18.61C233.325 17.97 233.805 17.48 234.415 17.14C235.035 16.8 235.745 16.63 236.545 16.63ZM246.312 23.515V25H245.262C244.382 25 243.712 24.79 243.252 24.37C242.802 23.94 242.577 23.23 242.577 22.24V18.19H241.392V16.735H242.577V14.68H244.302V16.735H246.297V18.19H244.302V22.27C244.302 22.74 244.387 23.065 244.557 23.245C244.737 23.425 245.047 23.515 245.487 23.515H246.312Z" fill="#344563"/>
</svg>
