<svg width="241" height="30" viewBox="0 0 241 30" fill="none" xmlns="http://www.w3.org/2000/svg">
<path d="M0.706719 14.92C0.706719 12.1467 1.30672 9.68 2.50672 7.52C3.70672 5.33333 5.37339 3.64 7.50672 2.44C9.66672 1.21333 12.1067 0.599998 14.8267 0.599998C18.1601 0.599998 21.0134 1.48 23.3867 3.24C25.7601 5 27.3467 7.4 28.1467 10.44H20.6267C20.0667 9.26667 19.2667 8.37333 18.2267 7.76C17.2134 7.14667 16.0534 6.84 14.7467 6.84C12.6401 6.84 10.9334 7.57333 9.62672 9.04C8.32005 10.5067 7.66672 12.4667 7.66672 14.92C7.66672 17.3733 8.32005 19.3333 9.62672 20.8C10.9334 22.2667 12.6401 23 14.7467 23C16.0534 23 17.2134 22.6933 18.2267 22.08C19.2667 21.4667 20.0667 20.5733 20.6267 19.4H28.1467C27.3467 22.44 25.7601 24.84 23.3867 26.6C21.0134 28.3333 18.1601 29.2 14.8267 29.2C12.1067 29.2 9.66672 28.6 7.50672 27.4C5.37339 26.1733 3.70672 24.48 2.50672 22.32C1.30672 20.16 0.706719 17.6933 0.706719 14.92ZM42.4955 29.32C40.3088 29.32 38.3355 28.8533 36.5755 27.92C34.8421 26.9867 33.4688 25.6533 32.4555 23.92C31.4688 22.1867 30.9755 20.16 30.9755 17.84C30.9755 15.5467 31.4821 13.5333 32.4955 11.8C33.5088 10.04 34.8955 8.69333 36.6555 7.76C38.4155 6.82667 40.3888 6.36 42.5755 6.36C44.7621 6.36 46.7355 6.82667 48.4955 7.76C50.2555 8.69333 51.6421 10.04 52.6555 11.8C53.6688 13.5333 54.1755 15.5467 54.1755 17.84C54.1755 20.1333 53.6555 22.16 52.6155 23.92C51.6021 25.6533 50.2021 26.9867 48.4155 27.92C46.6555 28.8533 44.6821 29.32 42.4955 29.32ZM42.4955 23.4C43.8021 23.4 44.9088 22.92 45.8155 21.96C46.7488 21 47.2155 19.6267 47.2155 17.84C47.2155 16.0533 46.7621 14.68 45.8555 13.72C44.9755 12.76 43.8821 12.28 42.5755 12.28C41.2421 12.28 40.1355 12.76 39.2555 13.72C38.3755 14.6533 37.9355 16.0267 37.9355 17.84C37.9355 19.6267 38.3621 21 39.2155 21.96C40.0955 22.92 41.1888 23.4 42.4955 23.4ZM71.4042 6.44C74.0176 6.44 76.0976 7.29333 77.6442 9C79.2176 10.68 80.0042 13 80.0042 15.96V29H73.2042V16.88C73.2042 15.3867 72.8176 14.2267 72.0442 13.4C71.2709 12.5733 70.2309 12.16 68.9242 12.16C67.6176 12.16 66.5776 12.5733 65.8042 13.4C65.0309 14.2267 64.6442 15.3867 64.6442 16.88V29H57.8042V6.68H64.6442V9.64C65.3376 8.65333 66.2709 7.88 67.4442 7.32C68.6176 6.73333 69.9376 6.44 71.4042 6.44ZM97.1973 23.2V29H93.7173C91.2373 29 89.304 28.4 87.9173 27.2C86.5307 25.9733 85.8373 23.9867 85.8373 21.24V12.36H83.1173V6.68H85.8373V1.24H92.6773V6.68H97.1573V12.36H92.6773V21.32C92.6773 21.9867 92.8373 22.4667 93.1573 22.76C93.4773 23.0533 94.0107 23.2 94.7573 23.2H97.1973ZM99.6473 17.8C99.6473 15.5067 100.074 13.4933 100.927 11.76C101.807 10.0267 102.994 8.69333 104.487 7.76C105.981 6.82667 107.647 6.36 109.487 6.36C111.061 6.36 112.434 6.68 113.607 7.32C114.807 7.96 115.727 8.8 116.367 9.84V6.68H123.207V29H116.367V25.84C115.701 26.88 114.767 27.72 113.567 28.36C112.394 29 111.021 29.32 109.447 29.32C107.634 29.32 105.981 28.8533 104.487 27.92C102.994 26.96 101.807 25.6133 100.927 23.88C100.074 22.12 99.6473 20.0933 99.6473 17.8ZM116.367 17.84C116.367 16.1333 115.887 14.7867 114.927 13.8C113.994 12.8133 112.847 12.32 111.487 12.32C110.127 12.32 108.967 12.8133 108.007 13.8C107.074 14.76 106.607 16.0933 106.607 17.8C106.607 19.5067 107.074 20.8667 108.007 21.88C108.967 22.8667 110.127 23.36 111.487 23.36C112.847 23.36 113.994 22.8667 114.927 21.88C115.887 20.8933 116.367 19.5467 116.367 17.84ZM126.796 17.84C126.796 15.52 127.262 13.4933 128.196 11.76C129.156 10.0267 130.476 8.69333 132.156 7.76C133.862 6.82667 135.809 6.36 137.996 6.36C140.796 6.36 143.129 7.09333 144.996 8.56C146.889 10.0267 148.129 12.0933 148.716 14.76H141.436C140.822 13.0533 139.636 12.2 137.876 12.2C136.622 12.2 135.622 12.6933 134.876 13.68C134.129 14.64 133.756 16.0267 133.756 17.84C133.756 19.6533 134.129 21.0533 134.876 22.04C135.622 23 136.622 23.48 137.876 23.48C139.636 23.48 140.822 22.6267 141.436 20.92H148.716C148.129 23.5333 146.889 25.5867 144.996 27.08C143.102 28.5733 140.769 29.32 137.996 29.32C135.809 29.32 133.862 28.8533 132.156 27.92C130.476 26.9867 129.156 25.6533 128.196 23.92C127.262 22.1867 126.796 20.16 126.796 17.84ZM164.815 23.2V29H161.335C158.855 29 156.921 28.4 155.535 27.2C154.148 25.9733 153.455 23.9867 153.455 21.24V12.36H150.735V6.68H153.455V1.24H160.295V6.68H164.775V12.36H160.295V21.32C160.295 21.9867 160.455 22.4667 160.775 22.76C161.095 23.0533 161.628 23.2 162.375 23.2H164.815ZM205.581 6.44C208.354 6.44 210.554 7.28 212.181 8.96C213.834 10.64 214.661 12.9733 214.661 15.96V29H207.861V16.88C207.861 15.44 207.474 14.3333 206.701 13.56C205.954 12.76 204.914 12.36 203.581 12.36C202.248 12.36 201.194 12.76 200.421 13.56C199.674 14.3333 199.301 15.44 199.301 16.88V29H192.501V16.88C192.501 15.44 192.114 14.3333 191.341 13.56C190.594 12.76 189.554 12.36 188.221 12.36C186.888 12.36 185.834 12.76 185.061 13.56C184.314 14.3333 183.941 15.44 183.941 16.88V29H177.101V6.68H183.941V9.48C184.634 8.54667 185.541 7.81333 186.661 7.28C187.781 6.72 189.048 6.44 190.461 6.44C192.141 6.44 193.634 6.8 194.941 7.52C196.274 8.24 197.314 9.26667 198.061 10.6C198.834 9.37333 199.888 8.37333 201.221 7.6C202.554 6.82667 204.008 6.44 205.581 6.44ZM240.485 17.48C240.485 18.12 240.445 18.7867 240.365 19.48H224.885C224.992 20.8667 225.432 21.9333 226.205 22.68C227.005 23.4 227.978 23.76 229.125 23.76C230.832 23.76 232.018 23.04 232.685 21.6H239.965C239.592 23.0667 238.912 24.3867 237.925 25.56C236.965 26.7333 235.752 27.6533 234.285 28.32C232.818 28.9867 231.178 29.32 229.365 29.32C227.178 29.32 225.232 28.8533 223.525 27.92C221.818 26.9867 220.485 25.6533 219.525 23.92C218.565 22.1867 218.085 20.16 218.085 17.84C218.085 15.52 218.552 13.4933 219.485 11.76C220.445 10.0267 221.778 8.69333 223.485 7.76C225.192 6.82667 227.152 6.36 229.365 6.36C231.525 6.36 233.445 6.81333 235.125 7.72C236.805 8.62667 238.112 9.92 239.045 11.6C240.005 13.28 240.485 15.24 240.485 17.48ZM233.485 15.68C233.485 14.5067 233.085 13.5733 232.285 12.88C231.485 12.1867 230.485 11.84 229.285 11.84C228.138 11.84 227.165 12.1733 226.365 12.84C225.592 13.5067 225.112 14.4533 224.925 15.68H233.485Z" fill="white"/>
</svg>
