<svg width="310" height="134" viewBox="0 0 310 134" fill="none" xmlns="http://www.w3.org/2000/svg">
<path d="M7.88344 2.06V16H6.06344V2.06H7.88344ZM15.4453 6.54H13.1453V16H11.3253V6.54H9.90531V5.04H11.3253V4.26C11.3253 3.03333 11.6386 2.14 12.2653 1.58C12.9053 1.00667 13.9253 0.719999 15.3253 0.719999V2.24C14.5253 2.24 13.9586 2.4 13.6253 2.72C13.3053 3.02667 13.1453 3.54 13.1453 4.26V5.04H15.4453V6.54ZM32.3394 5.04L25.7394 21.16H23.8594L26.0194 15.88L21.5994 5.04H23.6194L27.0594 13.92L30.4594 5.04H32.3394ZM38.9489 16.18C37.9222 16.18 36.9889 15.9467 36.1489 15.48C35.3222 15.0133 34.6689 14.3533 34.1889 13.5C33.7222 12.6333 33.4889 11.6333 33.4889 10.5C33.4889 9.38 33.7289 8.39333 34.2089 7.54C34.7022 6.67333 35.3689 6.01333 36.2089 5.56C37.0489 5.09333 37.9889 4.86 39.0289 4.86C40.0689 4.86 41.0089 5.09333 41.8489 5.56C42.6889 6.01333 43.3489 6.66667 43.8289 7.52C44.3222 8.37333 44.5689 9.36667 44.5689 10.5C44.5689 11.6333 44.3156 12.6333 43.8089 13.5C43.3156 14.3533 42.6422 15.0133 41.7889 15.48C40.9356 15.9467 39.9889 16.18 38.9489 16.18ZM38.9489 14.58C39.6022 14.58 40.2156 14.4267 40.7889 14.12C41.3622 13.8133 41.8222 13.3533 42.1689 12.74C42.5289 12.1267 42.7089 11.38 42.7089 10.5C42.7089 9.62 42.5356 8.87333 42.1889 8.26C41.8422 7.64667 41.3889 7.19333 40.8289 6.9C40.2689 6.59333 39.6622 6.44 39.0089 6.44C38.3422 6.44 37.7289 6.59333 37.1689 6.9C36.6222 7.19333 36.1822 7.64667 35.8489 8.26C35.5156 8.87333 35.3489 9.62 35.3489 10.5C35.3489 11.3933 35.5089 12.1467 35.8289 12.76C36.1622 13.3733 36.6022 13.8333 37.1489 14.14C37.6956 14.4333 38.2956 14.58 38.9489 14.58ZM56.6819 5.04V16H54.8619V14.38C54.5152 14.94 54.0285 15.38 53.4019 15.7C52.7885 16.0067 52.1085 16.16 51.3619 16.16C50.5085 16.16 49.7419 15.9867 49.0619 15.64C48.3819 15.28 47.8419 14.7467 47.4419 14.04C47.0552 13.3333 46.8619 12.4733 46.8619 11.46V5.04H48.6619V11.22C48.6619 12.3 48.9352 13.1333 49.4819 13.72C50.0285 14.2933 50.7752 14.58 51.7219 14.58C52.6952 14.58 53.4619 14.28 54.0219 13.68C54.5819 13.08 54.8619 12.2067 54.8619 11.06V5.04H56.6819ZM70.5269 4.84C71.3535 4.84 72.1002 5.02 72.7669 5.38C73.4335 5.72667 73.9535 6.25333 74.3269 6.96C74.7135 7.66667 74.9069 8.52667 74.9069 9.54V16H73.1069V9.8C73.1069 8.70667 72.8335 7.87333 72.2869 7.3C71.7402 6.71333 70.9935 6.42 70.0469 6.42C69.0869 6.42 68.3202 6.72 67.7469 7.32C67.1869 7.92 66.9069 8.79333 66.9069 9.94V16H65.0869V1.2H66.9069V6.6C67.2669 6.04 67.7602 5.60667 68.3869 5.3C69.0269 4.99333 69.7402 4.84 70.5269 4.84ZM77.1998 10.48C77.1998 9.36 77.4265 8.38 77.8798 7.54C78.3332 6.68667 78.9532 6.02667 79.7398 5.56C80.5398 5.09333 81.4265 4.86 82.3998 4.86C83.3598 4.86 84.1932 5.06667 84.8998 5.48C85.6065 5.89333 86.1332 6.41333 86.4798 7.04V5.04H88.3198V16H86.4798V13.96C86.1198 14.6 85.5798 15.1333 84.8598 15.56C84.1532 15.9733 83.3265 16.18 82.3798 16.18C81.4065 16.18 80.5265 15.94 79.7398 15.46C78.9532 14.98 78.3332 14.3067 77.8798 13.44C77.4265 12.5733 77.1998 11.5867 77.1998 10.48ZM86.4798 10.5C86.4798 9.67333 86.3132 8.95333 85.9798 8.34C85.6465 7.72667 85.1932 7.26 84.6198 6.94C84.0598 6.60667 83.4398 6.44 82.7598 6.44C82.0798 6.44 81.4598 6.6 80.8998 6.92C80.3398 7.24 79.8932 7.70667 79.5598 8.32C79.2265 8.93333 79.0598 9.65333 79.0598 10.48C79.0598 11.32 79.2265 12.0533 79.5598 12.68C79.8932 13.2933 80.3398 13.7667 80.8998 14.1C81.4598 14.42 82.0798 14.58 82.7598 14.58C83.4398 14.58 84.0598 14.42 84.6198 14.1C85.1932 13.7667 85.6465 13.2933 85.9798 12.68C86.3132 12.0533 86.4798 11.3267 86.4798 10.5ZM95.4755 14.32L98.8755 5.04H100.815L96.5155 16H94.3955L90.0955 5.04H92.0555L95.4755 14.32ZM112.606 10.1C112.606 10.4467 112.586 10.8133 112.546 11.2H103.786C103.853 12.28 104.22 13.1267 104.886 13.74C105.566 14.34 106.386 14.64 107.346 14.64C108.133 14.64 108.786 14.46 109.306 14.1C109.84 13.7267 110.213 13.2333 110.426 12.62H112.386C112.093 13.6733 111.506 14.5333 110.626 15.2C109.746 15.8533 108.653 16.18 107.346 16.18C106.306 16.18 105.373 15.9467 104.546 15.48C103.733 15.0133 103.093 14.3533 102.626 13.5C102.16 12.6333 101.926 11.6333 101.926 10.5C101.926 9.36667 102.153 8.37333 102.606 7.52C103.06 6.66667 103.693 6.01333 104.506 5.56C105.333 5.09333 106.28 4.86 107.346 4.86C108.386 4.86 109.306 5.08667 110.106 5.54C110.906 5.99333 111.52 6.62 111.946 7.42C112.386 8.20667 112.606 9.1 112.606 10.1ZM110.726 9.72C110.726 9.02667 110.573 8.43333 110.266 7.94C109.96 7.43333 109.54 7.05333 109.006 6.8C108.486 6.53333 107.906 6.4 107.266 6.4C106.346 6.4 105.56 6.69333 104.906 7.28C104.266 7.86667 103.9 8.68 103.806 9.72H110.726ZM119.661 10.48C119.661 9.36 119.887 8.38 120.341 7.54C120.794 6.68667 121.414 6.02667 122.201 5.56C123.001 5.09333 123.887 4.86 124.861 4.86C125.821 4.86 126.654 5.06667 127.361 5.48C128.067 5.89333 128.594 6.41333 128.941 7.04V5.04H130.781V16H128.941V13.96C128.581 14.6 128.041 15.1333 127.321 15.56C126.614 15.9733 125.787 16.18 124.841 16.18C123.867 16.18 122.987 15.94 122.201 15.46C121.414 14.98 120.794 14.3067 120.341 13.44C119.887 12.5733 119.661 11.5867 119.661 10.48ZM128.941 10.5C128.941 9.67333 128.774 8.95333 128.441 8.34C128.107 7.72667 127.654 7.26 127.081 6.94C126.521 6.60667 125.901 6.44 125.221 6.44C124.541 6.44 123.921 6.6 123.361 6.92C122.801 7.24 122.354 7.70667 122.021 8.32C121.687 8.93333 121.521 9.65333 121.521 10.48C121.521 11.32 121.687 12.0533 122.021 12.68C122.354 13.2933 122.801 13.7667 123.361 14.1C123.921 14.42 124.541 14.58 125.221 14.58C125.901 14.58 126.521 14.42 127.081 14.1C127.654 13.7667 128.107 13.2933 128.441 12.68C128.774 12.0533 128.941 11.3267 128.941 10.5ZM139.196 4.84C140.53 4.84 141.61 5.24667 142.436 6.06C143.263 6.86 143.676 8.02 143.676 9.54V16H141.876V9.8C141.876 8.70667 141.603 7.87333 141.056 7.3C140.51 6.71333 139.763 6.42 138.816 6.42C137.856 6.42 137.09 6.72 136.516 7.32C135.956 7.92 135.676 8.79333 135.676 9.94V16H133.856V5.04H135.676V6.6C136.036 6.04 136.523 5.60667 137.136 5.3C137.763 4.99333 138.45 4.84 139.196 4.84ZM151.301 10.48C151.301 9.36 151.528 8.38 151.981 7.54C152.435 6.68667 153.055 6.02667 153.841 5.56C154.641 5.09333 155.528 4.86 156.501 4.86C157.461 4.86 158.295 5.06667 159.001 5.48C159.708 5.89333 160.235 6.41333 160.581 7.04V5.04H162.421V16H160.581V13.96C160.221 14.6 159.681 15.1333 158.961 15.56C158.255 15.9733 157.428 16.18 156.481 16.18C155.508 16.18 154.628 15.94 153.841 15.46C153.055 14.98 152.435 14.3067 151.981 13.44C151.528 12.5733 151.301 11.5867 151.301 10.48ZM160.581 10.5C160.581 9.67333 160.415 8.95333 160.081 8.34C159.748 7.72667 159.295 7.26 158.721 6.94C158.161 6.60667 157.541 6.44 156.861 6.44C156.181 6.44 155.561 6.6 155.001 6.92C154.441 7.24 153.995 7.70667 153.661 8.32C153.328 8.93333 153.161 9.65333 153.161 10.48C153.161 11.32 153.328 12.0533 153.661 12.68C153.995 13.2933 154.441 13.7667 155.001 14.1C155.561 14.42 156.181 14.58 156.861 14.58C157.541 14.58 158.161 14.42 158.721 14.1C159.295 13.7667 159.748 13.2933 160.081 12.68C160.415 12.0533 160.581 11.3267 160.581 10.5ZM167.317 7.06C167.677 6.43333 168.21 5.91333 168.917 5.5C169.637 5.07333 170.47 4.86 171.417 4.86C172.39 4.86 173.27 5.09333 174.057 5.56C174.857 6.02667 175.484 6.68667 175.937 7.54C176.39 8.38 176.617 9.36 176.617 10.48C176.617 11.5867 176.39 12.5733 175.937 13.44C175.484 14.3067 174.857 14.98 174.057 15.46C173.27 15.94 172.39 16.18 171.417 16.18C170.484 16.18 169.657 15.9733 168.937 15.56C168.23 15.1333 167.69 14.6067 167.317 13.98V21.2H165.497V5.04H167.317V7.06ZM174.757 10.48C174.757 9.65333 174.59 8.93333 174.257 8.32C173.924 7.70667 173.47 7.24 172.897 6.92C172.337 6.6 171.717 6.44 171.037 6.44C170.37 6.44 169.75 6.60667 169.177 6.94C168.617 7.26 168.164 7.73333 167.817 8.36C167.484 8.97333 167.317 9.68667 167.317 10.5C167.317 11.3267 167.484 12.0533 167.817 12.68C168.164 13.2933 168.617 13.7667 169.177 14.1C169.75 14.42 170.37 14.58 171.037 14.58C171.717 14.58 172.337 14.42 172.897 14.1C173.47 13.7667 173.924 13.2933 174.257 12.68C174.59 12.0533 174.757 11.32 174.757 10.48ZM180.833 7.06C181.193 6.43333 181.726 5.91333 182.433 5.5C183.153 5.07333 183.986 4.86 184.933 4.86C185.906 4.86 186.786 5.09333 187.573 5.56C188.373 6.02667 188.999 6.68667 189.453 7.54C189.906 8.38 190.133 9.36 190.133 10.48C190.133 11.5867 189.906 12.5733 189.453 13.44C188.999 14.3067 188.373 14.98 187.573 15.46C186.786 15.94 185.906 16.18 184.933 16.18C183.999 16.18 183.173 15.9733 182.453 15.56C181.746 15.1333 181.206 14.6067 180.833 13.98V21.2H179.013V5.04H180.833V7.06ZM188.273 10.48C188.273 9.65333 188.106 8.93333 187.773 8.32C187.439 7.70667 186.986 7.24 186.413 6.92C185.853 6.6 185.233 6.44 184.553 6.44C183.886 6.44 183.266 6.60667 182.693 6.94C182.133 7.26 181.679 7.73333 181.333 8.36C180.999 8.97333 180.833 9.68667 180.833 10.5C180.833 11.3267 180.999 12.0533 181.333 12.68C181.679 13.2933 182.133 13.7667 182.693 14.1C183.266 14.42 183.886 14.58 184.553 14.58C185.233 14.58 185.853 14.42 186.413 14.1C186.986 13.7667 187.439 13.2933 187.773 12.68C188.106 12.0533 188.273 11.32 188.273 10.48ZM194.348 1.2V16H192.528V1.2H194.348ZM198.39 3.26C198.043 3.26 197.75 3.14 197.51 2.9C197.27 2.66 197.15 2.36667 197.15 2.02C197.15 1.67333 197.27 1.38 197.51 1.14C197.75 0.899999 198.043 0.779999 198.39 0.779999C198.723 0.779999 199.003 0.899999 199.23 1.14C199.47 1.38 199.59 1.67333 199.59 2.02C199.59 2.36667 199.47 2.66 199.23 2.9C199.003 3.14 198.723 3.26 198.39 3.26ZM199.27 5.04V16H197.45V5.04H199.27ZM201.692 10.5C201.692 9.36667 201.919 8.38 202.372 7.54C202.825 6.68667 203.452 6.02667 204.252 5.56C205.065 5.09333 205.992 4.86 207.032 4.86C208.379 4.86 209.485 5.18667 210.352 5.84C211.232 6.49333 211.812 7.4 212.092 8.56H210.132C209.945 7.89333 209.579 7.36667 209.032 6.98C208.499 6.59333 207.832 6.4 207.032 6.4C205.992 6.4 205.152 6.76 204.512 7.48C203.872 8.18667 203.552 9.19333 203.552 10.5C203.552 11.82 203.872 12.84 204.512 13.56C205.152 14.28 205.992 14.64 207.032 14.64C207.832 14.64 208.499 14.4533 209.032 14.08C209.565 13.7067 209.932 13.1733 210.132 12.48H212.092C211.799 13.6 211.212 14.5 210.332 15.18C209.452 15.8467 208.352 16.18 207.032 16.18C205.992 16.18 205.065 15.9467 204.252 15.48C203.452 15.0133 202.825 14.3533 202.372 13.5C201.919 12.6467 201.692 11.6467 201.692 10.5ZM213.84 10.48C213.84 9.36 214.067 8.38 214.52 7.54C214.974 6.68667 215.594 6.02667 216.38 5.56C217.18 5.09333 218.067 4.86 219.04 4.86C220 4.86 220.834 5.06667 221.54 5.48C222.247 5.89333 222.774 6.41333 223.12 7.04V5.04H224.96V16H223.12V13.96C222.76 14.6 222.22 15.1333 221.5 15.56C220.794 15.9733 219.967 16.18 219.02 16.18C218.047 16.18 217.167 15.94 216.38 15.46C215.594 14.98 214.974 14.3067 214.52 13.44C214.067 12.5733 213.84 11.5867 213.84 10.48ZM223.12 10.5C223.12 9.67333 222.954 8.95333 222.62 8.34C222.287 7.72667 221.834 7.26 221.26 6.94C220.7 6.60667 220.08 6.44 219.4 6.44C218.72 6.44 218.1 6.6 217.54 6.92C216.98 7.24 216.534 7.70667 216.2 8.32C215.867 8.93333 215.7 9.65333 215.7 10.48C215.7 11.32 215.867 12.0533 216.2 12.68C216.534 13.2933 216.98 13.7667 217.54 14.1C218.1 14.42 218.72 14.58 219.4 14.58C220.08 14.58 220.7 14.42 221.26 14.1C221.834 13.7667 222.287 13.2933 222.62 12.68C222.954 12.0533 223.12 11.3267 223.12 10.5ZM230.256 6.54V13C230.256 13.5333 230.369 13.9133 230.596 14.14C230.823 14.3533 231.216 14.46 231.776 14.46H233.116V16H231.476C230.463 16 229.703 15.7667 229.196 15.3C228.689 14.8333 228.436 14.0667 228.436 13V6.54H227.016V5.04H228.436V2.28H230.256V5.04H233.116V6.54H230.256ZM236.261 3.26C235.915 3.26 235.621 3.14 235.381 2.9C235.141 2.66 235.021 2.36667 235.021 2.02C235.021 1.67333 235.141 1.38 235.381 1.14C235.621 0.899999 235.915 0.779999 236.261 0.779999C236.595 0.779999 236.875 0.899999 237.101 1.14C237.341 1.38 237.461 1.67333 237.461 2.02C237.461 2.36667 237.341 2.66 237.101 2.9C236.875 3.14 236.595 3.26 236.261 3.26ZM237.141 5.04V16H235.321V5.04H237.141ZM245.023 16.18C243.996 16.18 243.063 15.9467 242.223 15.48C241.396 15.0133 240.743 14.3533 240.263 13.5C239.796 12.6333 239.563 11.6333 239.563 10.5C239.563 9.38 239.803 8.39333 240.283 7.54C240.776 6.67333 241.443 6.01333 242.283 5.56C243.123 5.09333 244.063 4.86 245.103 4.86C246.143 4.86 247.083 5.09333 247.923 5.56C248.763 6.01333 249.423 6.66667 249.903 7.52C250.396 8.37333 250.643 9.36667 250.643 10.5C250.643 11.6333 250.39 12.6333 249.883 13.5C249.39 14.3533 248.716 15.0133 247.863 15.48C247.01 15.9467 246.063 16.18 245.023 16.18ZM245.023 14.58C245.676 14.58 246.29 14.4267 246.863 14.12C247.436 13.8133 247.896 13.3533 248.243 12.74C248.603 12.1267 248.783 11.38 248.783 10.5C248.783 9.62 248.61 8.87333 248.263 8.26C247.916 7.64667 247.463 7.19333 246.903 6.9C246.343 6.59333 245.736 6.44 245.083 6.44C244.416 6.44 243.803 6.59333 243.243 6.9C242.696 7.19333 242.256 7.64667 241.923 8.26C241.59 8.87333 241.423 9.62 241.423 10.5C241.423 11.3933 241.583 12.1467 241.903 12.76C242.236 13.3733 242.676 13.8333 243.223 14.14C243.77 14.4333 244.37 14.58 245.023 14.58ZM258.376 4.84C259.709 4.84 260.789 5.24667 261.616 6.06C262.443 6.86 262.856 8.02 262.856 9.54V16H261.056V9.8C261.056 8.70667 260.783 7.87333 260.236 7.3C259.689 6.71333 258.943 6.42 257.996 6.42C257.036 6.42 256.269 6.72 255.696 7.32C255.136 7.92 254.856 8.79333 254.856 9.94V16H253.036V5.04H254.856V6.6C255.216 6.04 255.703 5.60667 256.316 5.3C256.943 4.99333 257.629 4.84 258.376 4.84ZM280.601 5.04L274.001 21.16H272.121L274.281 15.88L269.861 5.04H271.881L275.321 13.92L278.721 5.04H280.601ZM287.211 16.18C286.184 16.18 285.251 15.9467 284.411 15.48C283.584 15.0133 282.931 14.3533 282.451 13.5C281.984 12.6333 281.751 11.6333 281.751 10.5C281.751 9.38 281.991 8.39333 282.471 7.54C282.964 6.67333 283.631 6.01333 284.471 5.56C285.311 5.09333 286.251 4.86 287.291 4.86C288.331 4.86 289.271 5.09333 290.111 5.56C290.951 6.01333 291.611 6.66667 292.091 7.52C292.584 8.37333 292.831 9.36667 292.831 10.5C292.831 11.6333 292.577 12.6333 292.071 13.5C291.577 14.3533 290.904 15.0133 290.051 15.48C289.197 15.9467 288.251 16.18 287.211 16.18ZM287.211 14.58C287.864 14.58 288.477 14.4267 289.051 14.12C289.624 13.8133 290.084 13.3533 290.431 12.74C290.791 12.1267 290.971 11.38 290.971 10.5C290.971 9.62 290.797 8.87333 290.451 8.26C290.104 7.64667 289.651 7.19333 289.091 6.9C288.531 6.59333 287.924 6.44 287.271 6.44C286.604 6.44 285.991 6.59333 285.431 6.9C284.884 7.19333 284.444 7.64667 284.111 8.26C283.777 8.87333 283.611 9.62 283.611 10.5C283.611 11.3933 283.771 12.1467 284.091 12.76C284.424 13.3733 284.864 13.8333 285.411 14.14C285.957 14.4333 286.557 14.58 287.211 14.58ZM304.944 5.04V16H303.124V14.38C302.777 14.94 302.29 15.38 301.664 15.7C301.05 16.0067 300.37 16.16 299.624 16.16C298.77 16.16 298.004 15.9867 297.324 15.64C296.644 15.28 296.104 14.7467 295.704 14.04C295.317 13.3333 295.124 12.4733 295.124 11.46V5.04H296.924V11.22C296.924 12.3 297.197 13.1333 297.744 13.72C298.29 14.2933 299.037 14.58 299.984 14.58C300.957 14.58 301.724 14.28 302.284 13.68C302.844 13.08 303.124 12.2067 303.124 11.06V5.04H304.944ZM4.95375 38.48C4.95375 37.36 5.18042 36.38 5.63375 35.54C6.08708 34.6867 6.70708 34.0267 7.49375 33.56C8.29375 33.0933 9.18042 32.86 10.1538 32.86C11.1138 32.86 11.9471 33.0667 12.6538 33.48C13.3604 33.8933 13.8871 34.4133 14.2338 35.04V33.04H16.0738V44H14.2338V41.96C13.8738 42.6 13.3338 43.1333 12.6138 43.56C11.9071 43.9733 11.0804 44.18 10.1338 44.18C9.16042 44.18 8.28042 43.94 7.49375 43.46C6.70708 42.98 6.08708 42.3067 5.63375 41.44C5.18042 40.5733 4.95375 39.5867 4.95375 38.48ZM14.2338 38.5C14.2338 37.6733 14.0671 36.9533 13.7338 36.34C13.4004 35.7267 12.9471 35.26 12.3738 34.94C11.8138 34.6067 11.1938 34.44 10.5138 34.44C9.83375 34.44 9.21375 34.6 8.65375 34.92C8.09375 35.24 7.64708 35.7067 7.31375 36.32C6.98042 36.9333 6.81375 37.6533 6.81375 38.48C6.81375 39.32 6.98042 40.0533 7.31375 40.68C7.64708 41.2933 8.09375 41.7667 8.65375 42.1C9.21375 42.42 9.83375 42.58 10.5138 42.58C11.1938 42.58 11.8138 42.42 12.3738 42.1C12.9471 41.7667 13.4004 41.2933 13.7338 40.68C14.0671 40.0533 14.2338 39.3267 14.2338 38.5ZM20.9694 34.82C21.2894 34.1933 21.7427 33.7067 22.3294 33.36C22.9294 33.0133 23.656 32.84 24.5094 32.84V34.72H24.0294C21.9894 34.72 20.9694 35.8267 20.9694 38.04V44H19.1494V33.04H20.9694V34.82ZM36.6103 38.1C36.6103 38.4467 36.5903 38.8133 36.5503 39.2H27.7903C27.857 40.28 28.2236 41.1267 28.8903 41.74C29.5703 42.34 30.3903 42.64 31.3503 42.64C32.137 42.64 32.7903 42.46 33.3103 42.1C33.8436 41.7267 34.217 41.2333 34.4303 40.62H36.3903C36.097 41.6733 35.5103 42.5333 34.6303 43.2C33.7503 43.8533 32.657 44.18 31.3503 44.18C30.3103 44.18 29.377 43.9467 28.5503 43.48C27.737 43.0133 27.097 42.3533 26.6303 41.5C26.1636 40.6333 25.9303 39.6333 25.9303 38.5C25.9303 37.3667 26.157 36.3733 26.6103 35.52C27.0636 34.6667 27.697 34.0133 28.5103 33.56C29.337 33.0933 30.2836 32.86 31.3503 32.86C32.3903 32.86 33.3103 33.0867 34.1103 33.54C34.9103 33.9933 35.5236 34.62 35.9503 35.42C36.3903 36.2067 36.6103 37.1 36.6103 38.1ZM34.7303 37.72C34.7303 37.0267 34.577 36.4333 34.2703 35.94C33.9636 35.4333 33.5436 35.0533 33.0103 34.8C32.4903 34.5333 31.9103 34.4 31.2703 34.4C30.3503 34.4 29.5636 34.6933 28.9103 35.28C28.2703 35.8667 27.9036 36.68 27.8103 37.72H34.7303ZM45.2847 31.26C44.938 31.26 44.6447 31.14 44.4047 30.9C44.1647 30.66 44.0447 30.3667 44.0447 30.02C44.0447 29.6733 44.1647 29.38 44.4047 29.14C44.6447 28.9 44.938 28.78 45.2847 28.78C45.618 28.78 45.898 28.9 46.1247 29.14C46.3647 29.38 46.4847 29.6733 46.4847 30.02C46.4847 30.3667 46.3647 30.66 46.1247 30.9C45.898 31.14 45.618 31.26 45.2847 31.26ZM46.1647 33.04V44H44.3447V33.04H46.1647ZM54.6066 32.84C55.9399 32.84 57.0199 33.2467 57.8466 34.06C58.6732 34.86 59.0866 36.02 59.0866 37.54V44H57.2866V37.8C57.2866 36.7067 57.0132 35.8733 56.4666 35.3C55.9199 34.7133 55.1732 34.42 54.2266 34.42C53.2666 34.42 52.4999 34.72 51.9266 35.32C51.3666 35.92 51.0866 36.7933 51.0866 37.94V44H49.2666V33.04H51.0866V34.6C51.4466 34.04 51.9332 33.6067 52.5466 33.3C53.1732 32.9933 53.8599 32.84 54.6066 32.84ZM64.2795 34.54V41C64.2795 41.5333 64.3929 41.9133 64.6195 42.14C64.8462 42.3533 65.2395 42.46 65.7995 42.46H67.1395V44H65.4995C64.4862 44 63.7262 43.7667 63.2195 43.3C62.7129 42.8333 62.4595 42.0667 62.4595 41V34.54H61.0395V33.04H62.4595V30.28H64.2795V33.04H67.1395V34.54H64.2795ZM79.3447 38.1C79.3447 38.4467 79.3247 38.8133 79.2847 39.2H70.5247C70.5914 40.28 70.958 41.1267 71.6247 41.74C72.3047 42.34 73.1247 42.64 74.0847 42.64C74.8714 42.64 75.5247 42.46 76.0447 42.1C76.578 41.7267 76.9514 41.2333 77.1647 40.62H79.1247C78.8314 41.6733 78.2447 42.5333 77.3647 43.2C76.4847 43.8533 75.3914 44.18 74.0847 44.18C73.0447 44.18 72.1114 43.9467 71.2847 43.48C70.4714 43.0133 69.8314 42.3533 69.3647 41.5C68.898 40.6333 68.6647 39.6333 68.6647 38.5C68.6647 37.3667 68.8914 36.3733 69.3447 35.52C69.798 34.6667 70.4314 34.0133 71.2447 33.56C72.0714 33.0933 73.018 32.86 74.0847 32.86C75.1247 32.86 76.0447 33.0867 76.8447 33.54C77.6447 33.9933 78.258 34.62 78.6847 35.42C79.1247 36.2067 79.3447 37.1 79.3447 38.1ZM77.4647 37.72C77.4647 37.0267 77.3114 36.4333 77.0047 35.94C76.698 35.4333 76.278 35.0533 75.7447 34.8C75.2247 34.5333 74.6447 34.4 74.0047 34.4C73.0847 34.4 72.298 34.6933 71.6447 35.28C71.0047 35.8667 70.638 36.68 70.5447 37.72H77.4647ZM83.567 34.82C83.887 34.1933 84.3404 33.7067 84.927 33.36C85.527 33.0133 86.2537 32.84 87.107 32.84V34.72H86.627C84.587 34.72 83.567 35.8267 83.567 38.04V44H81.747V33.04H83.567V34.82ZM99.208 38.1C99.208 38.4467 99.188 38.8133 99.148 39.2H90.388C90.4546 40.28 90.8213 41.1267 91.488 41.74C92.168 42.34 92.988 42.64 93.948 42.64C94.7346 42.64 95.388 42.46 95.908 42.1C96.4413 41.7267 96.8146 41.2333 97.028 40.62H98.988C98.6946 41.6733 98.108 42.5333 97.228 43.2C96.348 43.8533 95.2546 44.18 93.948 44.18C92.908 44.18 91.9746 43.9467 91.148 43.48C90.3346 43.0133 89.6946 42.3533 89.228 41.5C88.7613 40.6333 88.528 39.6333 88.528 38.5C88.528 37.3667 88.7546 36.3733 89.208 35.52C89.6613 34.6667 90.2946 34.0133 91.108 33.56C91.9346 33.0933 92.8813 32.86 93.948 32.86C94.988 32.86 95.908 33.0867 96.708 33.54C97.508 33.9933 98.1213 34.62 98.548 35.42C98.988 36.2067 99.208 37.1 99.208 38.1ZM97.328 37.72C97.328 37.0267 97.1746 36.4333 96.868 35.94C96.5613 35.4333 96.1413 35.0533 95.608 34.8C95.088 34.5333 94.508 34.4 93.868 34.4C92.948 34.4 92.1613 34.6933 91.508 35.28C90.868 35.8667 90.5013 36.68 90.408 37.72H97.328ZM105.49 44.18C104.65 44.18 103.897 44.04 103.23 43.76C102.564 43.4667 102.037 43.0667 101.65 42.56C101.264 42.04 101.05 41.4467 101.01 40.78H102.89C102.944 41.3267 103.197 41.7733 103.65 42.12C104.117 42.4667 104.724 42.64 105.47 42.64C106.164 42.64 106.71 42.4867 107.11 42.18C107.51 41.8733 107.71 41.4867 107.71 41.02C107.71 40.54 107.497 40.1867 107.07 39.96C106.644 39.72 105.984 39.4867 105.09 39.26C104.277 39.0467 103.61 38.8333 103.09 38.62C102.584 38.3933 102.144 38.0667 101.77 37.64C101.41 37.2 101.23 36.6267 101.23 35.92C101.23 35.36 101.397 34.8467 101.73 34.38C102.064 33.9133 102.537 33.5467 103.15 33.28C103.764 33 104.464 32.86 105.25 32.86C106.464 32.86 107.444 33.1667 108.19 33.78C108.937 34.3933 109.337 35.2333 109.39 36.3H107.57C107.53 35.7267 107.297 35.2667 106.87 34.92C106.457 34.5733 105.897 34.4 105.19 34.4C104.537 34.4 104.017 34.54 103.63 34.82C103.244 35.1 103.05 35.4667 103.05 35.92C103.05 36.28 103.164 36.58 103.39 36.82C103.63 37.0467 103.924 37.2333 104.27 37.38C104.63 37.5133 105.124 37.6667 105.75 37.84C106.537 38.0533 107.177 38.2667 107.67 38.48C108.164 38.68 108.584 38.9867 108.93 39.4C109.29 39.8133 109.477 40.3533 109.49 41.02C109.49 41.62 109.324 42.16 108.99 42.64C108.657 43.12 108.184 43.5 107.57 43.78C106.97 44.0467 106.277 44.18 105.49 44.18ZM114.28 34.54V41C114.28 41.5333 114.393 41.9133 114.62 42.14C114.846 42.3533 115.24 42.46 115.8 42.46H117.14V44H115.5C114.486 44 113.726 43.7667 113.22 43.3C112.713 42.8333 112.46 42.0667 112.46 41V34.54H111.04V33.04H112.46V30.28H114.28V33.04H117.14V34.54H114.28ZM129.345 38.1C129.345 38.4467 129.325 38.8133 129.285 39.2H120.525C120.591 40.28 120.958 41.1267 121.625 41.74C122.305 42.34 123.125 42.64 124.085 42.64C124.871 42.64 125.525 42.46 126.045 42.1C126.578 41.7267 126.951 41.2333 127.165 40.62H129.125C128.831 41.6733 128.245 42.5333 127.365 43.2C126.485 43.8533 125.391 44.18 124.085 44.18C123.045 44.18 122.111 43.9467 121.285 43.48C120.471 43.0133 119.831 42.3533 119.365 41.5C118.898 40.6333 118.665 39.6333 118.665 38.5C118.665 37.3667 118.891 36.3733 119.345 35.52C119.798 34.6667 120.431 34.0133 121.245 33.56C122.071 33.0933 123.018 32.86 124.085 32.86C125.125 32.86 126.045 33.0867 126.845 33.54C127.645 33.9933 128.258 34.62 128.685 35.42C129.125 36.2067 129.345 37.1 129.345 38.1ZM127.465 37.72C127.465 37.0267 127.311 36.4333 127.005 35.94C126.698 35.4333 126.278 35.0533 125.745 34.8C125.225 34.5333 124.645 34.4 124.005 34.4C123.085 34.4 122.298 34.6933 121.645 35.28C121.005 35.8667 120.638 36.68 120.545 37.72H127.465ZM131.067 38.48C131.067 37.36 131.294 36.38 131.747 35.54C132.2 34.6867 132.82 34.0267 133.607 33.56C134.407 33.0933 135.3 32.86 136.287 32.86C137.14 32.86 137.934 33.06 138.667 33.46C139.4 33.8467 139.96 34.36 140.347 35V29.2H142.187V44H140.347V41.94C139.987 42.5933 139.454 43.1333 138.747 43.56C138.04 43.9733 137.214 44.18 136.267 44.18C135.294 44.18 134.407 43.94 133.607 43.46C132.82 42.98 132.2 42.3067 131.747 41.44C131.294 40.5733 131.067 39.5867 131.067 38.48ZM140.347 38.5C140.347 37.6733 140.18 36.9533 139.847 36.34C139.514 35.7267 139.06 35.26 138.487 34.94C137.927 34.6067 137.307 34.44 136.627 34.44C135.947 34.44 135.327 34.6 134.767 34.92C134.207 35.24 133.76 35.7067 133.427 36.32C133.094 36.9333 132.927 37.6533 132.927 38.48C132.927 39.32 133.094 40.0533 133.427 40.68C133.76 41.2933 134.207 41.7667 134.767 42.1C135.327 42.42 135.947 42.58 136.627 42.58C137.307 42.58 137.927 42.42 138.487 42.1C139.06 41.7667 139.514 41.2933 139.847 40.68C140.18 40.0533 140.347 39.3267 140.347 38.5ZM151.535 31.26C151.188 31.26 150.895 31.14 150.655 30.9C150.415 30.66 150.295 30.3667 150.295 30.02C150.295 29.6733 150.415 29.38 150.655 29.14C150.895 28.9 151.188 28.78 151.535 28.78C151.868 28.78 152.148 28.9 152.375 29.14C152.615 29.38 152.735 29.6733 152.735 30.02C152.735 30.3667 152.615 30.66 152.375 30.9C152.148 31.14 151.868 31.26 151.535 31.26ZM152.415 33.04V44H150.595V33.04H152.415ZM160.857 32.84C162.19 32.84 163.27 33.2467 164.097 34.06C164.923 34.86 165.337 36.02 165.337 37.54V44H163.537V37.8C163.537 36.7067 163.263 35.8733 162.717 35.3C162.17 34.7133 161.423 34.42 160.477 34.42C159.517 34.42 158.75 34.72 158.177 35.32C157.617 35.92 157.337 36.7933 157.337 37.94V44H155.517V33.04H157.337V34.6C157.697 34.04 158.183 33.6067 158.797 33.3C159.423 32.9933 160.11 32.84 160.857 32.84ZM172.962 38.48C172.962 37.36 173.188 36.38 173.642 35.54C174.095 34.6867 174.715 34.0267 175.502 33.56C176.302 33.0933 177.195 32.86 178.182 32.86C179.035 32.86 179.828 33.06 180.562 33.46C181.295 33.8467 181.855 34.36 182.242 35V29.2H184.082V44H182.242V41.94C181.882 42.5933 181.348 43.1333 180.642 43.56C179.935 43.9733 179.108 44.18 178.162 44.18C177.188 44.18 176.302 43.94 175.502 43.46C174.715 42.98 174.095 42.3067 173.642 41.44C173.188 40.5733 172.962 39.5867 172.962 38.48ZM182.242 38.5C182.242 37.6733 182.075 36.9533 181.742 36.34C181.408 35.7267 180.955 35.26 180.382 34.94C179.822 34.6067 179.202 34.44 178.522 34.44C177.842 34.44 177.222 34.6 176.662 34.92C176.102 35.24 175.655 35.7067 175.322 36.32C174.988 36.9333 174.822 37.6533 174.822 38.48C174.822 39.32 174.988 40.0533 175.322 40.68C175.655 41.2933 176.102 41.7667 176.662 42.1C177.222 42.42 177.842 42.58 178.522 42.58C179.202 42.58 179.822 42.42 180.382 42.1C180.955 41.7667 181.408 41.2933 181.742 40.68C182.075 40.0533 182.242 39.3267 182.242 38.5ZM197.157 38.1C197.157 38.4467 197.137 38.8133 197.097 39.2H188.337C188.404 40.28 188.771 41.1267 189.437 41.74C190.117 42.34 190.937 42.64 191.897 42.64C192.684 42.64 193.337 42.46 193.857 42.1C194.391 41.7267 194.764 41.2333 194.977 40.62H196.937C196.644 41.6733 196.057 42.5333 195.177 43.2C194.297 43.8533 193.204 44.18 191.897 44.18C190.857 44.18 189.924 43.9467 189.097 43.48C188.284 43.0133 187.644 42.3533 187.177 41.5C186.711 40.6333 186.477 39.6333 186.477 38.5C186.477 37.3667 186.704 36.3733 187.157 35.52C187.611 34.6667 188.244 34.0133 189.057 33.56C189.884 33.0933 190.831 32.86 191.897 32.86C192.937 32.86 193.857 33.0867 194.657 33.54C195.457 33.9933 196.071 34.62 196.497 35.42C196.937 36.2067 197.157 37.1 197.157 38.1ZM195.277 37.72C195.277 37.0267 195.124 36.4333 194.817 35.94C194.511 35.4333 194.091 35.0533 193.557 34.8C193.037 34.5333 192.457 34.4 191.817 34.4C190.897 34.4 190.111 34.6933 189.457 35.28C188.817 35.8667 188.451 36.68 188.357 37.72H195.277ZM203.64 42.32L207.04 33.04H208.98L204.68 44H202.56L198.26 33.04H200.22L203.64 42.32ZM220.77 38.1C220.77 38.4467 220.75 38.8133 220.71 39.2H211.95C212.017 40.28 212.384 41.1267 213.05 41.74C213.73 42.34 214.55 42.64 215.51 42.64C216.297 42.64 216.95 42.46 217.47 42.1C218.004 41.7267 218.377 41.2333 218.59 40.62H220.55C220.257 41.6733 219.67 42.5333 218.79 43.2C217.91 43.8533 216.817 44.18 215.51 44.18C214.47 44.18 213.537 43.9467 212.71 43.48C211.897 43.0133 211.257 42.3533 210.79 41.5C210.324 40.6333 210.09 39.6333 210.09 38.5C210.09 37.3667 210.317 36.3733 210.77 35.52C211.224 34.6667 211.857 34.0133 212.67 33.56C213.497 33.0933 214.444 32.86 215.51 32.86C216.55 32.86 217.47 33.0867 218.27 33.54C219.07 33.9933 219.684 34.62 220.11 35.42C220.55 36.2067 220.77 37.1 220.77 38.1ZM218.89 37.72C218.89 37.0267 218.737 36.4333 218.43 35.94C218.124 35.4333 217.704 35.0533 217.17 34.8C216.65 34.5333 216.07 34.4 215.43 34.4C214.51 34.4 213.724 34.6933 213.07 35.28C212.43 35.8667 212.064 36.68 211.97 37.72H218.89ZM224.993 29.2V44H223.173V29.2H224.993ZM232.875 44.18C231.848 44.18 230.915 43.9467 230.075 43.48C229.248 43.0133 228.595 42.3533 228.115 41.5C227.648 40.6333 227.415 39.6333 227.415 38.5C227.415 37.38 227.655 36.3933 228.135 35.54C228.628 34.6733 229.295 34.0133 230.135 33.56C230.975 33.0933 231.915 32.86 232.955 32.86C233.995 32.86 234.935 33.0933 235.775 33.56C236.615 34.0133 237.275 34.6667 237.755 35.52C238.248 36.3733 238.495 37.3667 238.495 38.5C238.495 39.6333 238.241 40.6333 237.735 41.5C237.241 42.3533 236.568 43.0133 235.715 43.48C234.861 43.9467 233.915 44.18 232.875 44.18ZM232.875 42.58C233.528 42.58 234.141 42.4267 234.715 42.12C235.288 41.8133 235.748 41.3533 236.095 40.74C236.455 40.1267 236.635 39.38 236.635 38.5C236.635 37.62 236.461 36.8733 236.115 36.26C235.768 35.6467 235.315 35.1933 234.755 34.9C234.195 34.5933 233.588 34.44 232.935 34.44C232.268 34.44 231.655 34.5933 231.095 34.9C230.548 35.1933 230.108 35.6467 229.775 36.26C229.441 36.8733 229.275 37.62 229.275 38.5C229.275 39.3933 229.435 40.1467 229.755 40.76C230.088 41.3733 230.528 41.8333 231.075 42.14C231.621 42.4333 232.221 42.58 232.875 42.58ZM242.708 35.06C243.068 34.4333 243.601 33.9133 244.308 33.5C245.028 33.0733 245.861 32.86 246.808 32.86C247.781 32.86 248.661 33.0933 249.448 33.56C250.248 34.0267 250.874 34.6867 251.328 35.54C251.781 36.38 252.008 37.36 252.008 38.48C252.008 39.5867 251.781 40.5733 251.328 41.44C250.874 42.3067 250.248 42.98 249.448 43.46C248.661 43.94 247.781 44.18 246.808 44.18C245.874 44.18 245.048 43.9733 244.328 43.56C243.621 43.1333 243.081 42.6067 242.708 41.98V49.2H240.888V33.04H242.708V35.06ZM250.148 38.48C250.148 37.6533 249.981 36.9333 249.648 36.32C249.314 35.7067 248.861 35.24 248.288 34.92C247.728 34.6 247.108 34.44 246.428 34.44C245.761 34.44 245.141 34.6067 244.568 34.94C244.008 35.26 243.554 35.7333 243.208 36.36C242.874 36.9733 242.708 37.6867 242.708 38.5C242.708 39.3267 242.874 40.0533 243.208 40.68C243.554 41.2933 244.008 41.7667 244.568 42.1C245.141 42.42 245.761 42.58 246.428 42.58C247.108 42.58 247.728 42.42 248.288 42.1C248.861 41.7667 249.314 41.2933 249.648 40.68C249.981 40.0533 250.148 39.32 250.148 38.48ZM255.343 31.26C254.997 31.26 254.703 31.14 254.463 30.9C254.223 30.66 254.103 30.3667 254.103 30.02C254.103 29.6733 254.223 29.38 254.463 29.14C254.703 28.9 254.997 28.78 255.343 28.78C255.677 28.78 255.957 28.9 256.183 29.14C256.423 29.38 256.543 29.6733 256.543 30.02C256.543 30.3667 256.423 30.66 256.183 30.9C255.957 31.14 255.677 31.26 255.343 31.26ZM256.223 33.04V44H254.403V33.04H256.223ZM264.665 32.84C265.998 32.84 267.078 33.2467 267.905 34.06C268.732 34.86 269.145 36.02 269.145 37.54V44H267.345V37.8C267.345 36.7067 267.072 35.8733 266.525 35.3C265.978 34.7133 265.232 34.42 264.285 34.42C263.325 34.42 262.558 34.72 261.985 35.32C261.425 35.92 261.145 36.7933 261.145 37.94V44H259.325V33.04H261.145V34.6C261.505 34.04 261.992 33.6067 262.605 33.3C263.232 32.9933 263.918 32.84 264.665 32.84ZM276.638 32.86C277.585 32.86 278.411 33.0667 279.118 33.48C279.838 33.8933 280.371 34.4133 280.718 35.04V33.04H282.558V44.24C282.558 45.24 282.345 46.1267 281.918 46.9C281.491 47.6867 280.878 48.3 280.078 48.74C279.291 49.18 278.371 49.4 277.318 49.4C275.878 49.4 274.678 49.06 273.718 48.38C272.758 47.7 272.191 46.7733 272.018 45.6H273.818C274.018 46.2667 274.431 46.8 275.058 47.2C275.685 47.6133 276.438 47.82 277.318 47.82C278.318 47.82 279.131 47.5067 279.758 46.88C280.398 46.2533 280.718 45.3733 280.718 44.24V41.94C280.358 42.58 279.825 43.1133 279.118 43.54C278.411 43.9667 277.585 44.18 276.638 44.18C275.665 44.18 274.778 43.94 273.978 43.46C273.191 42.98 272.571 42.3067 272.118 41.44C271.665 40.5733 271.438 39.5867 271.438 38.48C271.438 37.36 271.665 36.38 272.118 35.54C272.571 34.6867 273.191 34.0267 273.978 33.56C274.778 33.0933 275.665 32.86 276.638 32.86ZM280.718 38.5C280.718 37.6733 280.551 36.9533 280.218 36.34C279.885 35.7267 279.431 35.26 278.858 34.94C278.298 34.6067 277.678 34.44 276.998 34.44C276.318 34.44 275.698 34.6 275.138 34.92C274.578 35.24 274.131 35.7067 273.798 36.32C273.465 36.9333 273.298 37.6533 273.298 38.48C273.298 39.32 273.465 40.0533 273.798 40.68C274.131 41.2933 274.578 41.7667 275.138 42.1C275.698 42.42 276.318 42.58 276.998 42.58C277.678 42.58 278.298 42.42 278.858 42.1C279.431 41.7667 279.885 41.2933 280.218 40.68C280.551 40.0533 280.718 39.3267 280.718 38.5ZM287.514 41.48L285.274 46.86H284.054L285.514 41.48H287.514ZM294.251 38.48C294.251 37.36 294.477 36.38 294.931 35.54C295.384 34.6867 296.004 34.0267 296.791 33.56C297.591 33.0933 298.477 32.86 299.451 32.86C300.411 32.86 301.244 33.0667 301.951 33.48C302.657 33.8933 303.184 34.4133 303.531 35.04V33.04H305.371V44H303.531V41.96C303.171 42.6 302.631 43.1333 301.911 43.56C301.204 43.9733 300.377 44.18 299.431 44.18C298.457 44.18 297.577 43.94 296.791 43.46C296.004 42.98 295.384 42.3067 294.931 41.44C294.477 40.5733 294.251 39.5867 294.251 38.48ZM303.531 38.5C303.531 37.6733 303.364 36.9533 303.031 36.34C302.697 35.7267 302.244 35.26 301.671 34.94C301.111 34.6067 300.491 34.44 299.811 34.44C299.131 34.44 298.511 34.6 297.951 34.92C297.391 35.24 296.944 35.7067 296.611 36.32C296.277 36.9333 296.111 37.6533 296.111 38.48C296.111 39.32 296.277 40.0533 296.611 40.68C296.944 41.2933 297.391 41.7667 297.951 42.1C298.511 42.42 299.131 42.58 299.811 42.58C300.491 42.58 301.111 42.42 301.671 42.1C302.244 41.7667 302.697 41.2933 303.031 40.68C303.364 40.0533 303.531 39.3267 303.531 38.5ZM6.25586 62.54H3.95586V72H2.13586V62.54H0.715859V61.04H2.13586V60.26C2.13586 59.0333 2.44919 58.14 3.07586 57.58C3.71586 57.0067 4.73586 56.72 6.13586 56.72V58.24C5.33586 58.24 4.76919 58.4 4.43586 58.72C4.11586 59.0267 3.95586 59.54 3.95586 60.26V61.04H6.25586V62.54ZM18.3779 66.1C18.3779 66.4467 18.3579 66.8133 18.3179 67.2H9.55789C9.62456 68.28 9.99122 69.1267 10.6579 69.74C11.3379 70.34 12.1579 70.64 13.1179 70.64C13.9046 70.64 14.5579 70.46 15.0779 70.1C15.6112 69.7267 15.9846 69.2333 16.1979 68.62H18.1579C17.8646 69.6733 17.2779 70.5333 16.3979 71.2C15.5179 71.8533 14.4246 72.18 13.1179 72.18C12.0779 72.18 11.1446 71.9467 10.3179 71.48C9.50456 71.0133 8.86456 70.3533 8.39789 69.5C7.93122 68.6333 7.69789 67.6333 7.69789 66.5C7.69789 65.3667 7.92456 64.3733 8.37789 63.52C8.83122 62.6667 9.46456 62.0133 10.2779 61.56C11.1046 61.0933 12.0512 60.86 13.1179 60.86C14.1579 60.86 15.0779 61.0867 15.8779 61.54C16.6779 61.9933 17.2912 62.62 17.7179 63.42C18.1579 64.2067 18.3779 65.1 18.3779 66.1ZM16.4979 65.72C16.4979 65.0267 16.3446 64.4333 16.0379 63.94C15.7312 63.4333 15.3112 63.0533 14.7779 62.8C14.2579 62.5333 13.6779 62.4 13.0379 62.4C12.1179 62.4 11.3312 62.6933 10.6779 63.28C10.0379 63.8667 9.67122 64.68 9.57789 65.72H16.4979ZM20.1002 66.48C20.1002 65.36 20.3269 64.38 20.7802 63.54C21.2336 62.6867 21.8536 62.0267 22.6402 61.56C23.4402 61.0933 24.3269 60.86 25.3002 60.86C26.2602 60.86 27.0936 61.0667 27.8002 61.48C28.5069 61.8933 29.0336 62.4133 29.3802 63.04V61.04H31.2202V72H29.3802V69.96C29.0202 70.6 28.4802 71.1333 27.7602 71.56C27.0536 71.9733 26.2269 72.18 25.2802 72.18C24.3069 72.18 23.4269 71.94 22.6402 71.46C21.8536 70.98 21.2336 70.3067 20.7802 69.44C20.3269 68.5733 20.1002 67.5867 20.1002 66.48ZM29.3802 66.5C29.3802 65.6733 29.2136 64.9533 28.8802 64.34C28.5469 63.7267 28.0936 63.26 27.5202 62.94C26.9602 62.6067 26.3402 62.44 25.6602 62.44C24.9802 62.44 24.3602 62.6 23.8002 62.92C23.2402 63.24 22.7936 63.7067 22.4602 64.32C22.1269 64.9333 21.9602 65.6533 21.9602 66.48C21.9602 67.32 22.1269 68.0533 22.4602 68.68C22.7936 69.2933 23.2402 69.7667 23.8002 70.1C24.3602 70.42 24.9802 70.58 25.6602 70.58C26.3402 70.58 26.9602 70.42 27.5202 70.1C28.0936 69.7667 28.5469 69.2933 28.8802 68.68C29.2136 68.0533 29.3802 67.3267 29.3802 66.5ZM36.5159 62.54V69C36.5159 69.5333 36.6292 69.9133 36.8559 70.14C37.0825 70.3533 37.4759 70.46 38.0359 70.46H39.3759V72H37.7359C36.7225 72 35.9625 71.7667 35.4559 71.3C34.9492 70.8333 34.6959 70.0667 34.6959 69V62.54H33.2759V61.04H34.6959V58.28H36.5159V61.04H39.3759V62.54H36.5159ZM51.301 61.04V72H49.481V70.38C49.1343 70.94 48.6477 71.38 48.021 71.7C47.4077 72.0067 46.7277 72.16 45.981 72.16C45.1277 72.16 44.361 71.9867 43.681 71.64C43.001 71.28 42.461 70.7467 42.061 70.04C41.6743 69.3333 41.481 68.4733 41.481 67.46V61.04H43.281V67.22C43.281 68.3 43.5543 69.1333 44.101 69.72C44.6477 70.2933 45.3943 70.58 46.341 70.58C47.3143 70.58 48.081 70.28 48.641 69.68C49.201 69.08 49.481 68.2067 49.481 67.06V61.04H51.301ZM56.194 62.82C56.514 62.1933 56.9673 61.7067 57.554 61.36C58.154 61.0133 58.8807 60.84 59.734 60.84V62.72H59.254C57.214 62.72 56.194 63.8267 56.194 66.04V72H54.374V61.04H56.194V62.82ZM71.8349 66.1C71.8349 66.4467 71.8149 66.8133 71.7749 67.2H63.0149C63.0816 68.28 63.4483 69.1267 64.1149 69.74C64.7949 70.34 65.6149 70.64 66.5749 70.64C67.3616 70.64 68.0149 70.46 68.5349 70.1C69.0683 69.7267 69.4416 69.2333 69.6549 68.62H71.6149C71.3216 69.6733 70.7349 70.5333 69.8549 71.2C68.9749 71.8533 67.8816 72.18 66.5749 72.18C65.5349 72.18 64.6016 71.9467 63.7749 71.48C62.9616 71.0133 62.3216 70.3533 61.8549 69.5C61.3883 68.6333 61.1549 67.6333 61.1549 66.5C61.1549 65.3667 61.3816 64.3733 61.8349 63.52C62.2883 62.6667 62.9216 62.0133 63.7349 61.56C64.5616 61.0933 65.5083 60.86 66.5749 60.86C67.6149 60.86 68.5349 61.0867 69.3349 61.54C70.1349 61.9933 70.7483 62.62 71.1749 63.42C71.6149 64.2067 71.8349 65.1 71.8349 66.1ZM69.9549 65.72C69.9549 65.0267 69.8016 64.4333 69.4949 63.94C69.1883 63.4333 68.7683 63.0533 68.2349 62.8C67.7149 62.5333 67.1349 62.4 66.4949 62.4C65.5749 62.4 64.7883 62.6933 64.1349 63.28C63.4949 63.8667 63.1283 64.68 63.0349 65.72H69.9549ZM81.7893 62.54V69C81.7893 69.5333 81.9026 69.9133 82.1293 70.14C82.356 70.3533 82.7493 70.46 83.3093 70.46H84.6493V72H83.0093C81.996 72 81.236 71.7667 80.7293 71.3C80.2226 70.8333 79.9693 70.0667 79.9693 69V62.54H78.5493V61.04H79.9693V58.28H81.7893V61.04H84.6493V62.54H81.7893ZM92.2945 60.84C93.1211 60.84 93.8678 61.02 94.5345 61.38C95.2011 61.7267 95.7211 62.2533 96.0945 62.96C96.4811 63.6667 96.6745 64.5267 96.6745 65.54V72H94.8745V65.8C94.8745 64.7067 94.6011 63.8733 94.0545 63.3C93.5078 62.7133 92.7611 62.42 91.8145 62.42C90.8545 62.42 90.0878 62.72 89.5145 63.32C88.9545 63.92 88.6745 64.7933 88.6745 65.94V72H86.8545V57.2H88.6745V62.6C89.0345 62.04 89.5278 61.6067 90.1545 61.3C90.7945 60.9933 91.5078 60.84 92.2945 60.84ZM98.9674 66.48C98.9674 65.36 99.1941 64.38 99.6474 63.54C100.101 62.6867 100.721 62.0267 101.507 61.56C102.307 61.0933 103.194 60.86 104.167 60.86C105.127 60.86 105.961 61.0667 106.667 61.48C107.374 61.8933 107.901 62.4133 108.247 63.04V61.04H110.087V72H108.247V69.96C107.887 70.6 107.347 71.1333 106.627 71.56C105.921 71.9733 105.094 72.18 104.147 72.18C103.174 72.18 102.294 71.94 101.507 71.46C100.721 70.98 100.101 70.3067 99.6474 69.44C99.1941 68.5733 98.9674 67.5867 98.9674 66.48ZM108.247 66.5C108.247 65.6733 108.081 64.9533 107.747 64.34C107.414 63.7267 106.961 63.26 106.387 62.94C105.827 62.6067 105.207 62.44 104.527 62.44C103.847 62.44 103.227 62.6 102.667 62.92C102.107 63.24 101.661 63.7067 101.327 64.32C100.994 64.9333 100.827 65.6533 100.827 66.48C100.827 67.32 100.994 68.0533 101.327 68.68C101.661 69.2933 102.107 69.7667 102.667 70.1C103.227 70.42 103.847 70.58 104.527 70.58C105.207 70.58 105.827 70.42 106.387 70.1C106.961 69.7667 107.414 69.2933 107.747 68.68C108.081 68.0533 108.247 67.3267 108.247 66.5ZM115.383 62.54V69C115.383 69.5333 115.496 69.9133 115.723 70.14C115.95 70.3533 116.343 70.46 116.903 70.46H118.243V72H116.603C115.59 72 114.83 71.7667 114.323 71.3C113.816 70.8333 113.563 70.0667 113.563 69V62.54H112.143V61.04H113.563V58.28H115.383V61.04H118.243V62.54H115.383ZM135.22 61.04L128.62 77.16H126.74L128.9 71.88L124.48 61.04H126.5L129.94 69.92L133.34 61.04H135.22ZM141.83 72.18C140.803 72.18 139.87 71.9467 139.03 71.48C138.203 71.0133 137.55 70.3533 137.07 69.5C136.603 68.6333 136.37 67.6333 136.37 66.5C136.37 65.38 136.61 64.3933 137.09 63.54C137.583 62.6733 138.25 62.0133 139.09 61.56C139.93 61.0933 140.87 60.86 141.91 60.86C142.95 60.86 143.89 61.0933 144.73 61.56C145.57 62.0133 146.23 62.6667 146.71 63.52C147.203 64.3733 147.45 65.3667 147.45 66.5C147.45 67.6333 147.196 68.6333 146.69 69.5C146.196 70.3533 145.523 71.0133 144.67 71.48C143.816 71.9467 142.87 72.18 141.83 72.18ZM141.83 70.58C142.483 70.58 143.096 70.4267 143.67 70.12C144.243 69.8133 144.703 69.3533 145.05 68.74C145.41 68.1267 145.59 67.38 145.59 66.5C145.59 65.62 145.416 64.8733 145.07 64.26C144.723 63.6467 144.27 63.1933 143.71 62.9C143.15 62.5933 142.543 62.44 141.89 62.44C141.223 62.44 140.61 62.5933 140.05 62.9C139.503 63.1933 139.063 63.6467 138.73 64.26C138.396 64.8733 138.23 65.62 138.23 66.5C138.23 67.3933 138.39 68.1467 138.71 68.76C139.043 69.3733 139.483 69.8333 140.03 70.14C140.576 70.4333 141.176 70.58 141.83 70.58ZM159.563 61.04V72H157.743V70.38C157.396 70.94 156.909 71.38 156.283 71.7C155.669 72.0067 154.989 72.16 154.243 72.16C153.389 72.16 152.623 71.9867 151.943 71.64C151.263 71.28 150.723 70.7467 150.323 70.04C149.936 69.3333 149.743 68.4733 149.743 67.46V61.04H151.543V67.22C151.543 68.3 151.816 69.1333 152.363 69.72C152.909 70.2933 153.656 70.58 154.603 70.58C155.576 70.58 156.343 70.28 156.903 69.68C157.463 69.08 157.743 68.2067 157.743 67.06V61.04H159.563ZM173.308 60.84C174.641 60.84 175.721 61.2467 176.548 62.06C177.374 62.86 177.788 64.02 177.788 65.54V72H175.988V65.8C175.988 64.7067 175.714 63.8733 175.168 63.3C174.621 62.7133 173.874 62.42 172.928 62.42C171.968 62.42 171.201 62.72 170.628 63.32C170.068 63.92 169.788 64.7933 169.788 65.94V72H167.968V61.04H169.788V62.6C170.148 62.04 170.634 61.6067 171.248 61.3C171.874 60.9933 172.561 60.84 173.308 60.84ZM190.761 66.1C190.761 66.4467 190.741 66.8133 190.701 67.2H181.941C182.007 68.28 182.374 69.1267 183.041 69.74C183.721 70.34 184.541 70.64 185.501 70.64C186.287 70.64 186.941 70.46 187.461 70.1C187.994 69.7267 188.367 69.2333 188.581 68.62H190.541C190.247 69.6733 189.661 70.5333 188.781 71.2C187.901 71.8533 186.807 72.18 185.501 72.18C184.461 72.18 183.527 71.9467 182.701 71.48C181.887 71.0133 181.247 70.3533 180.781 69.5C180.314 68.6333 180.081 67.6333 180.081 66.5C180.081 65.3667 180.307 64.3733 180.761 63.52C181.214 62.6667 181.847 62.0133 182.661 61.56C183.487 61.0933 184.434 60.86 185.501 60.86C186.541 60.86 187.461 61.0867 188.261 61.54C189.061 61.9933 189.674 62.62 190.101 63.42C190.541 64.2067 190.761 65.1 190.761 66.1ZM188.881 65.72C188.881 65.0267 188.727 64.4333 188.421 63.94C188.114 63.4333 187.694 63.0533 187.161 62.8C186.641 62.5333 186.061 62.4 185.421 62.4C184.501 62.4 183.714 62.6933 183.061 63.28C182.421 63.8667 182.054 64.68 181.961 65.72H188.881ZM203.163 66.1C203.163 66.4467 203.143 66.8133 203.103 67.2H194.343C194.41 68.28 194.776 69.1267 195.443 69.74C196.123 70.34 196.943 70.64 197.903 70.64C198.69 70.64 199.343 70.46 199.863 70.1C200.396 69.7267 200.77 69.2333 200.983 68.62H202.943C202.65 69.6733 202.063 70.5333 201.183 71.2C200.303 71.8533 199.21 72.18 197.903 72.18C196.863 72.18 195.93 71.9467 195.103 71.48C194.29 71.0133 193.65 70.3533 193.183 69.5C192.716 68.6333 192.483 67.6333 192.483 66.5C192.483 65.3667 192.71 64.3733 193.163 63.52C193.616 62.6667 194.25 62.0133 195.063 61.56C195.89 61.0933 196.836 60.86 197.903 60.86C198.943 60.86 199.863 61.0867 200.663 61.54C201.463 61.9933 202.076 62.62 202.503 63.42C202.943 64.2067 203.163 65.1 203.163 66.1ZM201.283 65.72C201.283 65.0267 201.13 64.4333 200.823 63.94C200.516 63.4333 200.096 63.0533 199.563 62.8C199.043 62.5333 198.463 62.4 197.823 62.4C196.903 62.4 196.116 62.6933 195.463 63.28C194.823 63.8667 194.456 64.68 194.363 65.72H201.283ZM204.885 66.48C204.885 65.36 205.112 64.38 205.565 63.54C206.019 62.6867 206.639 62.0267 207.425 61.56C208.225 61.0933 209.119 60.86 210.105 60.86C210.959 60.86 211.752 61.06 212.485 61.46C213.219 61.8467 213.779 62.36 214.165 63V57.2H216.005V72H214.165V69.94C213.805 70.5933 213.272 71.1333 212.565 71.56C211.859 71.9733 211.032 72.18 210.085 72.18C209.112 72.18 208.225 71.94 207.425 71.46C206.639 70.98 206.019 70.3067 205.565 69.44C205.112 68.5733 204.885 67.5867 204.885 66.48ZM214.165 66.5C214.165 65.6733 213.999 64.9533 213.665 64.34C213.332 63.7267 212.879 63.26 212.305 62.94C211.745 62.6067 211.125 62.44 210.445 62.44C209.765 62.44 209.145 62.6 208.585 62.92C208.025 63.24 207.579 63.7067 207.245 64.32C206.912 64.9333 206.745 65.6533 206.745 66.48C206.745 67.32 206.912 68.0533 207.245 68.68C207.579 69.2933 208.025 69.7667 208.585 70.1C209.145 70.42 209.765 70.58 210.445 70.58C211.125 70.58 211.745 70.42 212.305 70.1C212.879 69.7667 213.332 69.2933 213.665 68.68C213.999 68.0533 214.165 67.3267 214.165 66.5ZM226.233 63.08C226.606 62.4267 227.153 61.8933 227.873 61.48C228.593 61.0667 229.413 60.86 230.333 60.86C231.32 60.86 232.206 61.0933 232.993 61.56C233.78 62.0267 234.4 62.6867 234.853 63.54C235.306 64.38 235.533 65.36 235.533 66.48C235.533 67.5867 235.306 68.5733 234.853 69.44C234.4 70.3067 233.773 70.98 232.973 71.46C232.186 71.94 231.306 72.18 230.333 72.18C229.386 72.18 228.553 71.9733 227.833 71.56C227.126 71.1467 226.593 70.62 226.233 69.98V72H224.413V57.2H226.233V63.08ZM233.673 66.48C233.673 65.6533 233.506 64.9333 233.173 64.32C232.84 63.7067 232.386 63.24 231.813 62.92C231.253 62.6 230.633 62.44 229.953 62.44C229.286 62.44 228.666 62.6067 228.093 62.94C227.533 63.26 227.08 63.7333 226.733 64.36C226.4 64.9733 226.233 65.6867 226.233 66.5C226.233 67.3267 226.4 68.0533 226.733 68.68C227.08 69.2933 227.533 69.7667 228.093 70.1C228.666 70.42 229.286 70.58 229.953 70.58C230.633 70.58 231.253 70.42 231.813 70.1C232.386 69.7667 232.84 69.2933 233.173 68.68C233.506 68.0533 233.673 67.32 233.673 66.48ZM247.649 61.04V72H245.829V70.38C245.482 70.94 244.995 71.38 244.369 71.7C243.755 72.0067 243.075 72.16 242.329 72.16C241.475 72.16 240.709 71.9867 240.029 71.64C239.349 71.28 238.809 70.7467 238.409 70.04C238.022 69.3333 237.829 68.4733 237.829 67.46V61.04H239.629V67.22C239.629 68.3 239.902 69.1333 240.449 69.72C240.995 70.2933 241.742 70.58 242.689 70.58C243.662 70.58 244.429 70.28 244.989 69.68C245.549 69.08 245.829 68.2067 245.829 67.06V61.04H247.649ZM251.662 59.26C251.315 59.26 251.022 59.14 250.782 58.9C250.542 58.66 250.422 58.3667 250.422 58.02C250.422 57.6733 250.542 57.38 250.782 57.14C251.022 56.9 251.315 56.78 251.662 56.78C251.995 56.78 252.275 56.9 252.502 57.14C252.742 57.38 252.862 57.6733 252.862 58.02C252.862 58.3667 252.742 58.66 252.502 58.9C252.275 59.14 251.995 59.26 251.662 59.26ZM252.542 61.04V72H250.722V61.04H252.542ZM257.464 57.2V72H255.644V57.2H257.464ZM262.785 62.54V69C262.785 69.5333 262.899 69.9133 263.125 70.14C263.352 70.3533 263.745 70.46 264.305 70.46H265.645V72H264.005C262.992 72 262.232 71.7667 261.725 71.3C261.219 70.8333 260.965 70.0667 260.965 69V62.54H259.545V61.04H260.965V58.28H262.785V61.04H265.645V62.54H262.785ZM277.963 72.18C276.936 72.18 276.003 71.9467 275.163 71.48C274.336 71.0133 273.683 70.3533 273.203 69.5C272.736 68.6333 272.503 67.6333 272.503 66.5C272.503 65.38 272.743 64.3933 273.223 63.54C273.716 62.6733 274.383 62.0133 275.223 61.56C276.063 61.0933 277.003 60.86 278.043 60.86C279.083 60.86 280.023 61.0933 280.863 61.56C281.703 62.0133 282.363 62.6667 282.843 63.52C283.336 64.3733 283.583 65.3667 283.583 66.5C283.583 67.6333 283.329 68.6333 282.823 69.5C282.329 70.3533 281.656 71.0133 280.803 71.48C279.949 71.9467 279.003 72.18 277.963 72.18ZM277.963 70.58C278.616 70.58 279.229 70.4267 279.803 70.12C280.376 69.8133 280.836 69.3533 281.183 68.74C281.543 68.1267 281.723 67.38 281.723 66.5C281.723 65.62 281.549 64.8733 281.203 64.26C280.856 63.6467 280.403 63.1933 279.843 62.9C279.283 62.5933 278.676 62.44 278.023 62.44C277.356 62.44 276.743 62.5933 276.183 62.9C275.636 63.1933 275.196 63.6467 274.863 64.26C274.529 64.8733 274.363 65.62 274.363 66.5C274.363 67.3933 274.523 68.1467 274.843 68.76C275.176 69.3733 275.616 69.8333 276.163 70.14C276.709 70.4333 277.309 70.58 277.963 70.58ZM287.796 62.82C288.116 62.1933 288.569 61.7067 289.156 61.36C289.756 61.0133 290.482 60.84 291.336 60.84V62.72H290.856C288.816 62.72 287.796 63.8267 287.796 66.04V72H285.976V61.04H287.796V62.82ZM298.089 66.48C298.089 65.36 298.315 64.38 298.769 63.54C299.222 62.6867 299.842 62.0267 300.629 61.56C301.429 61.0933 302.315 60.86 303.289 60.86C304.249 60.86 305.082 61.0667 305.789 61.48C306.495 61.8933 307.022 62.4133 307.369 63.04V61.04H309.209V72H307.369V69.96C307.009 70.6 306.469 71.1333 305.749 71.56C305.042 71.9733 304.215 72.18 303.269 72.18C302.295 72.18 301.415 71.94 300.629 71.46C299.842 70.98 299.222 70.3067 298.769 69.44C298.315 68.5733 298.089 67.5867 298.089 66.48ZM307.369 66.5C307.369 65.6733 307.202 64.9533 306.869 64.34C306.535 63.7267 306.082 63.26 305.509 62.94C304.949 62.6067 304.329 62.44 303.649 62.44C302.969 62.44 302.349 62.6 301.789 62.92C301.229 63.24 300.782 63.7067 300.449 64.32C300.115 64.9333 299.949 65.6533 299.949 66.48C299.949 67.32 300.115 68.0533 300.449 68.68C300.782 69.2933 301.229 69.7667 301.789 70.1C302.349 70.42 302.969 70.58 303.649 70.58C304.329 70.58 304.949 70.42 305.509 70.1C306.082 69.7667 306.535 69.2933 306.869 68.68C307.202 68.0533 307.369 67.3267 307.369 66.5ZM13.3424 91.06C13.7024 90.4333 14.2358 89.9133 14.9424 89.5C15.6624 89.0733 16.4958 88.86 17.4424 88.86C18.4158 88.86 19.2958 89.0933 20.0824 89.56C20.8824 90.0267 21.5091 90.6867 21.9624 91.54C22.4158 92.38 22.6424 93.36 22.6424 94.48C22.6424 95.5867 22.4158 96.5733 21.9624 97.44C21.5091 98.3067 20.8824 98.98 20.0824 99.46C19.2958 99.94 18.4158 100.18 17.4424 100.18C16.5091 100.18 15.6824 99.9733 14.9624 99.56C14.2558 99.1333 13.7158 98.6067 13.3424 97.98V105.2H11.5224V89.04H13.3424V91.06ZM20.7824 94.48C20.7824 93.6533 20.6158 92.9333 20.2824 92.32C19.9491 91.7067 19.4958 91.24 18.9224 90.92C18.3624 90.6 17.7424 90.44 17.0624 90.44C16.3958 90.44 15.7758 90.6067 15.2024 90.94C14.6424 91.26 14.1891 91.7333 13.8424 92.36C13.5091 92.9733 13.3424 93.6867 13.3424 94.5C13.3424 95.3267 13.5091 96.0533 13.8424 96.68C14.1891 97.2933 14.6424 97.7667 15.2024 98.1C15.7758 98.42 16.3958 98.58 17.0624 98.58C17.7424 98.58 18.3624 98.42 18.9224 98.1C19.4958 97.7667 19.9491 97.2933 20.2824 96.68C20.6158 96.0533 20.7824 95.32 20.7824 94.48ZM26.858 90.82C27.178 90.1933 27.6314 89.7067 28.218 89.36C28.818 89.0133 29.5447 88.84 30.398 88.84V90.72H29.918C27.878 90.72 26.858 91.8267 26.858 94.04V100H25.038V89.04H26.858V90.82ZM37.279 100.18C36.2523 100.18 35.319 99.9467 34.479 99.48C33.6523 99.0133 32.999 98.3533 32.519 97.5C32.0523 96.6333 31.819 95.6333 31.819 94.5C31.819 93.38 32.059 92.3933 32.539 91.54C33.0323 90.6733 33.699 90.0133 34.539 89.56C35.379 89.0933 36.319 88.86 37.359 88.86C38.399 88.86 39.339 89.0933 40.179 89.56C41.019 90.0133 41.679 90.6667 42.159 91.52C42.6523 92.3733 42.899 93.3667 42.899 94.5C42.899 95.6333 42.6457 96.6333 42.139 97.5C41.6457 98.3533 40.9723 99.0133 40.119 99.48C39.2657 99.9467 38.319 100.18 37.279 100.18ZM37.279 98.58C37.9323 98.58 38.5457 98.4267 39.119 98.12C39.6923 97.8133 40.1523 97.3533 40.499 96.74C40.859 96.1267 41.039 95.38 41.039 94.5C41.039 93.62 40.8657 92.8733 40.519 92.26C40.1723 91.6467 39.719 91.1933 39.159 90.9C38.599 90.5933 37.9923 90.44 37.339 90.44C36.6723 90.44 36.059 90.5933 35.499 90.9C34.9523 91.1933 34.5123 91.6467 34.179 92.26C33.8457 92.8733 33.679 93.62 33.679 94.5C33.679 95.3933 33.839 96.1467 34.159 96.76C34.4923 97.3733 34.9323 97.8333 35.479 98.14C36.0257 98.4333 36.6257 98.58 37.279 98.58ZM46.272 87.26C45.9253 87.26 45.632 87.14 45.392 86.9C45.1653 86.66 45.052 86.3667 45.052 86.02C45.052 85.6733 45.1653 85.38 45.392 85.14C45.632 84.9 45.9253 84.78 46.272 84.78C46.6186 84.78 46.9053 84.9 47.132 85.14C47.372 85.38 47.492 85.6733 47.492 86.02C47.492 86.3667 47.372 86.66 47.132 86.9C46.9053 87.14 46.6186 87.26 46.272 87.26ZM47.172 102.38C47.172 103.353 46.9253 104.067 46.432 104.52C45.9386 104.973 45.2186 105.2 44.272 105.2H43.212V103.66H43.972C44.4786 103.66 44.832 103.56 45.032 103.36C45.2453 103.16 45.352 102.82 45.352 102.34V89.04H47.172V102.38ZM60.2529 94.1C60.2529 94.4467 60.2329 94.8133 60.1929 95.2H51.4329C51.4996 96.28 51.8662 97.1267 52.5329 97.74C53.2129 98.34 54.0329 98.64 54.9929 98.64C55.7796 98.64 56.4329 98.46 56.9529 98.1C57.4862 97.7267 57.8596 97.2333 58.0729 96.62H60.0329C59.7396 97.6733 59.1529 98.5333 58.2729 99.2C57.3929 99.8533 56.2996 100.18 54.9929 100.18C53.9529 100.18 53.0196 99.9467 52.1929 99.48C51.3796 99.0133 50.7396 98.3533 50.2729 97.5C49.8062 96.6333 49.5729 95.6333 49.5729 94.5C49.5729 93.3667 49.7996 92.3733 50.2529 91.52C50.7062 90.6667 51.3396 90.0133 52.1529 89.56C52.9796 89.0933 53.9262 88.86 54.9929 88.86C56.0329 88.86 56.9529 89.0867 57.7529 89.54C58.5529 89.9933 59.1662 90.62 59.5929 91.42C60.0329 92.2067 60.2529 93.1 60.2529 94.1ZM58.3729 93.72C58.3729 93.0267 58.2196 92.4333 57.9129 91.94C57.6062 91.4333 57.1862 91.0533 56.6529 90.8C56.1329 90.5333 55.5529 90.4 54.9129 90.4C53.9929 90.4 53.2062 90.6933 52.5529 91.28C51.9129 91.8667 51.5462 92.68 51.4529 93.72H58.3729ZM61.9752 94.5C61.9752 93.3667 62.2019 92.38 62.6552 91.54C63.1086 90.6867 63.7352 90.0267 64.5352 89.56C65.3486 89.0933 66.2752 88.86 67.3152 88.86C68.6619 88.86 69.7686 89.1867 70.6352 89.84C71.5152 90.4933 72.0952 91.4 72.3752 92.56H70.4152C70.2286 91.8933 69.8619 91.3667 69.3152 90.98C68.7819 90.5933 68.1152 90.4 67.3152 90.4C66.2752 90.4 65.4352 90.76 64.7952 91.48C64.1552 92.1867 63.8352 93.1933 63.8352 94.5C63.8352 95.82 64.1552 96.84 64.7952 97.56C65.4352 98.28 66.2752 98.64 67.3152 98.64C68.1152 98.64 68.7819 98.4533 69.3152 98.08C69.8486 97.7067 70.2152 97.1733 70.4152 96.48H72.3752C72.0819 97.6 71.4952 98.5 70.6152 99.18C69.7352 99.8467 68.6352 100.18 67.3152 100.18C66.2752 100.18 65.3486 99.9467 64.5352 99.48C63.7352 99.0133 63.1086 98.3533 62.6552 97.5C62.2019 96.6467 61.9752 95.6467 61.9752 94.5ZM77.0237 90.54V97C77.0237 97.5333 77.137 97.9133 77.3637 98.14C77.5903 98.3533 77.9837 98.46 78.5437 98.46H79.8837V100H78.2437C77.2303 100 76.4703 99.7667 75.9637 99.3C75.457 98.8333 75.2037 98.0667 75.2037 97V90.54H73.7837V89.04H75.2037V86.28H77.0237V89.04H79.8837V90.54H77.0237ZM89.6409 90.54V97C89.6409 97.5333 89.7542 97.9133 89.9809 98.14C90.2075 98.3533 90.6009 98.46 91.1609 98.46H92.5009V100H90.8609C89.8475 100 89.0875 99.7667 88.5809 99.3C88.0742 98.8333 87.8209 98.0667 87.8209 97V90.54H86.4009V89.04H87.8209V86.28H89.6409V89.04H92.5009V90.54H89.6409ZM100.146 88.84C100.973 88.84 101.719 89.02 102.386 89.38C103.053 89.7267 103.573 90.2533 103.946 90.96C104.333 91.6667 104.526 92.5267 104.526 93.54V100H102.726V93.8C102.726 92.7067 102.453 91.8733 101.906 91.3C101.359 90.7133 100.613 90.42 99.666 90.42C98.706 90.42 97.9393 90.72 97.366 91.32C96.806 91.92 96.526 92.7933 96.526 93.94V100H94.706V85.2H96.526V90.6C96.886 90.04 97.3793 89.6067 98.006 89.3C98.646 88.9933 99.3593 88.84 100.146 88.84ZM106.819 94.48C106.819 93.36 107.046 92.38 107.499 91.54C107.952 90.6867 108.572 90.0267 109.359 89.56C110.159 89.0933 111.046 88.86 112.019 88.86C112.979 88.86 113.812 89.0667 114.519 89.48C115.226 89.8933 115.752 90.4133 116.099 91.04V89.04H117.939V100H116.099V97.96C115.739 98.6 115.199 99.1333 114.479 99.56C113.772 99.9733 112.946 100.18 111.999 100.18C111.026 100.18 110.146 99.94 109.359 99.46C108.572 98.98 107.952 98.3067 107.499 97.44C107.046 96.5733 106.819 95.5867 106.819 94.48ZM116.099 94.5C116.099 93.6733 115.932 92.9533 115.599 92.34C115.266 91.7267 114.812 91.26 114.239 90.94C113.679 90.6067 113.059 90.44 112.379 90.44C111.699 90.44 111.079 90.6 110.519 90.92C109.959 91.24 109.512 91.7067 109.179 92.32C108.846 92.9333 108.679 93.6533 108.679 94.48C108.679 95.32 108.846 96.0533 109.179 96.68C109.512 97.2933 109.959 97.7667 110.519 98.1C111.079 98.42 111.699 98.58 112.379 98.58C113.059 98.58 113.679 98.42 114.239 98.1C114.812 97.7667 115.266 97.2933 115.599 96.68C115.932 96.0533 116.099 95.3267 116.099 94.5ZM123.235 90.54V97C123.235 97.5333 123.348 97.9133 123.575 98.14C123.801 98.3533 124.195 98.46 124.755 98.46H126.095V100H124.455C123.441 100 122.681 99.7667 122.175 99.3C121.668 98.8333 121.415 98.0667 121.415 97V90.54H119.995V89.04H121.415V86.28H123.235V89.04H126.095V90.54H123.235ZM138.972 88.84C140.305 88.84 141.385 89.2467 142.212 90.06C143.038 90.86 143.452 92.02 143.452 93.54V100H141.652V93.8C141.652 92.7067 141.378 91.8733 140.832 91.3C140.285 90.7133 139.538 90.42 138.592 90.42C137.632 90.42 136.865 90.72 136.292 91.32C135.732 91.92 135.452 92.7933 135.452 93.94V100H133.632V89.04H135.452V90.6C135.812 90.04 136.298 89.6067 136.912 89.3C137.538 88.9933 138.225 88.84 138.972 88.84ZM156.425 94.1C156.425 94.4467 156.405 94.8133 156.365 95.2H147.605C147.671 96.28 148.038 97.1267 148.705 97.74C149.385 98.34 150.205 98.64 151.165 98.64C151.951 98.64 152.605 98.46 153.125 98.1C153.658 97.7267 154.031 97.2333 154.245 96.62H156.205C155.911 97.6733 155.325 98.5333 154.445 99.2C153.565 99.8533 152.471 100.18 151.165 100.18C150.125 100.18 149.191 99.9467 148.365 99.48C147.551 99.0133 146.911 98.3533 146.445 97.5C145.978 96.6333 145.745 95.6333 145.745 94.5C145.745 93.3667 145.971 92.3733 146.425 91.52C146.878 90.6667 147.511 90.0133 148.325 89.56C149.151 89.0933 150.098 88.86 151.165 88.86C152.205 88.86 153.125 89.0867 153.925 89.54C154.725 89.9933 155.338 90.62 155.765 91.42C156.205 92.2067 156.425 93.1 156.425 94.1ZM154.545 93.72C154.545 93.0267 154.391 92.4333 154.085 91.94C153.778 91.4333 153.358 91.0533 152.825 90.8C152.305 90.5333 151.725 90.4 151.085 90.4C150.165 90.4 149.378 90.6933 148.725 91.28C148.085 91.8667 147.718 92.68 147.625 93.72H154.545ZM168.827 94.1C168.827 94.4467 168.807 94.8133 168.767 95.2H160.007C160.074 96.28 160.44 97.1267 161.107 97.74C161.787 98.34 162.607 98.64 163.567 98.64C164.354 98.64 165.007 98.46 165.527 98.1C166.06 97.7267 166.434 97.2333 166.647 96.62H168.607C168.314 97.6733 167.727 98.5333 166.847 99.2C165.967 99.8533 164.874 100.18 163.567 100.18C162.527 100.18 161.594 99.9467 160.767 99.48C159.954 99.0133 159.314 98.3533 158.847 97.5C158.38 96.6333 158.147 95.6333 158.147 94.5C158.147 93.3667 158.374 92.3733 158.827 91.52C159.28 90.6667 159.914 90.0133 160.727 89.56C161.554 89.0933 162.5 88.86 163.567 88.86C164.607 88.86 165.527 89.0867 166.327 89.54C167.127 89.9933 167.74 90.62 168.167 91.42C168.607 92.2067 168.827 93.1 168.827 94.1ZM166.947 93.72C166.947 93.0267 166.794 92.4333 166.487 91.94C166.18 91.4333 165.76 91.0533 165.227 90.8C164.707 90.5333 164.127 90.4 163.487 90.4C162.567 90.4 161.78 90.6933 161.127 91.28C160.487 91.8667 160.12 92.68 160.027 93.72H166.947ZM170.549 94.48C170.549 93.36 170.776 92.38 171.229 91.54C171.683 90.6867 172.303 90.0267 173.089 89.56C173.889 89.0933 174.783 88.86 175.769 88.86C176.623 88.86 177.416 89.06 178.149 89.46C178.883 89.8467 179.443 90.36 179.829 91V85.2H181.669V100H179.829V97.94C179.469 98.5933 178.936 99.1333 178.229 99.56C177.523 99.9733 176.696 100.18 175.749 100.18C174.776 100.18 173.889 99.94 173.089 99.46C172.303 98.98 171.683 98.3067 171.229 97.44C170.776 96.5733 170.549 95.5867 170.549 94.48ZM179.829 94.5C179.829 93.6733 179.663 92.9533 179.329 92.34C178.996 91.7267 178.543 91.26 177.969 90.94C177.409 90.6067 176.789 90.44 176.109 90.44C175.429 90.44 174.809 90.6 174.249 90.92C173.689 91.24 173.243 91.7067 172.909 92.32C172.576 92.9333 172.409 93.6533 172.409 94.48C172.409 95.32 172.576 96.0533 172.909 96.68C173.243 97.2933 173.689 97.7667 174.249 98.1C174.809 98.42 175.429 98.58 176.109 98.58C176.789 98.58 177.409 98.42 177.969 98.1C178.543 97.7667 178.996 97.2933 179.329 96.68C179.663 96.0533 179.829 95.3267 179.829 94.5ZM188.625 100.18C187.785 100.18 187.032 100.04 186.365 99.76C185.698 99.4667 185.172 99.0667 184.785 98.56C184.398 98.04 184.185 97.4467 184.145 96.78H186.025C186.078 97.3267 186.332 97.7733 186.785 98.12C187.252 98.4667 187.858 98.64 188.605 98.64C189.298 98.64 189.845 98.4867 190.245 98.18C190.645 97.8733 190.845 97.4867 190.845 97.02C190.845 96.54 190.632 96.1867 190.205 95.96C189.778 95.72 189.118 95.4867 188.225 95.26C187.412 95.0467 186.745 94.8333 186.225 94.62C185.718 94.3933 185.278 94.0667 184.905 93.64C184.545 93.2 184.365 92.6267 184.365 91.92C184.365 91.36 184.532 90.8467 184.865 90.38C185.198 89.9133 185.672 89.5467 186.285 89.28C186.898 89 187.598 88.86 188.385 88.86C189.598 88.86 190.578 89.1667 191.325 89.78C192.072 90.3933 192.472 91.2333 192.525 92.3H190.705C190.665 91.7267 190.432 91.2667 190.005 90.92C189.592 90.5733 189.032 90.4 188.325 90.4C187.672 90.4 187.152 90.54 186.765 90.82C186.378 91.1 186.185 91.4667 186.185 91.92C186.185 92.28 186.298 92.58 186.525 92.82C186.765 93.0467 187.058 93.2333 187.405 93.38C187.765 93.5133 188.258 93.6667 188.885 93.84C189.672 94.0533 190.312 94.2667 190.805 94.48C191.298 94.68 191.718 94.9867 192.065 95.4C192.425 95.8133 192.612 96.3533 192.625 97.02C192.625 97.62 192.458 98.16 192.125 98.64C191.792 99.12 191.318 99.5 190.705 99.78C190.105 100.047 189.412 100.18 188.625 100.18ZM199.846 94.5C199.846 93.3667 200.073 92.38 200.526 91.54C200.98 90.6867 201.606 90.0267 202.406 89.56C203.22 89.0933 204.146 88.86 205.186 88.86C206.533 88.86 207.64 89.1867 208.506 89.84C209.386 90.4933 209.966 91.4 210.246 92.56H208.286C208.1 91.8933 207.733 91.3667 207.186 90.98C206.653 90.5933 205.986 90.4 205.186 90.4C204.146 90.4 203.306 90.76 202.666 91.48C202.026 92.1867 201.706 93.1933 201.706 94.5C201.706 95.82 202.026 96.84 202.666 97.56C203.306 98.28 204.146 98.64 205.186 98.64C205.986 98.64 206.653 98.4533 207.186 98.08C207.72 97.7067 208.086 97.1733 208.286 96.48H210.246C209.953 97.6 209.366 98.5 208.486 99.18C207.606 99.8467 206.506 100.18 205.186 100.18C204.146 100.18 203.22 99.9467 202.406 99.48C201.606 99.0133 200.98 98.3533 200.526 97.5C200.073 96.6467 199.846 95.6467 199.846 94.5ZM217.455 100.18C216.428 100.18 215.495 99.9467 214.655 99.48C213.828 99.0133 213.175 98.3533 212.695 97.5C212.228 96.6333 211.995 95.6333 211.995 94.5C211.995 93.38 212.235 92.3933 212.715 91.54C213.208 90.6733 213.875 90.0133 214.715 89.56C215.555 89.0933 216.495 88.86 217.535 88.86C218.575 88.86 219.515 89.0933 220.355 89.56C221.195 90.0133 221.855 90.6667 222.335 91.52C222.828 92.3733 223.075 93.3667 223.075 94.5C223.075 95.6333 222.821 96.6333 222.315 97.5C221.821 98.3533 221.148 99.0133 220.295 99.48C219.441 99.9467 218.495 100.18 217.455 100.18ZM217.455 98.58C218.108 98.58 218.721 98.4267 219.295 98.12C219.868 97.8133 220.328 97.3533 220.675 96.74C221.035 96.1267 221.215 95.38 221.215 94.5C221.215 93.62 221.041 92.8733 220.695 92.26C220.348 91.6467 219.895 91.1933 219.335 90.9C218.775 90.5933 218.168 90.44 217.515 90.44C216.848 90.44 216.235 90.5933 215.675 90.9C215.128 91.1933 214.688 91.6467 214.355 92.26C214.021 92.8733 213.855 93.62 213.855 94.5C213.855 95.3933 214.015 96.1467 214.335 96.76C214.668 97.3733 215.108 97.8333 215.655 98.14C216.201 98.4333 216.801 98.58 217.455 98.58ZM224.788 94.48C224.788 93.36 225.014 92.38 225.468 91.54C225.921 90.6867 226.541 90.0267 227.328 89.56C228.128 89.0933 229.021 88.86 230.008 88.86C230.861 88.86 231.654 89.06 232.388 89.46C233.121 89.8467 233.681 90.36 234.068 91V85.2H235.908V100H234.068V97.94C233.708 98.5933 233.174 99.1333 232.468 99.56C231.761 99.9733 230.934 100.18 229.988 100.18C229.014 100.18 228.128 99.94 227.328 99.46C226.541 98.98 225.921 98.3067 225.468 97.44C225.014 96.5733 224.788 95.5867 224.788 94.48ZM234.068 94.5C234.068 93.6733 233.901 92.9533 233.568 92.34C233.234 91.7267 232.781 91.26 232.208 90.94C231.648 90.6067 231.028 90.44 230.348 90.44C229.668 90.44 229.048 90.6 228.488 90.92C227.928 91.24 227.481 91.7067 227.148 92.32C226.814 92.9333 226.648 93.6533 226.648 94.48C226.648 95.32 226.814 96.0533 227.148 96.68C227.481 97.2933 227.928 97.7667 228.488 98.1C229.048 98.42 229.668 98.58 230.348 98.58C231.028 98.58 231.648 98.42 232.208 98.1C232.781 97.7667 233.234 97.2933 233.568 96.68C233.901 96.0533 234.068 95.3267 234.068 94.5ZM239.923 87.26C239.577 87.26 239.283 87.14 239.043 86.9C238.803 86.66 238.683 86.3667 238.683 86.02C238.683 85.6733 238.803 85.38 239.043 85.14C239.283 84.9 239.577 84.78 239.923 84.78C240.257 84.78 240.537 84.9 240.763 85.14C241.003 85.38 241.123 85.6733 241.123 86.02C241.123 86.3667 241.003 86.66 240.763 86.9C240.537 87.14 240.257 87.26 239.923 87.26ZM240.803 89.04V100H238.983V89.04H240.803ZM249.245 88.84C250.579 88.84 251.659 89.2467 252.485 90.06C253.312 90.86 253.725 92.02 253.725 93.54V100H251.925V93.8C251.925 92.7067 251.652 91.8733 251.105 91.3C250.559 90.7133 249.812 90.42 248.865 90.42C247.905 90.42 247.139 90.72 246.565 91.32C246.005 91.92 245.725 92.7933 245.725 93.94V100H243.905V89.04H245.725V90.6C246.085 90.04 246.572 89.6067 247.185 89.3C247.812 88.9933 248.499 88.84 249.245 88.84ZM261.218 88.86C262.165 88.86 262.992 89.0667 263.698 89.48C264.418 89.8933 264.952 90.4133 265.298 91.04V89.04H267.138V100.24C267.138 101.24 266.925 102.127 266.498 102.9C266.072 103.687 265.458 104.3 264.658 104.74C263.872 105.18 262.952 105.4 261.898 105.4C260.458 105.4 259.258 105.06 258.298 104.38C257.338 103.7 256.772 102.773 256.598 101.6H258.398C258.598 102.267 259.012 102.8 259.638 103.2C260.265 103.613 261.018 103.82 261.898 103.82C262.898 103.82 263.712 103.507 264.338 102.88C264.978 102.253 265.298 101.373 265.298 100.24V97.94C264.938 98.58 264.405 99.1133 263.698 99.54C262.992 99.9667 262.165 100.18 261.218 100.18C260.245 100.18 259.358 99.94 258.558 99.46C257.772 98.98 257.152 98.3067 256.698 97.44C256.245 96.5733 256.018 95.5867 256.018 94.48C256.018 93.36 256.245 92.38 256.698 91.54C257.152 90.6867 257.772 90.0267 258.558 89.56C259.358 89.0933 260.245 88.86 261.218 88.86ZM265.298 94.5C265.298 93.6733 265.132 92.9533 264.798 92.34C264.465 91.7267 264.012 91.26 263.438 90.94C262.878 90.6067 262.258 90.44 261.578 90.44C260.898 90.44 260.278 90.6 259.718 90.92C259.158 91.24 258.712 91.7067 258.378 92.32C258.045 92.9333 257.878 93.6533 257.878 94.48C257.878 95.32 258.045 96.0533 258.378 96.68C258.712 97.2933 259.158 97.7667 259.718 98.1C260.278 98.42 260.898 98.58 261.578 98.58C262.258 98.58 262.878 98.42 263.438 98.1C264.012 97.7667 264.465 97.2933 264.798 96.68C265.132 96.0533 265.298 95.3267 265.298 94.5ZM270.794 100.12C270.447 100.12 270.154 100 269.914 99.76C269.674 99.52 269.554 99.2267 269.554 98.88C269.554 98.5333 269.674 98.24 269.914 98C270.154 97.76 270.447 97.64 270.794 97.64C271.127 97.64 271.407 97.76 271.634 98C271.874 98.24 271.994 98.5333 271.994 98.88C271.994 99.2267 271.874 99.52 271.634 99.76C271.407 100 271.127 100.12 270.794 100.12ZM281.565 86.06V100H279.745V86.06H281.565ZM284.947 86.06H286.967L285.047 90.6H283.767L284.947 86.06ZM288.362 94.48C288.362 93.36 288.589 92.38 289.042 91.54C289.495 90.6867 290.115 90.0267 290.902 89.56C291.702 89.0933 292.595 88.86 293.582 88.86C294.435 88.86 295.229 89.06 295.962 89.46C296.695 89.8467 297.255 90.36 297.642 91V85.2H299.482V100H297.642V97.94C297.282 98.5933 296.749 99.1333 296.042 99.56C295.335 99.9733 294.509 100.18 293.562 100.18C292.589 100.18 291.702 99.94 290.902 99.46C290.115 98.98 289.495 98.3067 289.042 97.44C288.589 96.5733 288.362 95.5867 288.362 94.48ZM297.642 94.5C297.642 93.6733 297.475 92.9533 297.142 92.34C296.809 91.7267 296.355 91.26 295.782 90.94C295.222 90.6067 294.602 90.44 293.922 90.44C293.242 90.44 292.622 90.6 292.062 90.92C291.502 91.24 291.055 91.7067 290.722 92.32C290.389 92.9333 290.222 93.6533 290.222 94.48C290.222 95.32 290.389 96.0533 290.722 96.68C291.055 97.2933 291.502 97.7667 292.062 98.1C292.622 98.42 293.242 98.58 293.922 98.58C294.602 98.58 295.222 98.42 295.782 98.1C296.355 97.7667 296.809 97.2933 297.142 96.68C297.475 96.0533 297.642 95.3267 297.642 94.5ZM68.8698 113.2V128H67.0498V113.2H68.8698ZM76.7516 128.18C75.725 128.18 74.7916 127.947 73.9516 127.48C73.125 127.013 72.4716 126.353 71.9916 125.5C71.525 124.633 71.2916 123.633 71.2916 122.5C71.2916 121.38 71.5316 120.393 72.0116 119.54C72.505 118.673 73.1716 118.013 74.0116 117.56C74.8516 117.093 75.7916 116.86 76.8316 116.86C77.8716 116.86 78.8116 117.093 79.6516 117.56C80.4916 118.013 81.1516 118.667 81.6316 119.52C82.125 120.373 82.3716 121.367 82.3716 122.5C82.3716 123.633 82.1183 124.633 81.6116 125.5C81.1183 126.353 80.445 127.013 79.5916 127.48C78.7383 127.947 77.7916 128.18 76.7516 128.18ZM76.7516 126.58C77.405 126.58 78.0183 126.427 78.5916 126.12C79.165 125.813 79.625 125.353 79.9716 124.74C80.3316 124.127 80.5116 123.38 80.5116 122.5C80.5116 121.62 80.3383 120.873 79.9916 120.26C79.645 119.647 79.1916 119.193 78.6316 118.9C78.0716 118.593 77.465 118.44 76.8116 118.44C76.145 118.44 75.5316 118.593 74.9716 118.9C74.425 119.193 73.985 119.647 73.6516 120.26C73.3183 120.873 73.1516 121.62 73.1516 122.5C73.1516 123.393 73.3116 124.147 73.6316 124.76C73.965 125.373 74.405 125.833 74.9516 126.14C75.4983 126.433 76.0983 126.58 76.7516 126.58ZM88.8446 126.32L92.2446 117.04H94.1846L89.8846 128H87.7646L83.4646 117.04H85.4246L88.8446 126.32ZM105.976 122.1C105.976 122.447 105.956 122.813 105.916 123.2H97.1555C97.2222 124.28 97.5889 125.127 98.2555 125.74C98.9355 126.34 99.7555 126.64 100.716 126.64C101.502 126.64 102.156 126.46 102.676 126.1C103.209 125.727 103.582 125.233 103.796 124.62H105.756C105.462 125.673 104.876 126.533 103.996 127.2C103.116 127.853 102.022 128.18 100.716 128.18C99.6755 128.18 98.7422 127.947 97.9155 127.48C97.1022 127.013 96.4622 126.353 95.9955 125.5C95.5289 124.633 95.2955 123.633 95.2955 122.5C95.2955 121.367 95.5222 120.373 95.9755 119.52C96.4289 118.667 97.0622 118.013 97.8755 117.56C98.7022 117.093 99.6489 116.86 100.716 116.86C101.756 116.86 102.676 117.087 103.476 117.54C104.276 117.993 104.889 118.62 105.316 119.42C105.756 120.207 105.976 121.1 105.976 122.1ZM104.096 121.72C104.096 121.027 103.942 120.433 103.636 119.94C103.329 119.433 102.909 119.053 102.376 118.8C101.856 118.533 101.276 118.4 100.636 118.4C99.7155 118.4 98.9289 118.693 98.2755 119.28C97.6355 119.867 97.2689 120.68 97.1755 121.72H104.096ZM115.93 118.54V125C115.93 125.533 116.043 125.913 116.27 126.14C116.497 126.353 116.89 126.46 117.45 126.46H118.79V128H117.15C116.137 128 115.377 127.767 114.87 127.3C114.363 126.833 114.11 126.067 114.11 125V118.54H112.69V117.04H114.11V114.28H115.93V117.04H118.79V118.54H115.93ZM125.775 128.18C124.748 128.18 123.815 127.947 122.975 127.48C122.148 127.013 121.495 126.353 121.015 125.5C120.548 124.633 120.315 123.633 120.315 122.5C120.315 121.38 120.555 120.393 121.035 119.54C121.528 118.673 122.195 118.013 123.035 117.56C123.875 117.093 124.815 116.86 125.855 116.86C126.895 116.86 127.835 117.093 128.675 117.56C129.515 118.013 130.175 118.667 130.655 119.52C131.148 120.373 131.395 121.367 131.395 122.5C131.395 123.633 131.142 124.633 130.635 125.5C130.142 126.353 129.468 127.013 128.615 127.48C127.762 127.947 126.815 128.18 125.775 128.18ZM125.775 126.58C126.428 126.58 127.042 126.427 127.615 126.12C128.188 125.813 128.648 125.353 128.995 124.74C129.355 124.127 129.535 123.38 129.535 122.5C129.535 121.62 129.362 120.873 129.015 120.26C128.668 119.647 128.215 119.193 127.655 118.9C127.095 118.593 126.488 118.44 125.835 118.44C125.168 118.44 124.555 118.593 123.995 118.9C123.448 119.193 123.008 119.647 122.675 120.26C122.342 120.873 122.175 121.62 122.175 122.5C122.175 123.393 122.335 124.147 122.655 124.76C122.988 125.373 123.428 125.833 123.975 126.14C124.522 126.433 125.122 126.58 125.775 126.58ZM144.56 116.84C145.387 116.84 146.133 117.02 146.8 117.38C147.467 117.727 147.987 118.253 148.36 118.96C148.747 119.667 148.94 120.527 148.94 121.54V128H147.14V121.8C147.14 120.707 146.867 119.873 146.32 119.3C145.773 118.713 145.027 118.42 144.08 118.42C143.12 118.42 142.353 118.72 141.78 119.32C141.22 119.92 140.94 120.793 140.94 121.94V128H139.12V113.2H140.94V118.6C141.3 118.04 141.793 117.607 142.42 117.3C143.06 116.993 143.773 116.84 144.56 116.84ZM161.913 122.1C161.913 122.447 161.893 122.813 161.853 123.2H153.093C153.16 124.28 153.526 125.127 154.193 125.74C154.873 126.34 155.693 126.64 156.653 126.64C157.44 126.64 158.093 126.46 158.613 126.1C159.146 125.727 159.52 125.233 159.733 124.62H161.693C161.4 125.673 160.813 126.533 159.933 127.2C159.053 127.853 157.96 128.18 156.653 128.18C155.613 128.18 154.68 127.947 153.853 127.48C153.04 127.013 152.4 126.353 151.933 125.5C151.466 124.633 151.233 123.633 151.233 122.5C151.233 121.367 151.46 120.373 151.913 119.52C152.366 118.667 153 118.013 153.813 117.56C154.64 117.093 155.586 116.86 156.653 116.86C157.693 116.86 158.613 117.087 159.413 117.54C160.213 117.993 160.826 118.62 161.253 119.42C161.693 120.207 161.913 121.1 161.913 122.1ZM160.033 121.72C160.033 121.027 159.88 120.433 159.573 119.94C159.266 119.433 158.846 119.053 158.313 118.8C157.793 118.533 157.213 118.4 156.573 118.4C155.653 118.4 154.866 118.693 154.213 119.28C153.573 119.867 153.206 120.68 153.113 121.72H160.033ZM166.135 113.2V128H164.315V113.2H166.135ZM171.057 119.06C171.417 118.433 171.951 117.913 172.657 117.5C173.377 117.073 174.211 116.86 175.157 116.86C176.131 116.86 177.011 117.093 177.797 117.56C178.597 118.027 179.224 118.687 179.677 119.54C180.131 120.38 180.357 121.36 180.357 122.48C180.357 123.587 180.131 124.573 179.677 125.44C179.224 126.307 178.597 126.98 177.797 127.46C177.011 127.94 176.131 128.18 175.157 128.18C174.224 128.18 173.397 127.973 172.677 127.56C171.971 127.133 171.431 126.607 171.057 125.98V133.2H169.237V117.04H171.057V119.06ZM178.497 122.48C178.497 121.653 178.331 120.933 177.997 120.32C177.664 119.707 177.211 119.24 176.637 118.92C176.077 118.6 175.457 118.44 174.777 118.44C174.111 118.44 173.491 118.607 172.917 118.94C172.357 119.26 171.904 119.733 171.557 120.36C171.224 120.973 171.057 121.687 171.057 122.5C171.057 123.327 171.224 124.053 171.557 124.68C171.904 125.293 172.357 125.767 172.917 126.1C173.491 126.42 174.111 126.58 174.777 126.58C175.457 126.58 176.077 126.42 176.637 126.1C177.211 125.767 177.664 125.293 177.997 124.68C178.331 124.053 178.497 123.32 178.497 122.48ZM202.685 117.04L199.265 128H197.385L194.745 119.3L192.105 128H190.225L186.785 117.04H188.645L191.165 126.24L193.885 117.04H195.745L198.405 126.26L200.885 117.04H202.685ZM205.431 115.26C205.085 115.26 204.791 115.14 204.551 114.9C204.311 114.66 204.191 114.367 204.191 114.02C204.191 113.673 204.311 113.38 204.551 113.14C204.791 112.9 205.085 112.78 205.431 112.78C205.765 112.78 206.045 112.9 206.271 113.14C206.511 113.38 206.631 113.673 206.631 114.02C206.631 114.367 206.511 114.66 206.271 114.9C206.045 115.14 205.765 115.26 205.431 115.26ZM206.311 117.04V128H204.491V117.04H206.311ZM211.633 118.54V125C211.633 125.533 211.746 125.913 211.973 126.14C212.2 126.353 212.593 126.46 213.153 126.46H214.493V128H212.853C211.84 128 211.08 127.767 210.573 127.3C210.066 126.833 209.813 126.067 209.813 125V118.54H208.393V117.04H209.813V114.28H211.633V117.04H214.493V118.54H211.633ZM222.138 116.84C222.965 116.84 223.712 117.02 224.378 117.38C225.045 117.727 225.565 118.253 225.938 118.96C226.325 119.667 226.518 120.527 226.518 121.54V128H224.718V121.8C224.718 120.707 224.445 119.873 223.898 119.3C223.352 118.713 222.605 118.42 221.658 118.42C220.698 118.42 219.932 118.72 219.358 119.32C218.798 119.92 218.518 120.793 218.518 121.94V128H216.698V113.2H218.518V118.6C218.878 118.04 219.372 117.607 219.998 117.3C220.638 116.993 221.352 116.84 222.138 116.84ZM235.763 115.26C235.417 115.26 235.123 115.14 234.883 114.9C234.643 114.66 234.523 114.367 234.523 114.02C234.523 113.673 234.643 113.38 234.883 113.14C235.123 112.9 235.417 112.78 235.763 112.78C236.097 112.78 236.377 112.9 236.603 113.14C236.843 113.38 236.963 113.673 236.963 114.02C236.963 114.367 236.843 114.66 236.603 114.9C236.377 115.14 236.097 115.26 235.763 115.26ZM236.643 117.04V128H234.823V117.04H236.643ZM241.965 118.54V125C241.965 125.533 242.078 125.913 242.305 126.14C242.532 126.353 242.925 126.46 243.485 126.46H244.825V128H243.185C242.172 128 241.412 127.767 240.905 127.3C240.398 126.833 240.145 126.067 240.145 125V118.54H238.725V117.04H240.145V114.28H241.965V117.04H244.825V118.54H241.965Z" fill="#EBEBFF"/>
</svg>
