<svg width="89" height="27" viewBox="0 0 89 27" fill="none" xmlns="http://www.w3.org/2000/svg">
<path d="M18.144 3.376V7.728H12V26H6.496V7.728H0.416V3.376H18.144ZM28.8025 7.92C30.5732 7.92 32.1518 8.29333 33.5385 9.04C34.9465 9.76533 36.0452 10.8213 36.8345 12.208C37.6452 13.5947 38.0505 15.216 38.0505 17.072C38.0505 18.928 37.6452 20.5493 36.8345 21.936C36.0452 23.3227 34.9465 24.3893 33.5385 25.136C32.1518 25.8613 30.5732 26.224 28.8025 26.224C27.0318 26.224 25.4425 25.8613 24.0345 25.136C22.6265 24.3893 21.5172 23.3227 20.7065 21.936C19.9172 20.5493 19.5225 18.928 19.5225 17.072C19.5225 15.216 19.9172 13.5947 20.7065 12.208C21.5172 10.8213 22.6265 9.76533 24.0345 9.04C25.4425 8.29333 27.0318 7.92 28.8025 7.92ZM28.8025 12.656C27.7572 12.656 26.8718 13.04 26.1465 13.808C25.4425 14.5547 25.0905 15.6427 25.0905 17.072C25.0905 18.5013 25.4425 19.5893 26.1465 20.336C26.8718 21.0827 27.7572 21.456 28.8025 21.456C29.8478 21.456 30.7225 21.0827 31.4265 20.336C32.1305 19.5893 32.4825 18.5013 32.4825 17.072C32.4825 15.6427 32.1305 14.5547 31.4265 13.808C30.7225 13.04 29.8478 12.656 28.8025 12.656ZM52.216 7.952C54.264 7.952 55.8853 8.63467 57.08 10C58.296 11.3653 58.904 13.2427 58.904 15.632V26H53.432V16.272C53.432 15.0773 53.112 14.1493 52.472 13.488C51.8533 12.8053 51.0213 12.464 49.976 12.464C48.8667 12.464 47.9813 12.816 47.32 13.52C46.68 14.224 46.36 15.2267 46.36 16.528V26H40.888V8.144H46.36V11.408C46.872 10.3413 47.6293 9.49867 48.632 8.88C49.656 8.26133 50.8507 7.952 52.216 7.952ZM62.001 3.12C62.001 2.288 62.2997 1.60533 62.897 1.072C63.4943 0.517331 64.2837 0.239998 65.265 0.239998C66.2463 0.239998 67.0357 0.517331 67.633 1.072C68.2303 1.60533 68.529 2.288 68.529 3.12C68.529 3.93067 68.2303 4.61333 67.633 5.168C67.0357 5.70133 66.2463 5.968 65.265 5.968C64.2837 5.968 63.4943 5.70133 62.897 5.168C62.2997 4.61333 62.001 3.93067 62.001 3.12ZM67.985 8.144V26H62.513V8.144H67.985ZM79.827 7.92C82.131 7.92 84.0617 8.56 85.619 9.84C87.1763 11.0987 88.1577 12.8373 88.563 15.056H82.771C82.6003 14.288 82.2483 13.6907 81.715 13.264C81.1817 12.8373 80.5097 12.624 79.699 12.624C78.739 12.624 77.9497 13.008 77.331 13.776C76.7123 14.5227 76.403 15.6213 76.403 17.072C76.403 18.5227 76.7123 19.632 77.331 20.4C77.9497 21.1467 78.739 21.52 79.699 21.52C80.5097 21.52 81.1817 21.3067 81.715 20.88C82.2483 20.4533 82.6003 19.856 82.771 19.088H88.563C88.1577 21.3067 87.1763 23.056 85.619 24.336C84.0617 25.5947 82.131 26.224 79.827 26.224C78.0777 26.224 76.5203 25.8613 75.155 25.136C73.811 24.3893 72.755 23.3227 71.987 21.936C71.219 20.5493 70.835 18.928 70.835 17.072C70.835 15.1947 71.2083 13.5733 71.955 12.208C72.723 10.8213 73.7897 9.76533 75.155 9.04C76.5203 8.29333 78.0777 7.92 79.827 7.92Z" fill="#172B4D"/>
</svg>
