<svg width="169" height="71" viewBox="0 0 169 71" fill="none" xmlns="http://www.w3.org/2000/svg">
<path d="M26.328 3.536V26H20.856V11.952L15.992 26H11.256L6.36 11.92V26H0.888V3.536H7.576L13.688 19.184L19.672 3.536H26.328ZM47.8668 8.144V26H42.3628V22.768C41.8508 23.8133 41.0828 24.6453 40.0588 25.264C39.0561 25.8827 37.8828 26.192 36.5388 26.192C34.4908 26.192 32.8588 25.5093 31.6428 24.144C30.4481 22.7787 29.8508 20.9013 29.8508 18.512V8.144H35.2908V17.84C35.2908 19.056 35.6001 20.0053 36.2188 20.688C36.8588 21.3493 37.7121 21.68 38.7788 21.68C39.8881 21.68 40.7628 21.328 41.4028 20.624C42.0428 19.92 42.3628 18.9173 42.3628 17.616V8.144H47.8668ZM57.11 2.32V26H51.638V2.32H57.11ZM71 21.296V26H68.536C66.4453 26 64.8133 25.488 63.64 24.464C62.488 23.4187 61.912 21.7013 61.912 19.312V12.752H59.512V8.144H61.912V3.76H67.384V8.144H70.968V12.752H67.384V19.408C67.384 20.112 67.5227 20.6027 67.8 20.88C68.0987 21.1573 68.5893 21.296 69.272 21.296H71ZM73.5635 3.12C73.5635 2.288 73.8622 1.60533 74.4595 1.072C75.0568 0.517331 75.8462 0.239998 76.8275 0.239998C77.8088 0.239998 78.5982 0.517331 79.1955 1.072C79.7928 1.60533 80.0915 2.288 80.0915 3.12C80.0915 3.93067 79.7928 4.61333 79.1955 5.168C78.5982 5.70133 77.8088 5.968 76.8275 5.968C75.8462 5.968 75.0568 5.70133 74.4595 5.168C73.8622 4.61333 73.5635 3.93067 73.5635 3.12ZM79.5475 8.144V26H74.0755V8.144H79.5475ZM95.7415 12.496V17.04H81.6295V12.496H95.7415ZM106.173 18.064V26H100.701V3.376H109.565C112.253 3.376 114.301 4.048 115.708 5.392C117.117 6.71467 117.821 8.50667 117.821 10.768C117.821 12.176 117.501 13.4347 116.861 14.544C116.242 15.632 115.314 16.496 114.077 17.136C112.839 17.7547 111.335 18.064 109.565 18.064H106.173ZM108.957 13.68C111.154 13.68 112.253 12.7093 112.253 10.768C112.253 8.784 111.154 7.792 108.957 7.792H106.173V13.68H108.957ZM128.865 7.92C130.636 7.92 132.214 8.29333 133.601 9.04C135.009 9.76533 136.108 10.8213 136.897 12.208C137.708 13.5947 138.113 15.216 138.113 17.072C138.113 18.928 137.708 20.5493 136.897 21.936C136.108 23.3227 135.009 24.3893 133.601 25.136C132.214 25.8613 130.636 26.224 128.865 26.224C127.094 26.224 125.505 25.8613 124.097 25.136C122.689 24.3893 121.58 23.3227 120.769 21.936C119.98 20.5493 119.585 18.928 119.585 17.072C119.585 15.216 119.98 13.5947 120.769 12.208C121.58 10.8213 122.689 9.76533 124.097 9.04C125.505 8.29333 127.094 7.92 128.865 7.92ZM128.865 12.656C127.82 12.656 126.934 13.04 126.209 13.808C125.505 14.5547 125.153 15.6427 125.153 17.072C125.153 18.5013 125.505 19.5893 126.209 20.336C126.934 21.0827 127.82 21.456 128.865 21.456C129.91 21.456 130.785 21.0827 131.489 20.336C132.193 19.5893 132.545 18.5013 132.545 17.072C132.545 15.6427 132.193 14.5547 131.489 13.808C130.785 13.04 129.91 12.656 128.865 12.656ZM147.447 7.92C149.708 7.92 151.511 8.48533 152.855 9.616C154.22 10.7467 155.073 12.24 155.415 14.096H150.295C150.145 13.3707 149.804 12.8053 149.271 12.4C148.759 11.9733 148.108 11.76 147.319 11.76C146.7 11.76 146.231 11.8987 145.911 12.176C145.591 12.432 145.431 12.8053 145.431 13.296C145.431 13.8507 145.719 14.2667 146.295 14.544C146.892 14.8213 147.82 15.0987 149.079 15.376C150.444 15.696 151.564 16.0267 152.439 16.368C153.313 16.688 154.071 17.2213 154.711 17.968C155.351 18.7147 155.671 19.7173 155.671 20.976C155.671 22 155.393 22.9067 154.839 23.696C154.284 24.4853 153.484 25.104 152.439 25.552C151.393 26 150.156 26.224 148.727 26.224C146.316 26.224 144.385 25.6907 142.935 24.624C141.484 23.5573 140.599 22.032 140.279 20.048H145.559C145.644 20.816 145.964 21.4027 146.519 21.808C147.095 22.2133 147.831 22.416 148.727 22.416C149.345 22.416 149.815 22.2773 150.135 22C150.455 21.7013 150.615 21.3173 150.615 20.848C150.615 20.2293 150.316 19.792 149.719 19.536C149.143 19.2587 148.193 18.9707 146.871 18.672C145.548 18.3947 144.46 18.096 143.607 17.776C142.753 17.456 142.017 16.944 141.399 16.24C140.78 15.5147 140.471 14.5333 140.471 13.296C140.471 11.696 141.079 10.4053 142.295 9.424C143.511 8.42133 145.228 7.92 147.447 7.92ZM168.813 21.296V26H166.349C164.258 26 162.626 25.488 161.453 24.464C160.301 23.4187 159.725 21.7013 159.725 19.312V12.752H157.325V8.144H159.725V3.76H165.197V8.144H168.781V12.752H165.197V19.408C165.197 20.112 165.335 20.6027 165.613 20.88C165.911 21.1573 166.402 21.296 167.085 21.296H168.813ZM17.144 63.632C17.144 64.8267 16.8347 65.9253 16.216 66.928C15.6187 67.9307 14.7227 68.7307 13.528 69.328C12.3547 69.9253 10.9253 70.224 9.24 70.224C6.70133 70.224 4.61067 69.6053 2.968 68.368C1.32533 67.1307 0.429333 65.4027 0.28 63.184H6.104C6.18933 64.0373 6.488 64.7093 7 65.2C7.53333 65.6907 8.20533 65.936 9.016 65.936C9.72 65.936 10.2747 65.744 10.68 65.36C11.0853 64.976 11.288 64.464 11.288 63.824C11.288 63.248 11.096 62.768 10.712 62.384C10.3493 62 9.89067 61.6907 9.336 61.456C8.78133 61.2 8.01333 60.9013 7.032 60.56C5.60267 60.0693 4.42933 59.6 3.512 59.152C2.616 58.6827 1.83733 58 1.176 57.104C0.536 56.1867 0.216 55.0027 0.216 53.552C0.216 52.208 0.557333 51.0453 1.24 50.064C1.92267 49.0827 2.86133 48.336 4.056 47.824C5.272 47.2907 6.65867 47.024 8.216 47.024C10.7333 47.024 12.728 47.6213 14.2 48.816C15.6933 50.0107 16.536 51.6533 16.728 53.744H10.808C10.7013 52.9973 10.424 52.4107 9.976 51.984C9.54933 51.536 8.96267 51.312 8.216 51.312C7.576 51.312 7.05333 51.4827 6.648 51.824C6.264 52.1653 6.072 52.6667 6.072 53.328C6.072 53.8613 6.24267 54.32 6.584 54.704C6.94667 55.0667 7.39467 55.3653 7.928 55.6C8.46133 55.8347 9.22933 56.1333 10.232 56.496C11.6827 56.9867 12.8667 57.4773 13.784 57.968C14.7013 58.4373 15.4907 59.1307 16.152 60.048C16.8133 60.9653 17.144 62.16 17.144 63.632ZM30.2813 65.296V70H27.8173C25.7266 70 24.0946 69.488 22.9213 68.464C21.7693 67.4187 21.1933 65.7013 21.1933 63.312V56.752H18.7933V52.144H21.1933V47.76H26.6653V52.144H30.2493V56.752H26.6653V63.408C26.6653 64.112 26.8039 64.6027 27.0813 64.88C27.3799 65.1573 27.8706 65.296 28.5533 65.296H30.2813ZM41.7088 51.92C43.4794 51.92 45.0581 52.2933 46.4448 53.04C47.8528 53.7653 48.9514 54.8213 49.7408 56.208C50.5514 57.5947 50.9568 59.216 50.9568 61.072C50.9568 62.928 50.5514 64.5493 49.7408 65.936C48.9514 67.3227 47.8528 68.3893 46.4448 69.136C45.0581 69.8613 43.4794 70.224 41.7088 70.224C39.9381 70.224 38.3488 69.8613 36.9408 69.136C35.5328 68.3893 34.4234 67.3227 33.6128 65.936C32.8234 64.5493 32.4288 62.928 32.4288 61.072C32.4288 59.216 32.8234 57.5947 33.6128 56.208C34.4234 54.8213 35.5328 53.7653 36.9408 53.04C38.3488 52.2933 39.9381 51.92 41.7088 51.92ZM41.7088 56.656C40.6634 56.656 39.7781 57.04 39.0528 57.808C38.3488 58.5547 37.9968 59.6427 37.9968 61.072C37.9968 62.5013 38.3488 63.5893 39.0528 64.336C39.7781 65.0827 40.6634 65.456 41.7088 65.456C42.7541 65.456 43.6288 65.0827 44.3328 64.336C45.0368 63.5893 45.3888 62.5013 45.3888 61.072C45.3888 59.6427 45.0368 58.5547 44.3328 57.808C43.6288 57.04 42.7541 56.656 41.7088 56.656ZM59.2663 55.504C59.9489 54.416 60.8236 53.552 61.8903 52.912C62.9783 52.272 64.1516 51.952 65.4103 51.952V57.808H63.8423C62.3916 57.808 61.2609 58.1173 60.4503 58.736C59.6609 59.3547 59.2663 60.4 59.2663 61.872V70H53.7943V52.144H59.2663V55.504ZM67.1885 47.12C67.1885 46.288 67.4872 45.6053 68.0845 45.072C68.6818 44.5173 69.4712 44.24 70.4525 44.24C71.4338 44.24 72.2232 44.5173 72.8205 45.072C73.4178 45.6053 73.7165 46.288 73.7165 47.12C73.7165 47.9307 73.4178 48.6133 72.8205 49.168C72.2232 49.7013 71.4338 49.968 70.4525 49.968C69.4712 49.968 68.6818 49.7013 68.0845 49.168C67.4872 48.6133 67.1885 47.9307 67.1885 47.12ZM73.1725 52.144V70H67.7005V52.144H73.1725ZM93.9105 60.592C93.9105 61.04 93.8572 61.5307 93.7505 62.064H81.3665C81.4305 63.408 81.7718 64.3787 82.3905 64.976C83.0092 65.552 83.7985 65.84 84.7585 65.84C85.5692 65.84 86.2412 65.6373 86.7745 65.232C87.3078 64.8267 87.6598 64.304 87.8305 63.664H93.6225C93.3878 64.9227 92.8758 66.0533 92.0865 67.056C91.2972 68.0373 90.2945 68.816 89.0785 69.392C87.8625 69.9467 86.5078 70.224 85.0145 70.224C83.2652 70.224 81.7078 69.8613 80.3425 69.136C78.9985 68.3893 77.9425 67.3227 77.1745 65.936C76.4065 64.5493 76.0225 62.928 76.0225 61.072C76.0225 59.1947 76.3958 57.5733 77.1425 56.208C77.9105 54.8213 78.9772 53.7653 80.3425 53.04C81.7078 52.2933 83.2652 51.92 85.0145 51.92C86.7852 51.92 88.3425 52.2827 89.6865 53.008C91.0305 53.7333 92.0652 54.7573 92.7905 56.08C93.5372 57.3813 93.9105 58.8853 93.9105 60.592ZM88.3745 59.76C88.3958 58.5867 88.0758 57.712 87.4145 57.136C86.7745 56.5387 85.9745 56.24 85.0145 56.24C84.0118 56.24 83.1798 56.5387 82.5185 57.136C81.8572 57.7333 81.4838 58.608 81.3985 59.76H88.3745ZM103.259 51.92C105.52 51.92 107.323 52.4853 108.667 53.616C110.032 54.7467 110.886 56.24 111.227 58.096H106.107C105.958 57.3707 105.616 56.8053 105.083 56.4C104.571 55.9733 103.92 55.76 103.131 55.76C102.512 55.76 102.043 55.8987 101.723 56.176C101.403 56.432 101.243 56.8053 101.243 57.296C101.243 57.8507 101.531 58.2667 102.107 58.544C102.704 58.8213 103.632 59.0987 104.891 59.376C106.256 59.696 107.376 60.0267 108.251 60.368C109.126 60.688 109.883 61.2213 110.523 61.968C111.163 62.7147 111.483 63.7173 111.483 64.976C111.483 66 111.206 66.9067 110.651 67.696C110.096 68.4853 109.296 69.104 108.251 69.552C107.206 70 105.968 70.224 104.539 70.224C102.128 70.224 100.198 69.6907 98.747 68.624C97.2963 67.5573 96.411 66.032 96.091 64.048H101.371C101.456 64.816 101.776 65.4027 102.331 65.808C102.907 66.2133 103.643 66.416 104.539 66.416C105.158 66.416 105.627 66.2773 105.947 66C106.267 65.7013 106.427 65.3173 106.427 64.848C106.427 64.2293 106.128 63.792 105.531 63.536C104.955 63.2587 104.006 62.9707 102.683 62.672C101.36 62.3947 100.272 62.096 99.419 61.776C98.5657 61.456 97.8297 60.944 97.211 60.24C96.5923 59.5147 96.283 58.5333 96.283 57.296C96.283 55.696 96.891 54.4053 98.107 53.424C99.323 52.4213 101.04 51.92 103.259 51.92Z" fill="#172B4D"/>
</svg>
