<svg width="88" height="32" viewBox="0 0 88 32" fill="none" xmlns="http://www.w3.org/2000/svg">
<path d="M5.954 16.268C6.50867 16.3807 6.95067 16.645 7.28 17.061C7.618 17.4683 7.787 17.9493 7.787 18.504C7.787 19.2753 7.527 19.8863 7.007 20.337C6.49567 20.779 5.75033 21 4.771 21H0.832V11.822H4.693C5.62033 11.822 6.331 12.0257 6.825 12.433C7.32767 12.8403 7.579 13.4123 7.579 14.149C7.579 14.721 7.42733 15.189 7.124 15.553C6.82933 15.917 6.43933 16.1553 5.954 16.268ZM2.665 15.67H4.316C4.77533 15.67 5.122 15.5703 5.356 15.371C5.59867 15.163 5.72 14.8683 5.72 14.487C5.72 14.1057 5.603 13.811 5.369 13.603C5.135 13.395 4.77533 13.291 4.29 13.291H2.665V15.67ZM4.407 19.505C4.89233 19.505 5.265 19.401 5.525 19.193C5.785 18.9763 5.915 18.6643 5.915 18.257C5.915 17.8497 5.78067 17.5377 5.512 17.321C5.252 17.0957 4.87933 16.983 4.394 16.983H2.665V19.505H4.407ZM11.8923 13.707C12.4989 13.707 13.0189 13.85 13.4523 14.136C13.8856 14.422 14.1933 14.8077 14.3753 15.293V13.798H16.1953V21H14.3753V19.492C14.1933 19.9773 13.8856 20.3673 13.4523 20.662C13.0189 20.948 12.4989 21.091 11.8923 21.091C11.2856 21.091 10.7396 20.9437 10.2543 20.649C9.76892 20.3543 9.38759 19.9297 9.11026 19.375C8.84159 18.8117 8.70726 18.153 8.70726 17.399C8.70726 16.645 8.84159 15.9907 9.11026 15.436C9.38759 14.8727 9.76892 14.4437 10.2543 14.149C10.7396 13.8543 11.2856 13.707 11.8923 13.707ZM12.4643 15.306C11.8923 15.306 11.4329 15.4923 11.0863 15.865C10.7396 16.2377 10.5663 16.749 10.5663 17.399C10.5663 18.049 10.7396 18.5603 11.0863 18.933C11.4329 19.297 11.8923 19.479 12.4643 19.479C13.0189 19.479 13.4739 19.2927 13.8293 18.92C14.1933 18.5387 14.3753 18.0317 14.3753 17.399C14.3753 16.7577 14.1933 16.2507 13.8293 15.878C13.4739 15.4967 13.0189 15.306 12.4643 15.306ZM21.0934 13.707C22.0207 13.707 22.7921 13.9583 23.4074 14.461C24.0314 14.9637 24.4214 15.6483 24.5774 16.515H22.6404C22.5624 16.1337 22.3847 15.8347 22.1074 15.618C21.8301 15.3927 21.4791 15.28 21.0544 15.28C20.5691 15.28 20.1617 15.462 19.8324 15.826C19.5117 16.1813 19.3514 16.7057 19.3514 17.399C19.3514 18.0923 19.5117 18.621 19.8324 18.985C20.1617 19.3403 20.5691 19.518 21.0544 19.518C21.4791 19.518 21.8301 19.4097 22.1074 19.193C22.3847 18.9677 22.5624 18.6643 22.6404 18.283H24.5774C24.4214 19.1497 24.0314 19.8343 23.4074 20.337C22.7921 20.8397 22.0207 21.091 21.0934 21.091C20.3914 21.091 19.7674 20.9437 19.2214 20.649C18.6754 20.3457 18.2507 19.9167 17.9474 19.362C17.6441 18.8073 17.4924 18.153 17.4924 17.399C17.4924 16.645 17.6441 15.9907 17.9474 15.436C18.2507 14.8727 18.6754 14.4437 19.2214 14.149C19.7674 13.8543 20.3914 13.707 21.0934 13.707ZM30.0919 21L27.7129 17.854V21H25.8799V11.38H27.7129V16.788L30.0789 13.798H32.2499L29.2209 17.386L32.3279 21H30.0919ZM37.8818 13.278V15.657H41.1318V17.061H37.8818V19.531H41.5218V21H36.0488V11.822H41.5218V13.278H37.8818ZM47.1689 13.694C48.0009 13.694 48.6639 13.967 49.1579 14.513C49.6519 15.059 49.8989 15.826 49.8989 16.814V21H48.0789V17.022C48.0789 16.45 47.9315 16.008 47.6369 15.696C47.3422 15.3753 46.9392 15.215 46.4279 15.215C45.9079 15.215 45.4919 15.384 45.1799 15.722C44.8679 16.06 44.7119 16.5453 44.7119 17.178V21H42.8789V13.798H44.7119V15.241C44.9025 14.7557 45.2145 14.3787 45.6479 14.11C46.0899 13.8327 46.5969 13.694 47.1689 13.694ZM54.3327 13.707C54.9394 13.707 55.455 13.85 55.8797 14.136C56.313 14.422 56.625 14.8077 56.8157 15.293V11.38H58.6357V21H56.8157V19.492C56.625 19.9773 56.313 20.3673 55.8797 20.662C55.455 20.948 54.9394 21.091 54.3327 21.091C53.726 21.091 53.18 20.9437 52.6947 20.649C52.2094 20.3543 51.828 19.9297 51.5507 19.375C51.282 18.8117 51.1477 18.153 51.1477 17.399C51.1477 16.645 51.282 15.9907 51.5507 15.436C51.828 14.8727 52.2094 14.4437 52.6947 14.149C53.18 13.8543 53.726 13.707 54.3327 13.707ZM54.9047 15.306C54.3327 15.306 53.8734 15.4923 53.5267 15.865C53.18 16.2377 53.0067 16.749 53.0067 17.399C53.0067 18.049 53.18 18.5603 53.5267 18.933C53.8734 19.297 54.3327 19.479 54.9047 19.479C55.4594 19.479 55.9144 19.2927 56.2697 18.92C56.6337 18.5387 56.8157 18.0317 56.8157 17.399C56.8157 16.7577 56.6337 16.2507 56.2697 15.878C55.9144 15.4967 55.4594 15.306 54.9047 15.306ZM71.2009 16.398C71.2009 17.308 71.0102 18.1097 70.6289 18.803C70.2476 19.4963 69.6929 20.038 68.9649 20.428C68.2456 20.8093 67.3876 21 66.3909 21H63.1279V11.822H66.3909C67.3876 11.822 68.2456 12.0127 68.9649 12.394C69.6929 12.7667 70.2476 13.2997 70.6289 13.993C71.0102 14.6777 71.2009 15.4793 71.2009 16.398ZM66.2349 19.362C67.2229 19.362 67.9856 19.102 68.5229 18.582C69.0689 18.062 69.3419 17.334 69.3419 16.398C69.3419 15.4533 69.0689 14.721 68.5229 14.201C67.9856 13.681 67.2229 13.421 66.2349 13.421H64.9609V19.362H66.2349ZM79.3462 17.126C79.3462 17.308 79.3245 17.516 79.2812 17.75H74.0032C74.0292 18.3913 74.2025 18.8637 74.5232 19.167C74.8439 19.4703 75.2425 19.622 75.7192 19.622C76.1439 19.622 76.4949 19.518 76.7722 19.31C77.0582 19.102 77.2402 18.8203 77.3182 18.465H79.2552C79.1599 18.9677 78.9562 19.4183 78.6442 19.817C78.3322 20.2157 77.9292 20.5277 77.4352 20.753C76.9499 20.9783 76.4082 21.091 75.8102 21.091C75.1082 21.091 74.4842 20.9437 73.9382 20.649C73.3922 20.3457 72.9675 19.9167 72.6642 19.362C72.3609 18.8073 72.2092 18.153 72.2092 17.399C72.2092 16.645 72.3609 15.9907 72.6642 15.436C72.9675 14.8727 73.3922 14.4437 73.9382 14.149C74.4842 13.8543 75.1082 13.707 75.8102 13.707C76.5209 13.707 77.1405 13.8543 77.6692 14.149C78.2065 14.4437 78.6182 14.851 78.9042 15.371C79.1989 15.8823 79.3462 16.4673 79.3462 17.126ZM77.5002 16.944C77.5262 16.3547 77.3702 15.9083 77.0322 15.605C76.7029 15.3017 76.2955 15.15 75.8102 15.15C75.3162 15.15 74.9002 15.3017 74.5622 15.605C74.2242 15.9083 74.0379 16.3547 74.0032 16.944H77.5002ZM83.7804 19.167L85.6004 13.798H87.5504L84.8854 21H82.6494L79.9844 13.798H81.9474L83.7804 19.167Z" fill="#7A869A"/>
</svg>
