<svg width="29" height="13" viewBox="0 0 29 13" fill="none" xmlns="http://www.w3.org/2000/svg">
<path d="M2.196 3.684C2.42 3.252 2.74 2.912 3.156 2.664C3.572 2.408 4.052 2.28 4.596 2.28V3.768H4.188C3.588 3.768 3.104 3.916 2.736 4.212C2.376 4.5 2.196 4.98 2.196 5.652V9H0.828V2.388H2.196V3.684ZM12.077 2.388V9H10.697V7.56C10.529 8.048 10.237 8.428 9.82097 8.7C9.40497 8.964 8.92097 9.096 8.36897 9.096C7.60097 9.096 6.98497 8.848 6.52097 8.352C6.05697 7.856 5.82497 7.148 5.82497 6.228V2.388H7.19297V6.084C7.19297 6.684 7.34497 7.148 7.64897 7.476C7.95297 7.796 8.36897 7.956 8.89697 7.956C9.44097 7.956 9.87697 7.78 10.205 7.428C10.533 7.076 10.697 6.564 10.697 5.892V2.388H12.077ZM17.8673 2.304C18.4433 2.304 18.9553 2.44 19.4033 2.712C19.8593 2.984 20.2153 3.376 20.4713 3.888C20.7273 4.4 20.8553 5 20.8553 5.688C20.8553 6.384 20.7273 6.988 20.4713 7.5C20.2153 8.012 19.8593 8.404 19.4033 8.676C18.9553 8.948 18.4433 9.084 17.8673 9.084C17.2673 9.084 16.7553 8.936 16.3313 8.64C15.9073 8.344 15.6113 7.952 15.4433 7.464V9H14.0753V0.12H15.4433V3.924C15.6113 3.436 15.9073 3.044 16.3313 2.748C16.7553 2.452 17.2673 2.304 17.8673 2.304ZM17.4473 3.504C17.0633 3.504 16.7193 3.596 16.4153 3.78C16.1113 3.956 15.8713 4.212 15.6953 4.548C15.5193 4.876 15.4313 5.256 15.4313 5.688C15.4313 6.128 15.5193 6.512 15.6953 6.84C15.8713 7.168 16.1113 7.424 16.4153 7.608C16.7193 7.784 17.0633 7.872 17.4473 7.872C18.0553 7.872 18.5433 7.68 18.9113 7.296C19.2793 6.904 19.4633 6.368 19.4633 5.688C19.4633 5.016 19.2793 4.484 18.9113 4.092C18.5433 3.7 18.0553 3.504 17.4473 3.504ZM23.313 2.388L25.293 7.248L27.129 2.388H28.653L24.657 12.144H23.133L24.561 8.844L21.777 2.388H23.313Z" fill="#6070FF"/>
</svg>
