<svg width="93" height="24" viewBox="0 0 93 24" fill="none" xmlns="http://www.w3.org/2000/svg">
<rect width="93" height="24" rx="8" fill="#EBEBFF"/>
<path d="M17.244 11.632C17.756 11.736 18.168 11.98 18.48 12.364C18.8 12.748 18.96 13.196 18.96 13.708C18.96 14.412 18.724 14.972 18.252 15.388C17.78 15.796 17.096 16 16.2 16H12.828V7.528H16.14C16.988 7.528 17.636 7.72 18.084 8.104C18.54 8.48 18.768 9 18.768 9.664C18.768 10.2 18.628 10.636 18.348 10.972C18.068 11.3 17.7 11.52 17.244 11.632ZM14.196 11.176H15.888C16.368 11.176 16.732 11.064 16.98 10.84C17.236 10.616 17.364 10.304 17.364 9.904C17.364 9.512 17.236 9.204 16.98 8.98C16.732 8.756 16.352 8.644 15.84 8.644H14.196V11.176ZM15.924 14.872C16.444 14.872 16.844 14.756 17.124 14.524C17.412 14.284 17.556 13.952 17.556 13.528C17.556 13.104 17.412 12.772 17.124 12.532C16.836 12.292 16.432 12.172 15.912 12.172H14.196V14.872H15.924ZM23.63 9.304C24.27 9.304 24.846 9.44 25.358 9.712C25.87 9.984 26.27 10.376 26.558 10.888C26.846 11.4 26.99 12 26.99 12.688C26.99 13.384 26.846 13.988 26.558 14.5C26.27 15.012 25.87 15.404 25.358 15.676C24.846 15.948 24.27 16.084 23.63 16.084C22.99 16.084 22.414 15.948 21.902 15.676C21.398 15.404 20.998 15.012 20.702 14.5C20.414 13.98 20.27 13.376 20.27 12.688C20.27 12 20.414 11.4 20.702 10.888C20.998 10.376 21.398 9.984 21.902 9.712C22.414 9.44 22.99 9.304 23.63 9.304ZM23.63 10.492C23.278 10.492 22.954 10.572 22.658 10.732C22.362 10.892 22.122 11.14 21.938 11.476C21.762 11.804 21.674 12.208 21.674 12.688C21.674 13.176 21.762 13.584 21.938 13.912C22.122 14.24 22.362 14.484 22.658 14.644C22.954 14.804 23.278 14.884 23.63 14.884C23.982 14.884 24.306 14.804 24.602 14.644C24.898 14.484 25.134 14.24 25.31 13.912C25.494 13.584 25.586 13.176 25.586 12.688C25.586 12.208 25.494 11.804 25.31 11.476C25.134 11.14 24.898 10.892 24.602 10.732C24.306 10.572 23.982 10.492 23.63 10.492ZM31.6892 9.304C32.3292 9.304 32.9052 9.44 33.4172 9.712C33.9292 9.984 34.3292 10.376 34.6172 10.888C34.9052 11.4 35.0492 12 35.0492 12.688C35.0492 13.384 34.9052 13.988 34.6172 14.5C34.3292 15.012 33.9292 15.404 33.4172 15.676C32.9052 15.948 32.3292 16.084 31.6892 16.084C31.0492 16.084 30.4732 15.948 29.9612 15.676C29.4572 15.404 29.0572 15.012 28.7612 14.5C28.4732 13.98 28.3292 13.376 28.3292 12.688C28.3292 12 28.4732 11.4 28.7612 10.888C29.0572 10.376 29.4572 9.984 29.9612 9.712C30.4732 9.44 31.0492 9.304 31.6892 9.304ZM31.6892 10.492C31.3372 10.492 31.0132 10.572 30.7172 10.732C30.4212 10.892 30.1812 11.14 29.9972 11.476C29.8212 11.804 29.7332 12.208 29.7332 12.688C29.7332 13.176 29.8212 13.584 29.9972 13.912C30.1812 14.24 30.4212 14.484 30.7172 14.644C31.0132 14.804 31.3372 14.884 31.6892 14.884C32.0412 14.884 32.3652 14.804 32.6612 14.644C32.9572 14.484 33.1932 14.24 33.3692 13.912C33.5532 13.584 33.6452 13.176 33.6452 12.688C33.6452 12.208 33.5532 11.804 33.3692 11.476C33.1932 11.14 32.9572 10.892 32.6612 10.732C32.3652 10.572 32.0412 10.492 31.6892 10.492ZM40.0484 14.812V16H39.2084C38.5044 16 37.9684 15.832 37.6004 15.496C37.2404 15.152 37.0604 14.584 37.0604 13.792V10.552H36.1124V9.388H37.0604V7.744H38.4404V9.388H40.0364V10.552H38.4404V13.816C38.4404 14.192 38.5084 14.452 38.6444 14.596C38.7884 14.74 39.0364 14.812 39.3884 14.812H40.0484ZM43.8619 9.304C44.6379 9.304 45.2579 9.504 45.7219 9.904C46.1939 10.296 46.4819 10.824 46.5859 11.488H45.2899C45.2339 11.128 45.0779 10.84 44.8219 10.624C44.5739 10.4 44.2419 10.288 43.8259 10.288C43.4819 10.288 43.2139 10.372 43.0219 10.54C42.8379 10.7 42.7459 10.92 42.7459 11.2C42.7459 11.408 42.8139 11.576 42.9499 11.704C43.0859 11.832 43.2539 11.932 43.4539 12.004C43.6619 12.076 43.9539 12.156 44.3299 12.244C44.8259 12.356 45.2259 12.472 45.5299 12.592C45.8419 12.712 46.1059 12.904 46.3219 13.168C46.5459 13.424 46.6579 13.776 46.6579 14.224C46.6579 14.776 46.4459 15.224 46.0219 15.568C45.6059 15.912 45.0419 16.084 44.3299 16.084C43.5059 16.084 42.8379 15.892 42.3259 15.508C41.8219 15.124 41.5179 14.588 41.4139 13.9H42.7459C42.7859 14.26 42.9459 14.552 43.2259 14.776C43.5059 15 43.8739 15.112 44.3299 15.112C44.6579 15.112 44.9139 15.028 45.0979 14.86C45.2899 14.684 45.3859 14.464 45.3859 14.2C45.3859 13.968 45.3139 13.784 45.1699 13.648C45.0259 13.512 44.8459 13.408 44.6299 13.336C44.4139 13.256 44.1179 13.176 43.7419 13.096C43.2619 12.984 42.8699 12.872 42.5659 12.76C42.2699 12.648 42.0139 12.468 41.7979 12.22C41.5899 11.964 41.4859 11.62 41.4859 11.188C41.4859 10.628 41.6939 10.176 42.1099 9.832C42.5339 9.48 43.1179 9.304 43.8619 9.304ZM51.7137 14.812V16H50.8737C50.1697 16 49.6337 15.832 49.2657 15.496C48.9057 15.152 48.7257 14.584 48.7257 13.792V10.552H47.7777V9.388H48.7257V7.744H50.1057V9.388H51.7017V10.552H50.1057V13.816C50.1057 14.192 50.1737 14.452 50.3097 14.596C50.4537 14.74 50.7017 14.812 51.0537 14.812H51.7137ZM54.7232 10.684C54.9472 10.252 55.2672 9.912 55.6832 9.664C56.0992 9.408 56.5792 9.28 57.1232 9.28V10.768H56.7152C56.1152 10.768 55.6312 10.916 55.2632 11.212C54.9032 11.5 54.7232 11.98 54.7232 12.652V16H53.3552V9.388H54.7232V10.684ZM61.1602 9.304C61.7602 9.304 62.2722 9.452 62.6962 9.748C63.1202 10.044 63.4202 10.436 63.5962 10.924V9.388H64.9642V16H63.5962V14.464C63.4202 14.952 63.1202 15.344 62.6962 15.64C62.2722 15.936 61.7602 16.084 61.1602 16.084C60.5842 16.084 60.0682 15.948 59.6122 15.676C59.1642 15.404 58.8122 15.012 58.5562 14.5C58.3002 13.988 58.1722 13.384 58.1722 12.688C58.1722 12 58.3002 11.4 58.5562 10.888C58.8122 10.376 59.1642 9.984 59.6122 9.712C60.0682 9.44 60.5842 9.304 61.1602 9.304ZM61.5802 10.504C60.9722 10.504 60.4842 10.7 60.1162 11.092C59.7562 11.476 59.5762 12.008 59.5762 12.688C59.5762 13.368 59.7562 13.904 60.1162 14.296C60.4842 14.68 60.9722 14.872 61.5802 14.872C61.9642 14.872 62.3082 14.784 62.6122 14.608C62.9162 14.424 63.1562 14.168 63.3322 13.84C63.5082 13.512 63.5962 13.128 63.5962 12.688C63.5962 12.256 63.5082 11.876 63.3322 11.548C63.1562 11.212 62.9162 10.956 62.6122 10.78C62.3082 10.596 61.9642 10.504 61.5802 10.504ZM70.7578 9.304C71.3338 9.304 71.8458 9.44 72.2938 9.712C72.7498 9.984 73.1058 10.376 73.3618 10.888C73.6178 11.4 73.7458 12 73.7458 12.688C73.7458 13.384 73.6178 13.988 73.3618 14.5C73.1058 15.012 72.7498 15.404 72.2938 15.676C71.8458 15.948 71.3338 16.084 70.7578 16.084C70.1578 16.084 69.6458 15.936 69.2218 15.64C68.7978 15.344 68.5018 14.952 68.3338 14.464V19.144H66.9658V9.388H68.3338V10.924C68.5018 10.436 68.7978 10.044 69.2218 9.748C69.6458 9.452 70.1578 9.304 70.7578 9.304ZM70.3378 10.504C69.9538 10.504 69.6098 10.596 69.3058 10.78C69.0018 10.956 68.7618 11.212 68.5858 11.548C68.4098 11.876 68.3218 12.256 68.3218 12.688C68.3218 13.128 68.4098 13.512 68.5858 13.84C68.7618 14.168 69.0018 14.424 69.3058 14.608C69.6098 14.784 69.9538 14.872 70.3378 14.872C70.9458 14.872 71.4338 14.68 71.8018 14.296C72.1698 13.904 72.3538 13.368 72.3538 12.688C72.3538 12.016 72.1698 11.484 71.8018 11.092C71.4338 10.7 70.9458 10.504 70.3378 10.504ZM77.5955 9.304C78.3715 9.304 78.9915 9.504 79.4555 9.904C79.9275 10.296 80.2155 10.824 80.3195 11.488H79.0235C78.9675 11.128 78.8115 10.84 78.5555 10.624C78.3075 10.4 77.9755 10.288 77.5595 10.288C77.2155 10.288 76.9475 10.372 76.7555 10.54C76.5715 10.7 76.4795 10.92 76.4795 11.2C76.4795 11.408 76.5475 11.576 76.6835 11.704C76.8195 11.832 76.9875 11.932 77.1875 12.004C77.3955 12.076 77.6875 12.156 78.0635 12.244C78.5595 12.356 78.9595 12.472 79.2635 12.592C79.5755 12.712 79.8395 12.904 80.0555 13.168C80.2795 13.424 80.3915 13.776 80.3915 14.224C80.3915 14.776 80.1795 15.224 79.7555 15.568C79.3395 15.912 78.7755 16.084 78.0635 16.084C77.2395 16.084 76.5715 15.892 76.0595 15.508C75.5555 15.124 75.2515 14.588 75.1475 13.9H76.4795C76.5195 14.26 76.6795 14.552 76.9595 14.776C77.2395 15 77.6075 15.112 78.0635 15.112C78.3915 15.112 78.6475 15.028 78.8315 14.86C79.0235 14.684 79.1195 14.464 79.1195 14.2C79.1195 13.968 79.0475 13.784 78.9035 13.648C78.7595 13.512 78.5795 13.408 78.3635 13.336C78.1475 13.256 77.8515 13.176 77.4755 13.096C76.9955 12.984 76.6035 12.872 76.2995 12.76C76.0035 12.648 75.7475 12.468 75.5315 12.22C75.3235 11.964 75.2195 11.62 75.2195 11.188C75.2195 10.628 75.4275 10.176 75.8435 9.832C76.2675 9.48 76.8515 9.304 77.5955 9.304Z" fill="#6070FF"/>
</svg>
