<svg width="66" height="24" viewBox="0 0 66 24" fill="none" xmlns="http://www.w3.org/2000/svg">
<rect width="66" height="24" rx="8" fill="#EBEBFF"/>
<path d="M15.48 9.304C16.08 9.304 16.592 9.452 17.016 9.748C17.44 10.044 17.74 10.436 17.916 10.924V9.388H19.284V16.072C19.284 16.688 19.156 17.232 18.9 17.704C18.652 18.184 18.292 18.56 17.82 18.832C17.348 19.104 16.788 19.24 16.14 19.24C15.212 19.24 14.46 19.02 13.884 18.58C13.316 18.14 12.96 17.544 12.816 16.792H14.172C14.284 17.184 14.5 17.488 14.82 17.704C15.14 17.928 15.548 18.04 16.044 18.04C16.588 18.04 17.036 17.872 17.388 17.536C17.74 17.2 17.916 16.712 17.916 16.072V14.464C17.74 14.952 17.44 15.344 17.016 15.64C16.592 15.936 16.08 16.084 15.48 16.084C14.904 16.084 14.388 15.948 13.932 15.676C13.484 15.404 13.132 15.012 12.876 14.5C12.62 13.988 12.492 13.384 12.492 12.688C12.492 12 12.62 11.4 12.876 10.888C13.132 10.376 13.484 9.984 13.932 9.712C14.388 9.44 14.904 9.304 15.48 9.304ZM15.9 10.504C15.292 10.504 14.804 10.7 14.436 11.092C14.076 11.476 13.896 12.008 13.896 12.688C13.896 13.368 14.076 13.904 14.436 14.296C14.804 14.68 15.292 14.872 15.9 14.872C16.284 14.872 16.628 14.784 16.932 14.608C17.236 14.424 17.476 14.168 17.652 13.84C17.828 13.512 17.916 13.128 17.916 12.688C17.916 12.256 17.828 11.876 17.652 11.548C17.476 11.212 17.236 10.956 16.932 10.78C16.628 10.596 16.284 10.504 15.9 10.504ZM21.0937 7.468C21.0937 7.236 21.1737 7.044 21.3337 6.892C21.4937 6.74 21.7057 6.664 21.9697 6.664C22.2337 6.664 22.4457 6.74 22.6057 6.892C22.7737 7.044 22.8577 7.236 22.8577 7.468C22.8577 7.7 22.7737 7.888 22.6057 8.032C22.4457 8.176 22.2337 8.248 21.9697 8.248C21.7057 8.248 21.4937 8.176 21.3337 8.032C21.1737 7.888 21.0937 7.7 21.0937 7.468ZM22.6537 9.388V16H21.2857V9.388H22.6537ZM27.9931 14.812V16H27.1531C26.4491 16 25.9131 15.832 25.5451 15.496C25.1851 15.152 25.0051 14.584 25.0051 13.792V10.552H24.0571V9.388H25.0051V7.744H26.3851V9.388H27.9811V10.552H26.3851V13.816C26.3851 14.192 26.4531 14.452 26.5891 14.596C26.7331 14.74 26.9811 14.812 27.3331 14.812H27.9931ZM33.3306 9.28C34.0986 9.28 34.7146 9.528 35.1786 10.024C35.6426 10.52 35.8746 11.228 35.8746 12.148V16H34.5066V12.292C34.5066 11.7 34.3546 11.244 34.0506 10.924C33.7466 10.596 33.3306 10.432 32.8026 10.432C32.2586 10.432 31.8226 10.608 31.4946 10.96C31.1666 11.304 31.0026 11.812 31.0026 12.484V16H29.6346V7.12H31.0026V10.84C31.1786 10.344 31.4746 9.96 31.8906 9.688C32.3066 9.416 32.7866 9.28 33.3306 9.28ZM43.9304 9.388V16H42.5504V14.56C42.3824 15.048 42.0904 15.428 41.6744 15.7C41.2584 15.964 40.7744 16.096 40.2224 16.096C39.4544 16.096 38.8384 15.848 38.3744 15.352C37.9104 14.856 37.6784 14.148 37.6784 13.228V9.388H39.0464V13.084C39.0464 13.684 39.1984 14.148 39.5024 14.476C39.8064 14.796 40.2224 14.956 40.7504 14.956C41.2944 14.956 41.7304 14.78 42.0584 14.428C42.3864 14.076 42.5504 13.564 42.5504 12.892V9.388H43.9304ZM49.7208 9.304C50.2968 9.304 50.8088 9.44 51.2568 9.712C51.7128 9.984 52.0688 10.376 52.3248 10.888C52.5808 11.4 52.7088 12 52.7088 12.688C52.7088 13.384 52.5808 13.988 52.3248 14.5C52.0688 15.012 51.7128 15.404 51.2568 15.676C50.8088 15.948 50.2968 16.084 49.7208 16.084C49.1208 16.084 48.6088 15.936 48.1848 15.64C47.7608 15.344 47.4648 14.952 47.2968 14.464V16H45.9288V7.12H47.2968V10.924C47.4648 10.436 47.7608 10.044 48.1848 9.748C48.6088 9.452 49.1208 9.304 49.7208 9.304ZM49.3008 10.504C48.9168 10.504 48.5728 10.596 48.2688 10.78C47.9648 10.956 47.7248 11.212 47.5488 11.548C47.3728 11.876 47.2848 12.256 47.2848 12.688C47.2848 13.128 47.3728 13.512 47.5488 13.84C47.7248 14.168 47.9648 14.424 48.2688 14.608C48.5728 14.784 48.9168 14.872 49.3008 14.872C49.9088 14.872 50.3968 14.68 50.7648 14.296C51.1328 13.904 51.3168 13.368 51.3168 12.688C51.3168 12.016 51.1328 11.484 50.7648 11.092C50.3968 10.7 49.9088 10.504 49.3008 10.504Z" fill="#6070FF"/>
</svg>
