<svg width="211" height="24" viewBox="0 0 211 24" fill="none" xmlns="http://www.w3.org/2000/svg">
<rect width="61" height="24" rx="8" fill="#EBEBFF"/>
<path d="M16.524 9.28C17.292 9.28 17.908 9.528 18.372 10.024C18.836 10.52 19.068 11.228 19.068 12.148V16H17.7V12.292C17.7 11.7 17.548 11.244 17.244 10.924C16.94 10.596 16.524 10.432 15.996 10.432C15.452 10.432 15.016 10.608 14.688 10.96C14.36 11.304 14.196 11.812 14.196 12.484V16H12.828V7.12H14.196V10.84C14.372 10.344 14.668 9.96 15.084 9.688C15.5 9.416 15.98 9.28 16.524 9.28ZM24.3518 14.812V16H23.5118C22.8078 16 22.2718 15.832 21.9038 15.496C21.5438 15.152 21.3638 14.584 21.3638 13.792V10.552H20.4158V9.388H21.3638V7.744H22.7438V9.388H24.3398V10.552H22.7438V13.816C22.7438 14.192 22.8118 14.452 22.9478 14.596C23.0918 14.74 23.3398 14.812 23.6918 14.812H24.3518ZM34.2613 9.28C35.0453 9.28 35.6693 9.528 36.1333 10.024C36.6053 10.52 36.8413 11.228 36.8413 12.148V16H35.4733V12.292C35.4733 11.716 35.3293 11.272 35.0413 10.96C34.7533 10.64 34.3573 10.48 33.8533 10.48C33.3173 10.48 32.8893 10.652 32.5693 10.996C32.2573 11.332 32.1013 11.828 32.1013 12.484V16H30.7333V12.292C30.7333 11.716 30.5893 11.272 30.3013 10.96C30.0133 10.64 29.6173 10.48 29.1133 10.48C28.5773 10.48 28.1493 10.652 27.8293 10.996C27.5173 11.332 27.3613 11.828 27.3613 12.484V16H25.9933V9.388H27.3613V10.768C27.5293 10.288 27.8093 9.92 28.2013 9.664C28.5933 9.408 29.0533 9.28 29.5813 9.28C30.1333 9.28 30.6093 9.416 31.0093 9.688C31.4173 9.96 31.7133 10.352 31.8973 10.864C32.0893 10.368 32.3973 9.98 32.8213 9.7C33.2453 9.42 33.7253 9.28 34.2613 9.28ZM40.1666 7.12V16H38.7986V7.12H40.1666Z" fill="#6070FF"/>
<rect x="69" width="45" height="24" rx="8" fill="#EBEBFF"/>
<path d="M84.768 9.304C85.624 9.304 86.332 9.532 86.892 9.988C87.452 10.436 87.8 11.048 87.936 11.824H86.484C86.404 11.408 86.208 11.084 85.896 10.852C85.592 10.612 85.208 10.492 84.744 10.492C84.216 10.492 83.776 10.68 83.424 11.056C83.072 11.424 82.896 11.968 82.896 12.688C82.896 13.408 83.072 13.956 83.424 14.332C83.776 14.708 84.216 14.896 84.744 14.896C85.208 14.896 85.592 14.776 85.896 14.536C86.208 14.296 86.404 13.968 86.484 13.552H87.936C87.8 14.328 87.452 14.944 86.892 15.4C86.332 15.856 85.624 16.084 84.768 16.084C84.128 16.084 83.56 15.948 83.064 15.676C82.576 15.404 82.192 15.012 81.912 14.5C81.632 13.988 81.492 13.384 81.492 12.688C81.492 12 81.632 11.4 81.912 10.888C82.192 10.376 82.576 9.984 83.064 9.712C83.56 9.44 84.128 9.304 84.768 9.304ZM91.7897 9.304C92.5657 9.304 93.1857 9.504 93.6497 9.904C94.1217 10.296 94.4097 10.824 94.5137 11.488H93.2177C93.1617 11.128 93.0057 10.84 92.7497 10.624C92.5017 10.4 92.1697 10.288 91.7537 10.288C91.4097 10.288 91.1417 10.372 90.9497 10.54C90.7657 10.7 90.6737 10.92 90.6737 11.2C90.6737 11.408 90.7417 11.576 90.8777 11.704C91.0137 11.832 91.1817 11.932 91.3817 12.004C91.5897 12.076 91.8817 12.156 92.2577 12.244C92.7537 12.356 93.1537 12.472 93.4577 12.592C93.7697 12.712 94.0337 12.904 94.2497 13.168C94.4737 13.424 94.5857 13.776 94.5857 14.224C94.5857 14.776 94.3737 15.224 93.9497 15.568C93.5337 15.912 92.9697 16.084 92.2577 16.084C91.4337 16.084 90.7657 15.892 90.2537 15.508C89.7497 15.124 89.4457 14.588 89.3417 13.9H90.6737C90.7137 14.26 90.8737 14.552 91.1537 14.776C91.4337 15 91.8017 15.112 92.2577 15.112C92.5857 15.112 92.8417 15.028 93.0257 14.86C93.2177 14.684 93.3137 14.464 93.3137 14.2C93.3137 13.968 93.2417 13.784 93.0977 13.648C92.9537 13.512 92.7737 13.408 92.5577 13.336C92.3417 13.256 92.0457 13.176 91.6697 13.096C91.1897 12.984 90.7977 12.872 90.4937 12.76C90.1977 12.648 89.9417 12.468 89.7257 12.22C89.5177 11.964 89.4137 11.62 89.4137 11.188C89.4137 10.628 89.6217 10.176 90.0377 9.832C90.4617 9.48 91.0457 9.304 91.7897 9.304ZM98.4895 9.304C99.2655 9.304 99.8855 9.504 100.35 9.904C100.822 10.296 101.11 10.824 101.214 11.488H99.9175C99.8615 11.128 99.7055 10.84 99.4495 10.624C99.2015 10.4 98.8695 10.288 98.4535 10.288C98.1095 10.288 97.8415 10.372 97.6495 10.54C97.4655 10.7 97.3735 10.92 97.3735 11.2C97.3735 11.408 97.4415 11.576 97.5775 11.704C97.7135 11.832 97.8815 11.932 98.0815 12.004C98.2895 12.076 98.5815 12.156 98.9575 12.244C99.4535 12.356 99.8535 12.472 100.158 12.592C100.47 12.712 100.734 12.904 100.95 13.168C101.174 13.424 101.286 13.776 101.286 14.224C101.286 14.776 101.074 15.224 100.65 15.568C100.234 15.912 99.6695 16.084 98.9575 16.084C98.1335 16.084 97.4655 15.892 96.9535 15.508C96.4495 15.124 96.1455 14.588 96.0415 13.9H97.3735C97.4135 14.26 97.5735 14.552 97.8535 14.776C98.1335 15 98.5015 15.112 98.9575 15.112C99.2855 15.112 99.5415 15.028 99.7255 14.86C99.9175 14.684 100.014 14.464 100.014 14.2C100.014 13.968 99.9415 13.784 99.7975 13.648C99.6535 13.512 99.4735 13.408 99.2575 13.336C99.0415 13.256 98.7455 13.176 98.3695 13.096C97.8895 12.984 97.4975 12.872 97.1935 12.76C96.8975 12.648 96.6415 12.468 96.4255 12.22C96.2175 11.964 96.1135 11.62 96.1135 11.188C96.1135 10.628 96.3215 10.176 96.7375 9.832C97.1615 9.48 97.7455 9.304 98.4895 9.304Z" fill="#6070FF"/>
<rect x="122" width="89" height="24" rx="8" fill="#EBEBFF"/>
<path d="M135.572 8.248C135.308 8.248 135.092 8.176 134.924 8.032C134.764 7.888 134.684 7.7 134.684 7.468C134.684 7.236 134.764 7.044 134.924 6.892C135.092 6.74 135.308 6.664 135.572 6.664C135.836 6.664 136.048 6.74 136.208 6.892C136.368 7.044 136.448 7.236 136.448 7.468C136.448 7.7 136.368 7.888 136.208 8.032C136.048 8.176 135.836 8.248 135.572 8.248ZM133.652 17.944H134.12C134.384 17.944 134.576 17.884 134.696 17.764C134.824 17.652 134.888 17.456 134.888 17.176V9.388H136.268V17.188C136.268 18.492 135.612 19.144 134.3 19.144H133.652V17.944ZM140.91 9.304C141.51 9.304 142.022 9.452 142.446 9.748C142.87 10.044 143.17 10.436 143.346 10.924V9.388H144.714V16H143.346V14.464C143.17 14.952 142.87 15.344 142.446 15.64C142.022 15.936 141.51 16.084 140.91 16.084C140.334 16.084 139.818 15.948 139.362 15.676C138.914 15.404 138.562 15.012 138.306 14.5C138.05 13.988 137.922 13.384 137.922 12.688C137.922 12 138.05 11.4 138.306 10.888C138.562 10.376 138.914 9.984 139.362 9.712C139.818 9.44 140.334 9.304 140.91 9.304ZM141.33 10.504C140.722 10.504 140.234 10.7 139.866 11.092C139.506 11.476 139.326 12.008 139.326 12.688C139.326 13.368 139.506 13.904 139.866 14.296C140.234 14.68 140.722 14.872 141.33 14.872C141.714 14.872 142.058 14.784 142.362 14.608C142.666 14.424 142.906 14.168 143.082 13.84C143.258 13.512 143.346 13.128 143.346 12.688C143.346 12.256 143.258 11.876 143.082 11.548C142.906 11.212 142.666 10.956 142.362 10.78C142.058 10.596 141.714 10.504 141.33 10.504ZM149.428 14.584L151.3 9.388H152.764L150.244 16H148.588L146.068 9.388H147.532L149.428 14.584ZM156.783 9.304C157.383 9.304 157.895 9.452 158.319 9.748C158.743 10.044 159.043 10.436 159.219 10.924V9.388H160.587V16H159.219V14.464C159.043 14.952 158.743 15.344 158.319 15.64C157.895 15.936 157.383 16.084 156.783 16.084C156.207 16.084 155.691 15.948 155.235 15.676C154.787 15.404 154.435 15.012 154.179 14.5C153.923 13.988 153.795 13.384 153.795 12.688C153.795 12 153.923 11.4 154.179 10.888C154.435 10.376 154.787 9.984 155.235 9.712C155.691 9.44 156.207 9.304 156.783 9.304ZM157.203 10.504C156.595 10.504 156.107 10.7 155.739 11.092C155.379 11.476 155.199 12.008 155.199 12.688C155.199 13.368 155.379 13.904 155.739 14.296C156.107 14.68 156.595 14.872 157.203 14.872C157.587 14.872 157.931 14.784 158.235 14.608C158.539 14.424 158.779 14.168 158.955 13.84C159.131 13.512 159.219 13.128 159.219 12.688C159.219 12.256 159.131 11.876 158.955 11.548C158.779 11.212 158.539 10.956 158.235 10.78C157.931 10.596 157.587 10.504 157.203 10.504ZM168.156 13.744C168.156 14.16 168.056 14.548 167.856 14.908C167.656 15.26 167.352 15.544 166.944 15.76C166.536 15.976 166.036 16.084 165.444 16.084C164.868 16.084 164.352 15.984 163.896 15.784C163.44 15.576 163.076 15.288 162.804 14.92C162.532 14.552 162.376 14.128 162.336 13.648H163.8C163.84 14.016 163.996 14.332 164.268 14.596C164.548 14.86 164.92 14.992 165.384 14.992C165.8 14.992 166.12 14.88 166.344 14.656C166.576 14.432 166.692 14.144 166.692 13.792C166.692 13.488 166.608 13.24 166.44 13.048C166.272 12.848 166.064 12.692 165.816 12.58C165.568 12.468 165.228 12.34 164.796 12.196C164.268 12.028 163.836 11.86 163.5 11.692C163.172 11.524 162.892 11.28 162.66 10.96C162.428 10.64 162.312 10.22 162.312 9.7C162.312 9.244 162.424 8.844 162.648 8.5C162.872 8.156 163.192 7.892 163.608 7.708C164.024 7.516 164.504 7.42 165.048 7.42C165.912 7.42 166.596 7.628 167.1 8.044C167.612 8.46 167.904 9.004 167.976 9.676H166.5C166.444 9.356 166.292 9.084 166.044 8.86C165.804 8.628 165.472 8.512 165.048 8.512C164.664 8.512 164.356 8.612 164.124 8.812C163.892 9.004 163.776 9.284 163.776 9.652C163.776 9.94 163.856 10.18 164.016 10.372C164.176 10.556 164.376 10.704 164.616 10.816C164.864 10.92 165.2 11.044 165.624 11.188C166.16 11.356 166.596 11.528 166.932 11.704C167.276 11.872 167.564 12.12 167.796 12.448C168.036 12.776 168.156 13.208 168.156 13.744ZM172.826 9.304C173.682 9.304 174.39 9.532 174.95 9.988C175.51 10.436 175.858 11.048 175.994 11.824H174.542C174.462 11.408 174.266 11.084 173.954 10.852C173.65 10.612 173.266 10.492 172.802 10.492C172.274 10.492 171.834 10.68 171.482 11.056C171.13 11.424 170.954 11.968 170.954 12.688C170.954 13.408 171.13 13.956 171.482 14.332C171.834 14.708 172.274 14.896 172.802 14.896C173.266 14.896 173.65 14.776 173.954 14.536C174.266 14.296 174.462 13.968 174.542 13.552H175.994C175.858 14.328 175.51 14.944 174.95 15.4C174.39 15.856 173.682 16.084 172.826 16.084C172.186 16.084 171.618 15.948 171.122 15.676C170.634 15.404 170.25 15.012 169.97 14.5C169.69 13.988 169.55 13.384 169.55 12.688C169.55 12 169.69 11.4 169.97 10.888C170.25 10.376 170.634 9.984 171.122 9.712C171.618 9.44 172.186 9.304 172.826 9.304ZM179.044 10.684C179.267 10.252 179.587 9.912 180.003 9.664C180.42 9.408 180.9 9.28 181.444 9.28V10.768H181.035C180.436 10.768 179.952 10.916 179.584 11.212C179.224 11.5 179.044 11.98 179.044 12.652V16H177.675V9.388H179.044V10.684ZM182.636 7.468C182.636 7.236 182.716 7.044 182.876 6.892C183.036 6.74 183.248 6.664 183.512 6.664C183.776 6.664 183.988 6.74 184.148 6.892C184.316 7.044 184.4 7.236 184.4 7.468C184.4 7.7 184.316 7.888 184.148 8.032C183.988 8.176 183.776 8.248 183.512 8.248C183.248 8.248 183.036 8.176 182.876 8.032C182.716 7.888 182.636 7.7 182.636 7.468ZM184.196 9.388V16H182.828V9.388H184.196ZM190.004 9.304C190.58 9.304 191.092 9.44 191.54 9.712C191.996 9.984 192.352 10.376 192.608 10.888C192.864 11.4 192.992 12 192.992 12.688C192.992 13.384 192.864 13.988 192.608 14.5C192.352 15.012 191.996 15.404 191.54 15.676C191.092 15.948 190.58 16.084 190.004 16.084C189.404 16.084 188.892 15.936 188.468 15.64C188.044 15.344 187.748 14.952 187.58 14.464V19.144H186.212V9.388H187.58V10.924C187.748 10.436 188.044 10.044 188.468 9.748C188.892 9.452 189.404 9.304 190.004 9.304ZM189.584 10.504C189.2 10.504 188.856 10.596 188.552 10.78C188.248 10.956 188.008 11.212 187.832 11.548C187.656 11.876 187.568 12.256 187.568 12.688C187.568 13.128 187.656 13.512 187.832 13.84C188.008 14.168 188.248 14.424 188.552 14.608C188.856 14.784 189.2 14.872 189.584 14.872C190.192 14.872 190.68 14.68 191.048 14.296C191.416 13.904 191.6 13.368 191.6 12.688C191.6 12.016 191.416 11.484 191.048 11.092C190.68 10.7 190.192 10.504 189.584 10.504ZM197.994 14.812V16H197.154C196.45 16 195.914 15.832 195.546 15.496C195.186 15.152 195.006 14.584 195.006 13.792V10.552H194.058V9.388H195.006V7.744H196.386V9.388H197.982V10.552H196.386V13.816C196.386 14.192 196.454 14.452 196.59 14.596C196.734 14.74 196.982 14.812 197.334 14.812H197.994Z" fill="#6070FF"/>
</svg>
