<svg width="228" height="24" viewBox="0 0 228 24" fill="none" xmlns="http://www.w3.org/2000/svg">
<rect width="66" height="24" rx="8" fill="#EBEBFF"/>
<path d="M15.48 9.304C16.08 9.304 16.592 9.452 17.016 9.748C17.44 10.044 17.74 10.436 17.916 10.924V9.388H19.284V16.072C19.284 16.688 19.156 17.232 18.9 17.704C18.652 18.184 18.292 18.56 17.82 18.832C17.348 19.104 16.788 19.24 16.14 19.24C15.212 19.24 14.46 19.02 13.884 18.58C13.316 18.14 12.96 17.544 12.816 16.792H14.172C14.284 17.184 14.5 17.488 14.82 17.704C15.14 17.928 15.548 18.04 16.044 18.04C16.588 18.04 17.036 17.872 17.388 17.536C17.74 17.2 17.916 16.712 17.916 16.072V14.464C17.74 14.952 17.44 15.344 17.016 15.64C16.592 15.936 16.08 16.084 15.48 16.084C14.904 16.084 14.388 15.948 13.932 15.676C13.484 15.404 13.132 15.012 12.876 14.5C12.62 13.988 12.492 13.384 12.492 12.688C12.492 12 12.62 11.4 12.876 10.888C13.132 10.376 13.484 9.984 13.932 9.712C14.388 9.44 14.904 9.304 15.48 9.304ZM15.9 10.504C15.292 10.504 14.804 10.7 14.436 11.092C14.076 11.476 13.896 12.008 13.896 12.688C13.896 13.368 14.076 13.904 14.436 14.296C14.804 14.68 15.292 14.872 15.9 14.872C16.284 14.872 16.628 14.784 16.932 14.608C17.236 14.424 17.476 14.168 17.652 13.84C17.828 13.512 17.916 13.128 17.916 12.688C17.916 12.256 17.828 11.876 17.652 11.548C17.476 11.212 17.236 10.956 16.932 10.78C16.628 10.596 16.284 10.504 15.9 10.504ZM21.0937 7.468C21.0937 7.236 21.1737 7.044 21.3337 6.892C21.4937 6.74 21.7057 6.664 21.9697 6.664C22.2337 6.664 22.4457 6.74 22.6057 6.892C22.7737 7.044 22.8577 7.236 22.8577 7.468C22.8577 7.7 22.7737 7.888 22.6057 8.032C22.4457 8.176 22.2337 8.248 21.9697 8.248C21.7057 8.248 21.4937 8.176 21.3337 8.032C21.1737 7.888 21.0937 7.7 21.0937 7.468ZM22.6537 9.388V16H21.2857V9.388H22.6537ZM27.9931 14.812V16H27.1531C26.4491 16 25.9131 15.832 25.5451 15.496C25.1851 15.152 25.0051 14.584 25.0051 13.792V10.552H24.0571V9.388H25.0051V7.744H26.3851V9.388H27.9811V10.552H26.3851V13.816C26.3851 14.192 26.4531 14.452 26.5891 14.596C26.7331 14.74 26.9811 14.812 27.3331 14.812H27.9931ZM33.3306 9.28C34.0986 9.28 34.7146 9.528 35.1786 10.024C35.6426 10.52 35.8746 11.228 35.8746 12.148V16H34.5066V12.292C34.5066 11.7 34.3546 11.244 34.0506 10.924C33.7466 10.596 33.3306 10.432 32.8026 10.432C32.2586 10.432 31.8226 10.608 31.4946 10.96C31.1666 11.304 31.0026 11.812 31.0026 12.484V16H29.6346V7.12H31.0026V10.84C31.1786 10.344 31.4746 9.96 31.8906 9.688C32.3066 9.416 32.7866 9.28 33.3306 9.28ZM43.9304 9.388V16H42.5504V14.56C42.3824 15.048 42.0904 15.428 41.6744 15.7C41.2584 15.964 40.7744 16.096 40.2224 16.096C39.4544 16.096 38.8384 15.848 38.3744 15.352C37.9104 14.856 37.6784 14.148 37.6784 13.228V9.388H39.0464V13.084C39.0464 13.684 39.1984 14.148 39.5024 14.476C39.8064 14.796 40.2224 14.956 40.7504 14.956C41.2944 14.956 41.7304 14.78 42.0584 14.428C42.3864 14.076 42.5504 13.564 42.5504 12.892V9.388H43.9304ZM49.7208 9.304C50.2968 9.304 50.8088 9.44 51.2568 9.712C51.7128 9.984 52.0688 10.376 52.3248 10.888C52.5808 11.4 52.7088 12 52.7088 12.688C52.7088 13.384 52.5808 13.988 52.3248 14.5C52.0688 15.012 51.7128 15.404 51.2568 15.676C50.8088 15.948 50.2968 16.084 49.7208 16.084C49.1208 16.084 48.6088 15.936 48.1848 15.64C47.7608 15.344 47.4648 14.952 47.2968 14.464V16H45.9288V7.12H47.2968V10.924C47.4648 10.436 47.7608 10.044 48.1848 9.748C48.6088 9.452 49.1208 9.304 49.7208 9.304ZM49.3008 10.504C48.9168 10.504 48.5728 10.596 48.2688 10.78C47.9648 10.956 47.7248 11.212 47.5488 11.548C47.3728 11.876 47.2848 12.256 47.2848 12.688C47.2848 13.128 47.3728 13.512 47.5488 13.84C47.7248 14.168 47.9648 14.424 48.2688 14.608C48.5728 14.784 48.9168 14.872 49.3008 14.872C49.9088 14.872 50.3968 14.68 50.7648 14.296C51.1328 13.904 51.3168 13.368 51.3168 12.688C51.3168 12.016 51.1328 11.484 50.7648 11.092C50.3968 10.7 49.9088 10.504 49.3008 10.504Z" fill="#6070FF"/>
<rect x="74" width="53" height="24" rx="8" fill="#EBEBFF"/>
<path d="M88.196 10.684C88.42 10.252 88.74 9.912 89.156 9.664C89.572 9.408 90.052 9.28 90.596 9.28V10.768H90.188C89.588 10.768 89.104 10.916 88.736 11.212C88.376 11.5 88.196 11.98 88.196 12.652V16H86.828V9.388H88.196V10.684ZM98.077 9.388V16H96.697V14.56C96.529 15.048 96.237 15.428 95.821 15.7C95.405 15.964 94.921 16.096 94.369 16.096C93.601 16.096 92.985 15.848 92.521 15.352C92.057 14.856 91.825 14.148 91.825 13.228V9.388H93.193V13.084C93.193 13.684 93.345 14.148 93.649 14.476C93.953 14.796 94.369 14.956 94.897 14.956C95.441 14.956 95.877 14.78 96.205 14.428C96.533 14.076 96.697 13.564 96.697 12.892V9.388H98.077ZM103.867 9.304C104.443 9.304 104.955 9.44 105.403 9.712C105.859 9.984 106.215 10.376 106.471 10.888C106.727 11.4 106.855 12 106.855 12.688C106.855 13.384 106.727 13.988 106.471 14.5C106.215 15.012 105.859 15.404 105.403 15.676C104.955 15.948 104.443 16.084 103.867 16.084C103.267 16.084 102.755 15.936 102.331 15.64C101.907 15.344 101.611 14.952 101.443 14.464V16H100.075V7.12H101.443V10.924C101.611 10.436 101.907 10.044 102.331 9.748C102.755 9.452 103.267 9.304 103.867 9.304ZM103.447 10.504C103.063 10.504 102.719 10.596 102.415 10.78C102.111 10.956 101.871 11.212 101.695 11.548C101.519 11.876 101.431 12.256 101.431 12.688C101.431 13.128 101.519 13.512 101.695 13.84C101.871 14.168 102.111 14.424 102.415 14.608C102.719 14.784 103.063 14.872 103.447 14.872C104.055 14.872 104.543 14.68 104.911 14.296C105.279 13.904 105.463 13.368 105.463 12.688C105.463 12.016 105.279 11.484 104.911 11.092C104.543 10.7 104.055 10.504 103.447 10.504ZM109.313 9.388L111.293 14.248L113.129 9.388H114.653L110.657 19.144H109.133L110.561 15.844L107.777 9.388H109.313Z" fill="#6070FF"/>
<rect x="135" width="93" height="24" rx="8" fill="#EBEBFF"/>
<path d="M152.244 11.632C152.756 11.736 153.168 11.98 153.48 12.364C153.8 12.748 153.96 13.196 153.96 13.708C153.96 14.412 153.724 14.972 153.252 15.388C152.78 15.796 152.096 16 151.2 16H147.828V7.528H151.14C151.988 7.528 152.636 7.72 153.084 8.104C153.54 8.48 153.768 9 153.768 9.664C153.768 10.2 153.628 10.636 153.348 10.972C153.068 11.3 152.7 11.52 152.244 11.632ZM149.196 11.176H150.888C151.368 11.176 151.732 11.064 151.98 10.84C152.236 10.616 152.364 10.304 152.364 9.904C152.364 9.512 152.236 9.204 151.98 8.98C151.732 8.756 151.352 8.644 150.84 8.644H149.196V11.176ZM150.924 14.872C151.444 14.872 151.844 14.756 152.124 14.524C152.412 14.284 152.556 13.952 152.556 13.528C152.556 13.104 152.412 12.772 152.124 12.532C151.836 12.292 151.432 12.172 150.912 12.172H149.196V14.872H150.924ZM158.63 9.304C159.27 9.304 159.846 9.44 160.358 9.712C160.87 9.984 161.27 10.376 161.558 10.888C161.846 11.4 161.99 12 161.99 12.688C161.99 13.384 161.846 13.988 161.558 14.5C161.27 15.012 160.87 15.404 160.358 15.676C159.846 15.948 159.27 16.084 158.63 16.084C157.99 16.084 157.414 15.948 156.902 15.676C156.398 15.404 155.998 15.012 155.702 14.5C155.414 13.98 155.27 13.376 155.27 12.688C155.27 12 155.414 11.4 155.702 10.888C155.998 10.376 156.398 9.984 156.902 9.712C157.414 9.44 157.99 9.304 158.63 9.304ZM158.63 10.492C158.278 10.492 157.954 10.572 157.658 10.732C157.362 10.892 157.122 11.14 156.938 11.476C156.762 11.804 156.674 12.208 156.674 12.688C156.674 13.176 156.762 13.584 156.938 13.912C157.122 14.24 157.362 14.484 157.658 14.644C157.954 14.804 158.278 14.884 158.63 14.884C158.982 14.884 159.306 14.804 159.602 14.644C159.898 14.484 160.134 14.24 160.31 13.912C160.494 13.584 160.586 13.176 160.586 12.688C160.586 12.208 160.494 11.804 160.31 11.476C160.134 11.14 159.898 10.892 159.602 10.732C159.306 10.572 158.982 10.492 158.63 10.492ZM166.689 9.304C167.329 9.304 167.905 9.44 168.417 9.712C168.929 9.984 169.329 10.376 169.617 10.888C169.905 11.4 170.049 12 170.049 12.688C170.049 13.384 169.905 13.988 169.617 14.5C169.329 15.012 168.929 15.404 168.417 15.676C167.905 15.948 167.329 16.084 166.689 16.084C166.049 16.084 165.473 15.948 164.961 15.676C164.457 15.404 164.057 15.012 163.761 14.5C163.473 13.98 163.329 13.376 163.329 12.688C163.329 12 163.473 11.4 163.761 10.888C164.057 10.376 164.457 9.984 164.961 9.712C165.473 9.44 166.049 9.304 166.689 9.304ZM166.689 10.492C166.337 10.492 166.013 10.572 165.717 10.732C165.421 10.892 165.181 11.14 164.997 11.476C164.821 11.804 164.733 12.208 164.733 12.688C164.733 13.176 164.821 13.584 164.997 13.912C165.181 14.24 165.421 14.484 165.717 14.644C166.013 14.804 166.337 14.884 166.689 14.884C167.041 14.884 167.365 14.804 167.661 14.644C167.957 14.484 168.193 14.24 168.369 13.912C168.553 13.584 168.645 13.176 168.645 12.688C168.645 12.208 168.553 11.804 168.369 11.476C168.193 11.14 167.957 10.892 167.661 10.732C167.365 10.572 167.041 10.492 166.689 10.492ZM175.048 14.812V16H174.208C173.504 16 172.968 15.832 172.6 15.496C172.24 15.152 172.06 14.584 172.06 13.792V10.552H171.112V9.388H172.06V7.744H173.44V9.388H175.036V10.552H173.44V13.816C173.44 14.192 173.508 14.452 173.644 14.596C173.788 14.74 174.036 14.812 174.388 14.812H175.048ZM178.862 9.304C179.638 9.304 180.258 9.504 180.722 9.904C181.194 10.296 181.482 10.824 181.586 11.488H180.29C180.234 11.128 180.078 10.84 179.822 10.624C179.574 10.4 179.242 10.288 178.826 10.288C178.482 10.288 178.214 10.372 178.022 10.54C177.838 10.7 177.746 10.92 177.746 11.2C177.746 11.408 177.814 11.576 177.95 11.704C178.086 11.832 178.254 11.932 178.454 12.004C178.662 12.076 178.954 12.156 179.33 12.244C179.826 12.356 180.226 12.472 180.53 12.592C180.842 12.712 181.106 12.904 181.322 13.168C181.546 13.424 181.658 13.776 181.658 14.224C181.658 14.776 181.446 15.224 181.022 15.568C180.606 15.912 180.042 16.084 179.33 16.084C178.506 16.084 177.838 15.892 177.326 15.508C176.822 15.124 176.518 14.588 176.414 13.9H177.746C177.786 14.26 177.946 14.552 178.226 14.776C178.506 15 178.874 15.112 179.33 15.112C179.658 15.112 179.914 15.028 180.098 14.86C180.29 14.684 180.386 14.464 180.386 14.2C180.386 13.968 180.314 13.784 180.17 13.648C180.026 13.512 179.846 13.408 179.63 13.336C179.414 13.256 179.118 13.176 178.742 13.096C178.262 12.984 177.87 12.872 177.566 12.76C177.27 12.648 177.014 12.468 176.798 12.22C176.59 11.964 176.486 11.62 176.486 11.188C176.486 10.628 176.694 10.176 177.11 9.832C177.534 9.48 178.118 9.304 178.862 9.304ZM186.714 14.812V16H185.874C185.17 16 184.634 15.832 184.266 15.496C183.906 15.152 183.726 14.584 183.726 13.792V10.552H182.778V9.388H183.726V7.744H185.106V9.388H186.702V10.552H185.106V13.816C185.106 14.192 185.174 14.452 185.31 14.596C185.454 14.74 185.702 14.812 186.054 14.812H186.714ZM189.723 10.684C189.947 10.252 190.267 9.912 190.683 9.664C191.099 9.408 191.579 9.28 192.123 9.28V10.768H191.715C191.115 10.768 190.631 10.916 190.263 11.212C189.903 11.5 189.723 11.98 189.723 12.652V16H188.355V9.388H189.723V10.684ZM196.16 9.304C196.76 9.304 197.272 9.452 197.696 9.748C198.12 10.044 198.42 10.436 198.596 10.924V9.388H199.964V16H198.596V14.464C198.42 14.952 198.12 15.344 197.696 15.64C197.272 15.936 196.76 16.084 196.16 16.084C195.584 16.084 195.068 15.948 194.612 15.676C194.164 15.404 193.812 15.012 193.556 14.5C193.3 13.988 193.172 13.384 193.172 12.688C193.172 12 193.3 11.4 193.556 10.888C193.812 10.376 194.164 9.984 194.612 9.712C195.068 9.44 195.584 9.304 196.16 9.304ZM196.58 10.504C195.972 10.504 195.484 10.7 195.116 11.092C194.756 11.476 194.576 12.008 194.576 12.688C194.576 13.368 194.756 13.904 195.116 14.296C195.484 14.68 195.972 14.872 196.58 14.872C196.964 14.872 197.308 14.784 197.612 14.608C197.916 14.424 198.156 14.168 198.332 13.84C198.508 13.512 198.596 13.128 198.596 12.688C198.596 12.256 198.508 11.876 198.332 11.548C198.156 11.212 197.916 10.956 197.612 10.78C197.308 10.596 196.964 10.504 196.58 10.504ZM205.758 9.304C206.334 9.304 206.846 9.44 207.294 9.712C207.75 9.984 208.106 10.376 208.362 10.888C208.618 11.4 208.746 12 208.746 12.688C208.746 13.384 208.618 13.988 208.362 14.5C208.106 15.012 207.75 15.404 207.294 15.676C206.846 15.948 206.334 16.084 205.758 16.084C205.158 16.084 204.646 15.936 204.222 15.64C203.798 15.344 203.502 14.952 203.334 14.464V19.144H201.966V9.388H203.334V10.924C203.502 10.436 203.798 10.044 204.222 9.748C204.646 9.452 205.158 9.304 205.758 9.304ZM205.338 10.504C204.954 10.504 204.61 10.596 204.306 10.78C204.002 10.956 203.762 11.212 203.586 11.548C203.41 11.876 203.322 12.256 203.322 12.688C203.322 13.128 203.41 13.512 203.586 13.84C203.762 14.168 204.002 14.424 204.306 14.608C204.61 14.784 204.954 14.872 205.338 14.872C205.946 14.872 206.434 14.68 206.802 14.296C207.17 13.904 207.354 13.368 207.354 12.688C207.354 12.016 207.17 11.484 206.802 11.092C206.434 10.7 205.946 10.504 205.338 10.504ZM212.595 9.304C213.371 9.304 213.991 9.504 214.455 9.904C214.927 10.296 215.215 10.824 215.319 11.488H214.023C213.967 11.128 213.811 10.84 213.555 10.624C213.307 10.4 212.975 10.288 212.559 10.288C212.215 10.288 211.947 10.372 211.755 10.54C211.571 10.7 211.479 10.92 211.479 11.2C211.479 11.408 211.547 11.576 211.683 11.704C211.819 11.832 211.987 11.932 212.187 12.004C212.395 12.076 212.687 12.156 213.063 12.244C213.559 12.356 213.959 12.472 214.263 12.592C214.575 12.712 214.839 12.904 215.055 13.168C215.279 13.424 215.391 13.776 215.391 14.224C215.391 14.776 215.179 15.224 214.755 15.568C214.339 15.912 213.775 16.084 213.063 16.084C212.239 16.084 211.571 15.892 211.059 15.508C210.555 15.124 210.251 14.588 210.147 13.9H211.479C211.519 14.26 211.679 14.552 211.959 14.776C212.239 15 212.607 15.112 213.063 15.112C213.391 15.112 213.647 15.028 213.831 14.86C214.023 14.684 214.119 14.464 214.119 14.2C214.119 13.968 214.047 13.784 213.903 13.648C213.759 13.512 213.579 13.408 213.363 13.336C213.147 13.256 212.851 13.176 212.475 13.096C211.995 12.984 211.603 12.872 211.299 12.76C211.003 12.648 210.747 12.468 210.531 12.22C210.323 11.964 210.219 11.62 210.219 11.188C210.219 10.628 210.427 10.176 210.843 9.832C211.267 9.48 211.851 9.304 212.595 9.304Z" fill="#6070FF"/>
</svg>
