<svg width="263" height="65" viewBox="0 0 263 65" fill="none" xmlns="http://www.w3.org/2000/svg">
<path d="M7.29 9.555H2.64L1.755 12H0.285L4.2 1.62H5.745L9.645 12H8.175L7.29 9.555ZM6.9 8.49L4.965 3.15L3.03 8.49H6.9ZM18.1077 3.66C18.9077 3.66 19.5827 3.86 20.1327 4.26C20.6927 4.66 21.0827 5.195 21.3027 5.865V0.9H22.6677V12H21.3027V9.9C21.0827 10.57 20.6927 11.105 20.1327 11.505C19.5827 11.905 18.9077 12.105 18.1077 12.105C17.3777 12.105 16.7277 11.935 16.1577 11.595C15.5877 11.255 15.1377 10.77 14.8077 10.14C14.4877 9.5 14.3277 8.75 14.3277 7.89C14.3277 7.03 14.4877 6.28 14.8077 5.64C15.1377 5 15.5877 4.51 16.1577 4.17C16.7277 3.83 17.3777 3.66 18.1077 3.66ZM18.4977 4.875C17.6577 4.875 16.9827 5.145 16.4727 5.685C15.9727 6.215 15.7227 6.95 15.7227 7.89C15.7227 8.83 15.9727 9.57 16.4727 10.11C16.9827 10.64 17.6577 10.905 18.4977 10.905C19.0377 10.905 19.5177 10.78 19.9377 10.53C20.3677 10.28 20.7027 9.93 20.9427 9.48C21.1827 9.02 21.3027 8.49 21.3027 7.89C21.3027 7.29 21.1827 6.76 20.9427 6.3C20.7027 5.84 20.3677 5.49 19.9377 5.25C19.5177 5 19.0377 4.875 18.4977 4.875ZM28.2151 3.66C29.0151 3.66 29.6901 3.86 30.2401 4.26C30.8001 4.66 31.1901 5.195 31.4101 5.865V3.765H32.7751V12H31.4101V9.9C31.1901 10.57 30.8001 11.105 30.2401 11.505C29.6901 11.905 29.0151 12.105 28.2151 12.105C27.4851 12.105 26.8351 11.935 26.2651 11.595C25.6951 11.255 25.2451 10.77 24.9151 10.14C24.5951 9.5 24.4351 8.75 24.4351 7.89C24.4351 7.03 24.5951 6.28 24.9151 5.64C25.2451 5 25.6951 4.51 26.2651 4.17C26.8351 3.83 27.4851 3.66 28.2151 3.66ZM28.6051 4.875C27.7651 4.875 27.0901 5.145 26.5801 5.685C26.0801 6.215 25.8301 6.95 25.8301 7.89C25.8301 8.83 26.0801 9.57 26.5801 10.11C27.0901 10.64 27.7651 10.905 28.6051 10.905C29.1451 10.905 29.6251 10.78 30.0451 10.53C30.4751 10.28 30.8101 9.93 31.0501 9.48C31.2901 9.02 31.4101 8.49 31.4101 7.89C31.4101 7.29 31.2901 6.76 31.0501 6.3C30.8101 5.84 30.4751 5.49 30.0451 5.25C29.6251 5 29.1451 4.875 28.6051 4.875ZM34.7075 1.35C34.7075 1.1 34.7925 0.9 34.9625 0.749999C35.1325 0.589999 35.3575 0.51 35.6375 0.51C35.9175 0.51 36.1425 0.589999 36.3125 0.749999C36.4825 0.9 36.5675 1.1 36.5675 1.35C36.5675 1.6 36.4825 1.805 36.3125 1.965C36.1425 2.115 35.9175 2.19 35.6375 2.19C35.3575 2.19 35.1325 2.115 34.9625 1.965C34.7925 1.805 34.7075 1.6 34.7075 1.35ZM36.3125 3.765V12H34.9475V3.765H36.3125ZM39.8721 0.9V12H38.5071V0.9H39.8721ZM42.6367 3.765L45.3067 10.245L47.7817 3.765H49.2967L44.4067 15.9H42.8617L44.5717 11.865L41.1067 3.765H42.6367ZM56.8342 3.66C57.7642 3.66 58.5092 3.905 59.0692 4.395C59.6392 4.875 59.9842 5.525 60.1042 6.345H58.7992C58.7392 5.855 58.5342 5.455 58.1842 5.145C57.8442 4.825 57.3842 4.665 56.8042 4.665C56.3142 4.665 55.9292 4.785 55.6492 5.025C55.3792 5.255 55.2442 5.57 55.2442 5.97C55.2442 6.27 55.3342 6.515 55.5142 6.705C55.7042 6.885 55.9342 7.025 56.2042 7.125C56.4842 7.215 56.8642 7.315 57.3442 7.425C57.9542 7.565 58.4442 7.71 58.8142 7.86C59.1942 8 59.5142 8.23 59.7742 8.55C60.0442 8.87 60.1792 9.3 60.1792 9.84C60.1792 10.51 59.9242 11.055 59.4142 11.475C58.9142 11.895 58.2442 12.105 57.4042 12.105C56.4242 12.105 55.6242 11.87 55.0042 11.4C54.3842 10.93 54.0192 10.275 53.9092 9.435H55.2292C55.2792 9.935 55.4942 10.34 55.8742 10.65C56.2642 10.96 56.7742 11.115 57.4042 11.115C57.8742 11.115 58.2392 10.995 58.4992 10.755C58.7692 10.515 58.9042 10.2 58.9042 9.81C58.9042 9.49 58.8092 9.235 58.6192 9.045C58.4292 8.855 58.1942 8.71 57.9142 8.61C57.6342 8.51 57.2492 8.405 56.7592 8.295C56.1492 8.155 55.6592 8.015 55.2892 7.875C54.9292 7.735 54.6192 7.515 54.3592 7.215C54.1092 6.905 53.9842 6.49 53.9842 5.97C53.9842 5.28 54.2392 4.725 54.7492 4.305C55.2592 3.875 55.9542 3.66 56.8342 3.66ZM69.5782 7.425C69.5782 7.715 69.5582 7.965 69.5182 8.175H62.9332C62.9632 9.115 63.2282 9.82 63.7282 10.29C64.2382 10.76 64.8582 10.995 65.5882 10.995C66.2482 10.995 66.7982 10.83 67.2382 10.5C67.6882 10.16 67.9632 9.71 68.0632 9.15H69.5182C69.4182 9.72 69.1932 10.23 68.8432 10.68C68.5032 11.13 68.0582 11.48 67.5082 11.73C66.9582 11.98 66.3382 12.105 65.6482 12.105C64.8582 12.105 64.1582 11.935 63.5482 11.595C62.9382 11.255 62.4582 10.77 62.1082 10.14C61.7682 9.5 61.5982 8.75 61.5982 7.89C61.5982 7.03 61.7682 6.28 62.1082 5.64C62.4582 5 62.9382 4.51 63.5482 4.17C64.1582 3.83 64.8582 3.66 65.6482 3.66C66.4482 3.66 67.1432 3.83 67.7332 4.17C68.3332 4.51 68.7882 4.965 69.0982 5.535C69.4182 6.105 69.5782 6.735 69.5782 7.425ZM68.1982 7.515C68.2282 6.905 68.1282 6.395 67.8982 5.985C67.6682 5.575 67.3532 5.27 66.9532 5.07C66.5532 4.87 66.1182 4.77 65.6482 4.77C64.8982 4.77 64.2682 5.005 63.7582 5.475C63.2482 5.935 62.9732 6.615 62.9332 7.515H68.1982ZM72.7286 0.9V12H71.3636V0.9H72.7286ZM82.4981 7.425C82.4981 7.715 82.4781 7.965 82.4381 8.175H75.8531C75.8831 9.115 76.1481 9.82 76.6481 10.29C77.1581 10.76 77.7781 10.995 78.5081 10.995C79.1681 10.995 79.7181 10.83 80.1581 10.5C80.6081 10.16 80.8831 9.71 80.9831 9.15H82.4381C82.3381 9.72 82.1131 10.23 81.7631 10.68C81.4231 11.13 80.9781 11.48 80.4281 11.73C79.8781 11.98 79.2581 12.105 78.5681 12.105C77.7781 12.105 77.0781 11.935 76.4681 11.595C75.8581 11.255 75.3781 10.77 75.0281 10.14C74.6881 9.5 74.5181 8.75 74.5181 7.89C74.5181 7.03 74.6881 6.28 75.0281 5.64C75.3781 5 75.8581 4.51 76.4681 4.17C77.0781 3.83 77.7781 3.66 78.5681 3.66C79.3681 3.66 80.0631 3.83 80.6531 4.17C81.2531 4.51 81.7081 4.965 82.0181 5.535C82.3381 6.105 82.4981 6.735 82.4981 7.425ZM81.1181 7.515C81.1481 6.905 81.0481 6.395 80.8181 5.985C80.5881 5.575 80.2731 5.27 79.8731 5.07C79.4731 4.87 79.0381 4.77 78.5681 4.77C77.8181 4.77 77.1881 5.005 76.6781 5.475C76.1681 5.935 75.8931 6.615 75.8531 7.515H81.1181ZM87.9285 3.66C88.9785 3.66 89.8485 3.94 90.5385 4.5C91.2285 5.06 91.6535 5.81 91.8135 6.75H90.3735C90.2735 6.16 89.9985 5.7 89.5485 5.37C89.1085 5.03 88.5585 4.86 87.8985 4.86C87.4185 4.86 86.9785 4.97 86.5785 5.19C86.1885 5.41 85.8735 5.75 85.6335 6.21C85.3935 6.66 85.2735 7.22 85.2735 7.89C85.2735 8.56 85.3935 9.125 85.6335 9.585C85.8735 10.035 86.1885 10.37 86.5785 10.59C86.9785 10.81 87.4185 10.92 87.8985 10.92C88.5585 10.92 89.1085 10.75 89.5485 10.41C89.9985 10.07 90.2735 9.605 90.3735 9.015H91.8135C91.6535 9.965 91.2285 10.72 90.5385 11.28C89.8485 11.83 88.9785 12.105 87.9285 12.105C87.1385 12.105 86.4385 11.935 85.8285 11.595C85.2185 11.255 84.7385 10.77 84.3885 10.14C84.0485 9.5 83.8785 8.75 83.8785 7.89C83.8785 7.03 84.0485 6.28 84.3885 5.64C84.7385 5 85.2185 4.51 85.8285 4.17C86.4385 3.83 87.1385 3.66 87.9285 3.66ZM97.5299 10.8V12H96.5099C95.6699 12 95.0399 11.8 94.6199 11.4C94.2099 11 94.0049 10.33 94.0049 9.39V4.95H92.7749V3.765H94.0049V1.71H95.3849V3.765H97.5149V4.95H95.3849V9.42C95.3849 9.95 95.4799 10.315 95.6699 10.515C95.8699 10.705 96.2099 10.8 96.6899 10.8H97.5299ZM98.9556 1.35C98.9556 1.1 99.0406 0.9 99.2106 0.749999C99.3806 0.589999 99.6056 0.51 99.8856 0.51C100.166 0.51 100.391 0.589999 100.561 0.749999C100.731 0.9 100.816 1.1 100.816 1.35C100.816 1.6 100.731 1.805 100.561 1.965C100.391 2.115 100.166 2.19 99.8856 2.19C99.6056 2.19 99.3806 2.115 99.2106 1.965C99.0406 1.805 98.9556 1.6 98.9556 1.35ZM100.561 3.765V12H99.1956V3.765H100.561ZM106.49 3.66C107.28 3.66 107.985 3.83 108.605 4.17C109.235 4.51 109.725 5 110.075 5.64C110.435 6.28 110.615 7.03 110.615 7.89C110.615 8.75 110.435 9.5 110.075 10.14C109.725 10.77 109.235 11.255 108.605 11.595C107.985 11.935 107.28 12.105 106.49 12.105C105.7 12.105 104.99 11.935 104.36 11.595C103.74 11.255 103.25 10.77 102.89 10.14C102.53 9.5 102.35 8.75 102.35 7.89C102.35 7.03 102.53 6.28 102.89 5.64C103.25 5 103.74 4.51 104.36 4.17C104.99 3.83 105.7 3.66 106.49 3.66ZM106.49 4.86C106 4.86 105.545 4.97 105.125 5.19C104.715 5.41 104.38 5.75 104.12 6.21C103.87 6.66 103.745 7.22 103.745 7.89C103.745 8.55 103.87 9.11 104.12 9.57C104.38 10.02 104.715 10.355 105.125 10.575C105.545 10.795 106 10.905 106.49 10.905C106.98 10.905 107.43 10.795 107.84 10.575C108.26 10.355 108.595 10.02 108.845 9.57C109.105 9.11 109.235 8.55 109.235 7.89C109.235 7.22 109.105 6.66 108.845 6.21C108.595 5.75 108.26 5.41 107.84 5.19C107.43 4.97 106.98 4.86 106.49 4.86ZM116.729 3.63C117.689 3.63 118.464 3.94 119.054 4.56C119.644 5.17 119.939 6.055 119.939 7.215V12H118.574V7.335C118.574 6.515 118.364 5.885 117.944 5.445C117.524 5.005 116.954 4.785 116.234 4.785C115.484 4.785 114.884 5.03 114.434 5.52C113.984 6 113.759 6.705 113.759 7.635V12H112.394V3.765H113.759V5.715C113.969 5.045 114.339 4.53 114.869 4.17C115.409 3.81 116.029 3.63 116.729 3.63ZM129.474 3.66C130.264 3.66 130.969 3.83 131.589 4.17C132.219 4.51 132.709 5 133.059 5.64C133.419 6.28 133.599 7.03 133.599 7.89C133.599 8.75 133.419 9.5 133.059 10.14C132.709 10.77 132.219 11.255 131.589 11.595C130.969 11.935 130.264 12.105 129.474 12.105C128.684 12.105 127.974 11.935 127.344 11.595C126.724 11.255 126.234 10.77 125.874 10.14C125.514 9.5 125.334 8.75 125.334 7.89C125.334 7.03 125.514 6.28 125.874 5.64C126.234 5 126.724 4.51 127.344 4.17C127.974 3.83 128.684 3.66 129.474 3.66ZM129.474 4.86C128.984 4.86 128.529 4.97 128.109 5.19C127.699 5.41 127.364 5.75 127.104 6.21C126.854 6.66 126.729 7.22 126.729 7.89C126.729 8.55 126.854 9.11 127.104 9.57C127.364 10.02 127.699 10.355 128.109 10.575C128.529 10.795 128.984 10.905 129.474 10.905C129.964 10.905 130.414 10.795 130.824 10.575C131.244 10.355 131.579 10.02 131.829 9.57C132.089 9.11 132.219 8.55 132.219 7.89C132.219 7.22 132.089 6.66 131.829 6.21C131.579 5.75 131.244 5.41 130.824 5.19C130.414 4.97 129.964 4.86 129.474 4.86ZM139.022 1.815C138.292 1.805 137.782 1.93 137.492 2.19C137.212 2.45 137.072 2.9 137.072 3.54V3.765H139.022V4.965H137.072V12H135.707V4.965H134.522V3.765H135.707V3.435C135.707 1.465 136.812 0.525 139.022 0.614999V1.815ZM148.755 3.66C149.485 3.66 150.135 3.83 150.705 4.17C151.275 4.51 151.72 5 152.04 5.64C152.37 6.28 152.535 7.03 152.535 7.89C152.535 8.75 152.37 9.5 152.04 10.14C151.72 10.77 151.275 11.255 150.705 11.595C150.135 11.935 149.485 12.105 148.755 12.105C147.955 12.105 147.275 11.905 146.715 11.505C146.165 11.095 145.785 10.56 145.575 9.9V15.9H144.21V3.765H145.575V5.865C145.785 5.205 146.165 4.675 146.715 4.275C147.275 3.865 147.955 3.66 148.755 3.66ZM148.365 4.875C147.835 4.875 147.355 5 146.925 5.25C146.495 5.49 146.16 5.84 145.92 6.3C145.68 6.76 145.56 7.29 145.56 7.89C145.56 8.49 145.68 9.02 145.92 9.48C146.16 9.93 146.495 10.28 146.925 10.53C147.355 10.78 147.835 10.905 148.365 10.905C149.215 10.905 149.89 10.64 150.39 10.11C150.9 9.57 151.155 8.83 151.155 7.89C151.155 6.95 150.9 6.215 150.39 5.685C149.89 5.145 149.215 4.875 148.365 4.875ZM155.683 5.43C155.953 4.86 156.348 4.42 156.868 4.11C157.388 3.79 158.008 3.63 158.728 3.63V5.115H158.308C157.538 5.115 156.908 5.315 156.418 5.715C155.928 6.105 155.683 6.755 155.683 7.665V12H154.318V3.765H155.683V5.43ZM159.834 1.35C159.834 1.1 159.919 0.9 160.089 0.749999C160.259 0.589999 160.484 0.51 160.764 0.51C161.044 0.51 161.269 0.589999 161.439 0.749999C161.609 0.9 161.694 1.1 161.694 1.35C161.694 1.6 161.609 1.805 161.439 1.965C161.269 2.115 161.044 2.19 160.764 2.19C160.484 2.19 160.259 2.115 160.089 1.965C159.919 1.805 159.834 1.6 159.834 1.35ZM161.439 3.765V12H160.074V3.765H161.439ZM166.829 10.545L169.379 3.765H170.849L167.624 12H166.004L162.779 3.765H164.249L166.829 10.545ZM175.564 3.66C176.364 3.66 177.039 3.86 177.589 4.26C178.149 4.66 178.539 5.195 178.759 5.865V3.765H180.124V12H178.759V9.9C178.539 10.57 178.149 11.105 177.589 11.505C177.039 11.905 176.364 12.105 175.564 12.105C174.834 12.105 174.184 11.935 173.614 11.595C173.044 11.255 172.594 10.77 172.264 10.14C171.944 9.5 171.784 8.75 171.784 7.89C171.784 7.03 171.944 6.28 172.264 5.64C172.594 5 173.044 4.51 173.614 4.17C174.184 3.83 174.834 3.66 175.564 3.66ZM175.954 4.875C175.114 4.875 174.439 5.145 173.929 5.685C173.429 6.215 173.179 6.95 173.179 7.89C173.179 8.83 173.429 9.57 173.929 10.11C174.439 10.64 175.114 10.905 175.954 10.905C176.494 10.905 176.974 10.78 177.394 10.53C177.824 10.28 178.159 9.93 178.399 9.48C178.639 9.02 178.759 8.49 178.759 7.89C178.759 7.29 178.639 6.76 178.399 6.3C178.159 5.84 177.824 5.49 177.394 5.25C176.974 5 176.494 4.875 175.954 4.875ZM186.226 10.8V12H185.206C184.366 12 183.736 11.8 183.316 11.4C182.906 11 182.701 10.33 182.701 9.39V4.95H181.471V3.765H182.701V1.71H184.081V3.765H186.211V4.95H184.081V9.42C184.081 9.95 184.176 10.315 184.366 10.515C184.566 10.705 184.906 10.8 185.386 10.8H186.226ZM195.467 7.425C195.467 7.715 195.447 7.965 195.407 8.175H188.822C188.852 9.115 189.117 9.82 189.617 10.29C190.127 10.76 190.747 10.995 191.477 10.995C192.137 10.995 192.687 10.83 193.127 10.5C193.577 10.16 193.852 9.71 193.952 9.15H195.407C195.307 9.72 195.082 10.23 194.732 10.68C194.392 11.13 193.947 11.48 193.397 11.73C192.847 11.98 192.227 12.105 191.537 12.105C190.747 12.105 190.047 11.935 189.437 11.595C188.827 11.255 188.347 10.77 187.997 10.14C187.657 9.5 187.487 8.75 187.487 7.89C187.487 7.03 187.657 6.28 187.997 5.64C188.347 5 188.827 4.51 189.437 4.17C190.047 3.83 190.747 3.66 191.537 3.66C192.337 3.66 193.032 3.83 193.622 4.17C194.222 4.51 194.677 4.965 194.987 5.535C195.307 6.105 195.467 6.735 195.467 7.425ZM194.087 7.515C194.117 6.905 194.017 6.395 193.787 5.985C193.557 5.575 193.242 5.27 192.842 5.07C192.442 4.87 192.007 4.77 191.537 4.77C190.787 4.77 190.157 5.005 189.647 5.475C189.137 5.935 188.862 6.615 188.822 7.515H194.087ZM198.617 0.9V12H197.252V0.9H198.617ZM201.382 3.765L204.052 10.245L206.527 3.765H208.042L203.152 15.9H201.607L203.317 11.865L199.852 3.765H201.382ZM5.64 27.66C6.37 27.66 7.02 27.83 7.59 28.17C8.16 28.51 8.605 29 8.925 29.64C9.255 30.28 9.42 31.03 9.42 31.89C9.42 32.75 9.255 33.5 8.925 34.14C8.605 34.77 8.16 35.255 7.59 35.595C7.02 35.935 6.37 36.105 5.64 36.105C4.84 36.105 4.16 35.905 3.6 35.505C3.05 35.095 2.67 34.56 2.46 33.9V39.9H1.095V27.765H2.46V29.865C2.67 29.205 3.05 28.675 3.6 28.275C4.16 27.865 4.84 27.66 5.64 27.66ZM5.25 28.875C4.72 28.875 4.24 29 3.81 29.25C3.38 29.49 3.045 29.84 2.805 30.3C2.565 30.76 2.445 31.29 2.445 31.89C2.445 32.49 2.565 33.02 2.805 33.48C3.045 33.93 3.38 34.28 3.81 34.53C4.24 34.78 4.72 34.905 5.25 34.905C6.1 34.905 6.775 34.64 7.275 34.11C7.785 33.57 8.04 32.83 8.04 31.89C8.04 30.95 7.785 30.215 7.275 29.685C6.775 29.145 6.1 28.875 5.25 28.875ZM18.7774 31.425C18.7774 31.715 18.7574 31.965 18.7174 32.175H12.1324C12.1624 33.115 12.4274 33.82 12.9274 34.29C13.4374 34.76 14.0574 34.995 14.7874 34.995C15.4474 34.995 15.9974 34.83 16.4374 34.5C16.8874 34.16 17.1624 33.71 17.2624 33.15H18.7174C18.6174 33.72 18.3924 34.23 18.0424 34.68C17.7024 35.13 17.2574 35.48 16.7074 35.73C16.1574 35.98 15.5374 36.105 14.8474 36.105C14.0574 36.105 13.3574 35.935 12.7474 35.595C12.1374 35.255 11.6574 34.77 11.3074 34.14C10.9674 33.5 10.7974 32.75 10.7974 31.89C10.7974 31.03 10.9674 30.28 11.3074 29.64C11.6574 29 12.1374 28.51 12.7474 28.17C13.3574 27.83 14.0574 27.66 14.8474 27.66C15.6474 27.66 16.3424 27.83 16.9324 28.17C17.5324 28.51 17.9874 28.965 18.2974 29.535C18.6174 30.105 18.7774 30.735 18.7774 31.425ZM17.3974 31.515C17.4274 30.905 17.3274 30.395 17.0974 29.985C16.8674 29.575 16.5524 29.27 16.1524 29.07C15.7524 28.87 15.3174 28.77 14.8474 28.77C14.0974 28.77 13.4674 29.005 12.9574 29.475C12.4474 29.935 12.1724 30.615 12.1324 31.515H17.3974ZM21.9278 29.43C22.1978 28.86 22.5928 28.42 23.1128 28.11C23.6328 27.79 24.2528 27.63 24.9728 27.63V29.115H24.5528C23.7828 29.115 23.1528 29.315 22.6628 29.715C22.1728 30.105 21.9278 30.755 21.9278 31.665V36H20.5628V27.765H21.9278V29.43ZM28.8996 27.66C29.8296 27.66 30.5746 27.905 31.1346 28.395C31.7046 28.875 32.0496 29.525 32.1696 30.345H30.8646C30.8046 29.855 30.5996 29.455 30.2496 29.145C29.9096 28.825 29.4496 28.665 28.8696 28.665C28.3796 28.665 27.9946 28.785 27.7146 29.025C27.4446 29.255 27.3096 29.57 27.3096 29.97C27.3096 30.27 27.3996 30.515 27.5796 30.705C27.7696 30.885 27.9996 31.025 28.2696 31.125C28.5496 31.215 28.9296 31.315 29.4096 31.425C30.0196 31.565 30.5096 31.71 30.8796 31.86C31.2596 32 31.5796 32.23 31.8396 32.55C32.1096 32.87 32.2446 33.3 32.2446 33.84C32.2446 34.51 31.9896 35.055 31.4796 35.475C30.9796 35.895 30.3096 36.105 29.4696 36.105C28.4896 36.105 27.6896 35.87 27.0696 35.4C26.4496 34.93 26.0846 34.275 25.9746 33.435H27.2946C27.3446 33.935 27.5596 34.34 27.9396 34.65C28.3296 34.96 28.8396 35.115 29.4696 35.115C29.9396 35.115 30.3046 34.995 30.5646 34.755C30.8346 34.515 30.9696 34.2 30.9696 33.81C30.9696 33.49 30.8746 33.235 30.6846 33.045C30.4946 32.855 30.2596 32.71 29.9796 32.61C29.6996 32.51 29.3146 32.405 28.8246 32.295C28.2146 32.155 27.7246 32.015 27.3546 31.875C26.9946 31.735 26.6846 31.515 26.4246 31.215C26.1746 30.905 26.0496 30.49 26.0496 29.97C26.0496 29.28 26.3046 28.725 26.8146 28.305C27.3246 27.875 28.0196 27.66 28.8996 27.66ZM37.8036 27.66C38.5936 27.66 39.2986 27.83 39.9186 28.17C40.5486 28.51 41.0386 29 41.3886 29.64C41.7486 30.28 41.9286 31.03 41.9286 31.89C41.9286 32.75 41.7486 33.5 41.3886 34.14C41.0386 34.77 40.5486 35.255 39.9186 35.595C39.2986 35.935 38.5936 36.105 37.8036 36.105C37.0136 36.105 36.3036 35.935 35.6736 35.595C35.0536 35.255 34.5636 34.77 34.2036 34.14C33.8436 33.5 33.6636 32.75 33.6636 31.89C33.6636 31.03 33.8436 30.28 34.2036 29.64C34.5636 29 35.0536 28.51 35.6736 28.17C36.3036 27.83 37.0136 27.66 37.8036 27.66ZM37.8036 28.86C37.3136 28.86 36.8586 28.97 36.4386 29.19C36.0286 29.41 35.6936 29.75 35.4336 30.21C35.1836 30.66 35.0586 31.22 35.0586 31.89C35.0586 32.55 35.1836 33.11 35.4336 33.57C35.6936 34.02 36.0286 34.355 36.4386 34.575C36.8586 34.795 37.3136 34.905 37.8036 34.905C38.2936 34.905 38.7436 34.795 39.1536 34.575C39.5736 34.355 39.9086 34.02 40.1586 33.57C40.4186 33.11 40.5486 32.55 40.5486 31.89C40.5486 31.22 40.4186 30.66 40.1586 30.21C39.9086 29.75 39.5736 29.41 39.1536 29.19C38.7436 28.97 38.2936 28.86 37.8036 28.86ZM48.0423 27.63C49.0023 27.63 49.7773 27.94 50.3673 28.56C50.9573 29.17 51.2523 30.055 51.2523 31.215V36H49.8873V31.335C49.8873 30.515 49.6773 29.885 49.2573 29.445C48.8373 29.005 48.2673 28.785 47.5473 28.785C46.7973 28.785 46.1973 29.03 45.7473 29.52C45.2973 30 45.0723 30.705 45.0723 31.635V36H43.7073V27.765H45.0723V29.715C45.2823 29.045 45.6523 28.53 46.1823 28.17C46.7223 27.81 47.3423 27.63 48.0423 27.63ZM56.721 27.66C57.521 27.66 58.196 27.86 58.746 28.26C59.306 28.66 59.696 29.195 59.916 29.865V27.765H61.281V36H59.916V33.9C59.696 34.57 59.306 35.105 58.746 35.505C58.196 35.905 57.521 36.105 56.721 36.105C55.991 36.105 55.341 35.935 54.771 35.595C54.201 35.255 53.751 34.77 53.421 34.14C53.101 33.5 52.941 32.75 52.941 31.89C52.941 31.03 53.101 30.28 53.421 29.64C53.751 29 54.201 28.51 54.771 28.17C55.341 27.83 55.991 27.66 56.721 27.66ZM57.111 28.875C56.271 28.875 55.596 29.145 55.086 29.685C54.586 30.215 54.336 30.95 54.336 31.89C54.336 32.83 54.586 33.57 55.086 34.11C55.596 34.64 56.271 34.905 57.111 34.905C57.651 34.905 58.131 34.78 58.551 34.53C58.981 34.28 59.316 33.93 59.556 33.48C59.796 33.02 59.916 32.49 59.916 31.89C59.916 31.29 59.796 30.76 59.556 30.3C59.316 29.84 58.981 29.49 58.551 29.25C58.131 29 57.651 28.875 57.111 28.875ZM64.8184 24.9V36H63.4534V24.9H64.8184ZM66.773 25.35C66.773 25.1 66.858 24.9 67.028 24.75C67.198 24.59 67.423 24.51 67.703 24.51C67.983 24.51 68.208 24.59 68.378 24.75C68.548 24.9 68.633 25.1 68.633 25.35C68.633 25.6 68.548 25.805 68.378 25.965C68.208 26.115 67.983 26.19 67.703 26.19C67.423 26.19 67.198 26.115 67.028 25.965C66.858 25.805 66.773 25.6 66.773 25.35ZM68.378 27.765V36H67.013V27.765H68.378ZM71.3675 34.845H75.7775V36H69.8675V34.905L74.0675 28.92H69.9875V27.765H75.6275V28.875L71.3675 34.845ZM84.8419 31.425C84.8419 31.715 84.8219 31.965 84.7819 32.175H78.1969C78.2269 33.115 78.4919 33.82 78.9919 34.29C79.5019 34.76 80.1219 34.995 80.8519 34.995C81.5119 34.995 82.0619 34.83 82.5019 34.5C82.9519 34.16 83.2269 33.71 83.3269 33.15H84.7819C84.6819 33.72 84.4569 34.23 84.1069 34.68C83.7669 35.13 83.3219 35.48 82.7719 35.73C82.2219 35.98 81.6019 36.105 80.9119 36.105C80.1219 36.105 79.4219 35.935 78.8119 35.595C78.2019 35.255 77.7219 34.77 77.3719 34.14C77.0319 33.5 76.8619 32.75 76.8619 31.89C76.8619 31.03 77.0319 30.28 77.3719 29.64C77.7219 29 78.2019 28.51 78.8119 28.17C79.4219 27.83 80.1219 27.66 80.9119 27.66C81.7119 27.66 82.4069 27.83 82.9969 28.17C83.5969 28.51 84.0519 28.965 84.3619 29.535C84.6819 30.105 84.8419 30.735 84.8419 31.425ZM83.4619 31.515C83.4919 30.905 83.3919 30.395 83.1619 29.985C82.9319 29.575 82.6169 29.27 82.2169 29.07C81.8169 28.87 81.3819 28.77 80.9119 28.77C80.1619 28.77 79.5319 29.005 79.0219 29.475C78.5119 29.935 78.2369 30.615 78.1969 31.515H83.4619ZM90.0022 27.66C90.8022 27.66 91.4772 27.86 92.0272 28.26C92.5872 28.66 92.9772 29.195 93.1972 29.865V24.9H94.5622V36H93.1972V33.9C92.9772 34.57 92.5872 35.105 92.0272 35.505C91.4772 35.905 90.8022 36.105 90.0022 36.105C89.2722 36.105 88.6222 35.935 88.0522 35.595C87.4822 35.255 87.0322 34.77 86.7022 34.14C86.3822 33.5 86.2222 32.75 86.2222 31.89C86.2222 31.03 86.3822 30.28 86.7022 29.64C87.0322 29 87.4822 28.51 88.0522 28.17C88.6222 27.83 89.2722 27.66 90.0022 27.66ZM90.3922 28.875C89.5522 28.875 88.8772 29.145 88.3672 29.685C87.8672 30.215 87.6172 30.95 87.6172 31.89C87.6172 32.83 87.8672 33.57 88.3672 34.11C88.8772 34.64 89.5522 34.905 90.3922 34.905C90.9322 34.905 91.4122 34.78 91.8322 34.53C92.2622 34.28 92.5972 33.93 92.8372 33.48C93.0772 33.02 93.1972 32.49 93.1972 31.89C93.1972 31.29 93.0772 30.76 92.8372 30.3C92.5972 29.84 92.2622 29.49 91.8322 29.25C91.4122 29 90.9322 28.875 90.3922 28.875ZM101.806 29.43C102.076 28.86 102.471 28.42 102.991 28.11C103.511 27.79 104.131 27.63 104.851 27.63V29.115H104.431C103.661 29.115 103.031 29.315 102.541 29.715C102.051 30.105 101.806 30.755 101.806 31.665V36H100.441V27.765H101.806V29.43ZM113.773 31.425C113.773 31.715 113.753 31.965 113.713 32.175H107.128C107.158 33.115 107.423 33.82 107.923 34.29C108.433 34.76 109.053 34.995 109.783 34.995C110.443 34.995 110.993 34.83 111.433 34.5C111.883 34.16 112.158 33.71 112.258 33.15H113.713C113.613 33.72 113.388 34.23 113.038 34.68C112.698 35.13 112.253 35.48 111.703 35.73C111.153 35.98 110.533 36.105 109.843 36.105C109.053 36.105 108.353 35.935 107.743 35.595C107.133 35.255 106.653 34.77 106.303 34.14C105.963 33.5 105.793 32.75 105.793 31.89C105.793 31.03 105.963 30.28 106.303 29.64C106.653 29 107.133 28.51 107.743 28.17C108.353 27.83 109.053 27.66 109.843 27.66C110.643 27.66 111.338 27.83 111.928 28.17C112.528 28.51 112.983 28.965 113.293 29.535C113.613 30.105 113.773 30.735 113.773 31.425ZM112.393 31.515C112.423 30.905 112.323 30.395 112.093 29.985C111.863 29.575 111.548 29.27 111.148 29.07C110.748 28.87 110.313 28.77 109.843 28.77C109.093 28.77 108.463 29.005 107.953 29.475C107.443 29.935 107.168 30.615 107.128 31.515H112.393ZM118.933 27.66C119.733 27.66 120.408 27.86 120.958 28.26C121.518 28.66 121.908 29.195 122.128 29.865V27.765H123.493V36H122.128V33.9C121.908 34.57 121.518 35.105 120.958 35.505C120.408 35.905 119.733 36.105 118.933 36.105C118.203 36.105 117.553 35.935 116.983 35.595C116.413 35.255 115.963 34.77 115.633 34.14C115.313 33.5 115.153 32.75 115.153 31.89C115.153 31.03 115.313 30.28 115.633 29.64C115.963 29 116.413 28.51 116.983 28.17C117.553 27.83 118.203 27.66 118.933 27.66ZM119.323 28.875C118.483 28.875 117.808 29.145 117.298 29.685C116.798 30.215 116.548 30.95 116.548 31.89C116.548 32.83 116.798 33.57 117.298 34.11C117.808 34.64 118.483 34.905 119.323 34.905C119.863 34.905 120.343 34.78 120.763 34.53C121.193 34.28 121.528 33.93 121.768 33.48C122.008 33.02 122.128 32.49 122.128 31.89C122.128 31.29 122.008 30.76 121.768 30.3C121.528 29.84 121.193 29.49 120.763 29.25C120.343 29 119.863 28.875 119.323 28.875ZM129.04 27.66C129.84 27.66 130.515 27.86 131.065 28.26C131.625 28.66 132.015 29.195 132.235 29.865V24.9H133.6V36H132.235V33.9C132.015 34.57 131.625 35.105 131.065 35.505C130.515 35.905 129.84 36.105 129.04 36.105C128.31 36.105 127.66 35.935 127.09 35.595C126.52 35.255 126.07 34.77 125.74 34.14C125.42 33.5 125.26 32.75 125.26 31.89C125.26 31.03 125.42 30.28 125.74 29.64C126.07 29 126.52 28.51 127.09 28.17C127.66 27.83 128.31 27.66 129.04 27.66ZM129.43 28.875C128.59 28.875 127.915 29.145 127.405 29.685C126.905 30.215 126.655 30.95 126.655 31.89C126.655 32.83 126.905 33.57 127.405 34.11C127.915 34.64 128.59 34.905 129.43 34.905C129.97 34.905 130.45 34.78 130.87 34.53C131.3 34.28 131.635 33.93 131.875 33.48C132.115 33.02 132.235 32.49 132.235 31.89C132.235 31.29 132.115 30.76 131.875 30.3C131.635 29.84 131.3 29.49 130.87 29.25C130.45 29 129.97 28.875 129.43 28.875ZM138.353 27.66C139.283 27.66 140.028 27.905 140.588 28.395C141.158 28.875 141.503 29.525 141.623 30.345H140.318C140.258 29.855 140.053 29.455 139.703 29.145C139.363 28.825 138.903 28.665 138.323 28.665C137.833 28.665 137.448 28.785 137.168 29.025C136.898 29.255 136.763 29.57 136.763 29.97C136.763 30.27 136.853 30.515 137.033 30.705C137.223 30.885 137.453 31.025 137.723 31.125C138.003 31.215 138.383 31.315 138.863 31.425C139.473 31.565 139.963 31.71 140.333 31.86C140.713 32 141.033 32.23 141.293 32.55C141.563 32.87 141.698 33.3 141.698 33.84C141.698 34.51 141.443 35.055 140.933 35.475C140.433 35.895 139.763 36.105 138.923 36.105C137.943 36.105 137.143 35.87 136.523 35.4C135.903 34.93 135.538 34.275 135.428 33.435H136.748C136.798 33.935 137.013 34.34 137.393 34.65C137.783 34.96 138.293 35.115 138.923 35.115C139.393 35.115 139.758 34.995 140.018 34.755C140.288 34.515 140.423 34.2 140.423 33.81C140.423 33.49 140.328 33.235 140.138 33.045C139.948 32.855 139.713 32.71 139.433 32.61C139.153 32.51 138.768 32.405 138.278 32.295C137.668 32.155 137.178 32.015 136.808 31.875C136.448 31.735 136.138 31.515 135.878 31.215C135.628 30.905 135.503 30.49 135.503 29.97C135.503 29.28 135.758 28.725 136.268 28.305C136.778 27.875 137.473 27.66 138.353 27.66ZM145.262 27.96V29.565H143.612V27.96H145.262ZM145.037 34.995C145.177 35.435 145.247 35.845 145.247 36.225C145.247 36.745 145.117 37.16 144.857 37.47C144.597 37.79 144.207 37.95 143.687 37.95V37.365C143.937 37.365 144.117 37.295 144.227 37.155C144.347 37.025 144.407 36.815 144.407 36.525V36.39H143.642V34.995H145.037ZM155.225 27.63C156.185 27.63 156.96 27.94 157.55 28.56C158.14 29.17 158.435 30.055 158.435 31.215V36H157.07V31.335C157.07 30.515 156.86 29.885 156.44 29.445C156.02 29.005 155.45 28.785 154.73 28.785C153.98 28.785 153.38 29.03 152.93 29.52C152.48 30 152.255 30.705 152.255 31.635V36H150.89V27.765H152.255V29.715C152.465 29.045 152.835 28.53 153.365 28.17C153.905 27.81 154.525 27.63 155.225 27.63ZM164.264 27.66C165.054 27.66 165.759 27.83 166.379 28.17C167.009 28.51 167.499 29 167.849 29.64C168.209 30.28 168.389 31.03 168.389 31.89C168.389 32.75 168.209 33.5 167.849 34.14C167.499 34.77 167.009 35.255 166.379 35.595C165.759 35.935 165.054 36.105 164.264 36.105C163.474 36.105 162.764 35.935 162.134 35.595C161.514 35.255 161.024 34.77 160.664 34.14C160.304 33.5 160.124 32.75 160.124 31.89C160.124 31.03 160.304 30.28 160.664 29.64C161.024 29 161.514 28.51 162.134 28.17C162.764 27.83 163.474 27.66 164.264 27.66ZM164.264 28.86C163.774 28.86 163.319 28.97 162.899 29.19C162.489 29.41 162.154 29.75 161.894 30.21C161.644 30.66 161.519 31.22 161.519 31.89C161.519 32.55 161.644 33.11 161.894 33.57C162.154 34.02 162.489 34.355 162.899 34.575C163.319 34.795 163.774 34.905 164.264 34.905C164.754 34.905 165.204 34.795 165.614 34.575C166.034 34.355 166.369 34.02 166.619 33.57C166.879 33.11 167.009 32.55 167.009 31.89C167.009 31.22 166.879 30.66 166.619 30.21C166.369 29.75 166.034 29.41 165.614 29.19C165.204 28.97 164.754 28.86 164.264 28.86ZM177.248 27.66C178.048 27.66 178.723 27.86 179.273 28.26C179.833 28.66 180.223 29.195 180.443 29.865V27.765H181.808V36H180.443V33.9C180.223 34.57 179.833 35.105 179.273 35.505C178.723 35.905 178.048 36.105 177.248 36.105C176.518 36.105 175.868 35.935 175.298 35.595C174.728 35.255 174.278 34.77 173.948 34.14C173.628 33.5 173.468 32.75 173.468 31.89C173.468 31.03 173.628 30.28 173.948 29.64C174.278 29 174.728 28.51 175.298 28.17C175.868 27.83 176.518 27.66 177.248 27.66ZM177.638 28.875C176.798 28.875 176.123 29.145 175.613 29.685C175.113 30.215 174.863 30.95 174.863 31.89C174.863 32.83 175.113 33.57 175.613 34.11C176.123 34.64 176.798 34.905 177.638 34.905C178.178 34.905 178.658 34.78 179.078 34.53C179.508 34.28 179.843 33.93 180.083 33.48C180.323 33.02 180.443 32.49 180.443 31.89C180.443 31.29 180.323 30.76 180.083 30.3C179.843 29.84 179.508 29.49 179.078 29.25C178.658 29 178.178 28.875 177.638 28.875ZM187.626 27.66C188.676 27.66 189.546 27.94 190.236 28.5C190.926 29.06 191.351 29.81 191.511 30.75H190.071C189.971 30.16 189.696 29.7 189.246 29.37C188.806 29.03 188.256 28.86 187.596 28.86C187.116 28.86 186.676 28.97 186.276 29.19C185.886 29.41 185.571 29.75 185.331 30.21C185.091 30.66 184.971 31.22 184.971 31.89C184.971 32.56 185.091 33.125 185.331 33.585C185.571 34.035 185.886 34.37 186.276 34.59C186.676 34.81 187.116 34.92 187.596 34.92C188.256 34.92 188.806 34.75 189.246 34.41C189.696 34.07 189.971 33.605 190.071 33.015H191.511C191.351 33.965 190.926 34.72 190.236 35.28C189.546 35.83 188.676 36.105 187.626 36.105C186.836 36.105 186.136 35.935 185.526 35.595C184.916 35.255 184.436 34.77 184.086 34.14C183.746 33.5 183.576 32.75 183.576 31.89C183.576 31.03 183.746 30.28 184.086 29.64C184.436 29 184.916 28.51 185.526 28.17C186.136 27.83 186.836 27.66 187.626 27.66ZM196.942 27.66C197.992 27.66 198.862 27.94 199.552 28.5C200.242 29.06 200.667 29.81 200.827 30.75H199.387C199.287 30.16 199.012 29.7 198.562 29.37C198.122 29.03 197.572 28.86 196.912 28.86C196.432 28.86 195.992 28.97 195.592 29.19C195.202 29.41 194.887 29.75 194.647 30.21C194.407 30.66 194.287 31.22 194.287 31.89C194.287 32.56 194.407 33.125 194.647 33.585C194.887 34.035 195.202 34.37 195.592 34.59C195.992 34.81 196.432 34.92 196.912 34.92C197.572 34.92 198.122 34.75 198.562 34.41C199.012 34.07 199.287 33.605 199.387 33.015H200.827C200.667 33.965 200.242 34.72 199.552 35.28C198.862 35.83 197.992 36.105 196.942 36.105C196.152 36.105 195.452 35.935 194.842 35.595C194.232 35.255 193.752 34.77 193.402 34.14C193.062 33.5 192.892 32.75 192.892 31.89C192.892 31.03 193.062 30.28 193.402 29.64C193.752 29 194.232 28.51 194.842 28.17C195.452 27.83 196.152 27.66 196.942 27.66ZM206.349 27.66C207.139 27.66 207.844 27.83 208.464 28.17C209.094 28.51 209.584 29 209.934 29.64C210.294 30.28 210.474 31.03 210.474 31.89C210.474 32.75 210.294 33.5 209.934 34.14C209.584 34.77 209.094 35.255 208.464 35.595C207.844 35.935 207.139 36.105 206.349 36.105C205.559 36.105 204.849 35.935 204.219 35.595C203.599 35.255 203.109 34.77 202.749 34.14C202.389 33.5 202.209 32.75 202.209 31.89C202.209 31.03 202.389 30.28 202.749 29.64C203.109 29 203.599 28.51 204.219 28.17C204.849 27.83 205.559 27.66 206.349 27.66ZM206.349 28.86C205.859 28.86 205.404 28.97 204.984 29.19C204.574 29.41 204.239 29.75 203.979 30.21C203.729 30.66 203.604 31.22 203.604 31.89C203.604 32.55 203.729 33.11 203.979 33.57C204.239 34.02 204.574 34.355 204.984 34.575C205.404 34.795 205.859 34.905 206.349 34.905C206.839 34.905 207.289 34.795 207.699 34.575C208.119 34.355 208.454 34.02 208.704 33.57C208.964 33.11 209.094 32.55 209.094 31.89C209.094 31.22 208.964 30.66 208.704 30.21C208.454 29.75 208.119 29.41 207.699 29.19C207.289 28.97 206.839 28.86 206.349 28.86ZM219.572 27.765V36H218.207V34.065C217.997 34.735 217.622 35.25 217.082 35.61C216.552 35.96 215.932 36.135 215.222 36.135C214.272 36.135 213.502 35.83 212.912 35.22C212.322 34.6 212.027 33.715 212.027 32.565V27.765H213.392V32.43C213.392 33.25 213.602 33.885 214.022 34.335C214.442 34.775 215.012 34.995 215.732 34.995C216.482 34.995 217.082 34.755 217.532 34.275C217.982 33.785 218.207 33.075 218.207 32.145V27.765H219.572ZM226.094 27.63C227.054 27.63 227.829 27.94 228.419 28.56C229.009 29.17 229.304 30.055 229.304 31.215V36H227.939V31.335C227.939 30.515 227.729 29.885 227.309 29.445C226.889 29.005 226.319 28.785 225.599 28.785C224.849 28.785 224.249 29.03 223.799 29.52C223.349 30 223.124 30.705 223.124 31.635V36H221.759V27.765H223.124V29.715C223.334 29.045 223.704 28.53 224.234 28.17C224.774 27.81 225.394 27.63 226.094 27.63ZM235.328 34.8V36H234.308C233.468 36 232.838 35.8 232.418 35.4C232.008 35 231.803 34.33 231.803 33.39V28.95H230.573V27.765H231.803V25.71H233.183V27.765H235.313V28.95H233.183V33.42C233.183 33.95 233.278 34.315 233.468 34.515C233.668 34.705 234.008 34.8 234.488 34.8H235.328ZM239.573 27.66C240.503 27.66 241.248 27.905 241.808 28.395C242.378 28.875 242.723 29.525 242.843 30.345H241.538C241.478 29.855 241.273 29.455 240.923 29.145C240.583 28.825 240.123 28.665 239.543 28.665C239.053 28.665 238.668 28.785 238.388 29.025C238.118 29.255 237.983 29.57 237.983 29.97C237.983 30.27 238.073 30.515 238.253 30.705C238.443 30.885 238.673 31.025 238.943 31.125C239.223 31.215 239.603 31.315 240.083 31.425C240.693 31.565 241.183 31.71 241.553 31.86C241.933 32 242.253 32.23 242.513 32.55C242.783 32.87 242.918 33.3 242.918 33.84C242.918 34.51 242.663 35.055 242.153 35.475C241.653 35.895 240.983 36.105 240.143 36.105C239.163 36.105 238.363 35.87 237.743 35.4C237.123 34.93 236.758 34.275 236.648 33.435H237.968C238.018 33.935 238.233 34.34 238.613 34.65C239.003 34.96 239.513 35.115 240.143 35.115C240.613 35.115 240.978 34.995 241.238 34.755C241.508 34.515 241.643 34.2 241.643 33.81C241.643 33.49 241.548 33.235 241.358 33.045C241.168 32.855 240.933 32.71 240.653 32.61C240.373 32.51 239.988 32.405 239.498 32.295C238.888 32.155 238.398 32.015 238.028 31.875C237.668 31.735 237.358 31.515 237.098 31.215C236.848 30.905 236.723 30.49 236.723 29.97C236.723 29.28 236.978 28.725 237.488 28.305C237.998 27.875 238.693 27.66 239.573 27.66ZM252.184 27.66C252.974 27.66 253.679 27.83 254.299 28.17C254.929 28.51 255.419 29 255.769 29.64C256.129 30.28 256.309 31.03 256.309 31.89C256.309 32.75 256.129 33.5 255.769 34.14C255.419 34.77 254.929 35.255 254.299 35.595C253.679 35.935 252.974 36.105 252.184 36.105C251.394 36.105 250.684 35.935 250.054 35.595C249.434 35.255 248.944 34.77 248.584 34.14C248.224 33.5 248.044 32.75 248.044 31.89C248.044 31.03 248.224 30.28 248.584 29.64C248.944 29 249.434 28.51 250.054 28.17C250.684 27.83 251.394 27.66 252.184 27.66ZM252.184 28.86C251.694 28.86 251.239 28.97 250.819 29.19C250.409 29.41 250.074 29.75 249.814 30.21C249.564 30.66 249.439 31.22 249.439 31.89C249.439 32.55 249.564 33.11 249.814 33.57C250.074 34.02 250.409 34.355 250.819 34.575C251.239 34.795 251.694 34.905 252.184 34.905C252.674 34.905 253.124 34.795 253.534 34.575C253.954 34.355 254.289 34.02 254.539 33.57C254.799 33.11 254.929 32.55 254.929 31.89C254.929 31.22 254.799 30.66 254.539 30.21C254.289 29.75 253.954 29.41 253.534 29.19C253.124 28.97 252.674 28.86 252.184 28.86ZM259.452 29.43C259.722 28.86 260.117 28.42 260.637 28.11C261.157 27.79 261.777 27.63 262.497 27.63V29.115H262.077C261.307 29.115 260.677 29.315 260.187 29.715C259.697 30.105 259.452 30.755 259.452 31.665V36H258.087V27.765H259.452V29.43ZM3.675 51.66C4.605 51.66 5.35 51.905 5.91 52.395C6.48 52.875 6.825 53.525 6.945 54.345H5.64C5.58 53.855 5.375 53.455 5.025 53.145C4.685 52.825 4.225 52.665 3.645 52.665C3.155 52.665 2.77 52.785 2.49 53.025C2.22 53.255 2.085 53.57 2.085 53.97C2.085 54.27 2.175 54.515 2.355 54.705C2.545 54.885 2.775 55.025 3.045 55.125C3.325 55.215 3.705 55.315 4.185 55.425C4.795 55.565 5.285 55.71 5.655 55.86C6.035 56 6.355 56.23 6.615 56.55C6.885 56.87 7.02 57.3 7.02 57.84C7.02 58.51 6.765 59.055 6.255 59.475C5.755 59.895 5.085 60.105 4.245 60.105C3.265 60.105 2.465 59.87 1.845 59.4C1.225 58.93 0.86 58.275 0.75 57.435H2.07C2.12 57.935 2.335 58.34 2.715 58.65C3.105 58.96 3.615 59.115 4.245 59.115C4.715 59.115 5.08 58.995 5.34 58.755C5.61 58.515 5.745 58.2 5.745 57.81C5.745 57.49 5.65 57.235 5.46 57.045C5.27 56.855 5.035 56.71 4.755 56.61C4.475 56.51 4.09 56.405 3.6 56.295C2.99 56.155 2.5 56.015 2.13 55.875C1.77 55.735 1.46 55.515 1.2 55.215C0.95 54.905 0.825 54.49 0.825 53.97C0.825 53.28 1.08 52.725 1.59 52.305C2.1 51.875 2.795 51.66 3.675 51.66ZM8.60402 49.35C8.60402 49.1 8.68902 48.9 8.85902 48.75C9.02902 48.59 9.25402 48.51 9.53402 48.51C9.81402 48.51 10.039 48.59 10.209 48.75C10.379 48.9 10.464 49.1 10.464 49.35C10.464 49.6 10.379 49.805 10.209 49.965C10.039 50.115 9.81402 50.19 9.53402 50.19C9.25402 50.19 9.02902 50.115 8.85902 49.965C8.68902 49.805 8.60402 49.6 8.60402 49.35ZM10.209 51.765V60H8.84402V51.765H10.209ZM15.7786 51.66C16.5786 51.66 17.2536 51.86 17.8036 52.26C18.3636 52.66 18.7536 53.195 18.9736 53.865V51.765H20.3386V60.135C20.3386 60.895 20.1786 61.57 19.8586 62.16C19.5386 62.75 19.0886 63.21 18.5086 63.54C17.9286 63.87 17.2536 64.035 16.4836 64.035C15.3736 64.035 14.4686 63.765 13.7686 63.225C13.0686 62.695 12.6236 61.975 12.4336 61.065H13.7836C13.9436 61.615 14.2436 62.045 14.6836 62.355C15.1336 62.675 15.7086 62.835 16.4086 62.835C17.1486 62.835 17.7586 62.595 18.2386 62.115C18.7286 61.645 18.9736 60.985 18.9736 60.135V57.9C18.7536 58.57 18.3636 59.105 17.8036 59.505C17.2536 59.905 16.5786 60.105 15.7786 60.105C15.0486 60.105 14.3986 59.935 13.8286 59.595C13.2586 59.255 12.8086 58.77 12.4786 58.14C12.1586 57.5 11.9986 56.75 11.9986 55.89C11.9986 55.03 12.1586 54.28 12.4786 53.64C12.8086 53 13.2586 52.51 13.8286 52.17C14.3986 51.83 15.0486 51.66 15.7786 51.66ZM16.1686 52.875C15.3286 52.875 14.6536 53.145 14.1436 53.685C13.6436 54.215 13.3936 54.95 13.3936 55.89C13.3936 56.83 13.6436 57.57 14.1436 58.11C14.6536 58.64 15.3286 58.905 16.1686 58.905C16.7086 58.905 17.1886 58.78 17.6086 58.53C18.0386 58.28 18.3736 57.93 18.6136 57.48C18.8536 57.02 18.9736 56.49 18.9736 55.89C18.9736 55.29 18.8536 54.76 18.6136 54.3C18.3736 53.84 18.0386 53.49 17.6086 53.25C17.1886 53 16.7086 52.875 16.1686 52.875ZM26.846 51.63C27.806 51.63 28.581 51.94 29.171 52.56C29.761 53.17 30.056 54.055 30.056 55.215V60H28.691V55.335C28.691 54.515 28.481 53.885 28.061 53.445C27.641 53.005 27.071 52.785 26.351 52.785C25.601 52.785 25.001 53.03 24.551 53.52C24.101 54 23.876 54.705 23.876 55.635V60H22.511V51.765H23.876V53.715C24.086 53.045 24.456 52.53 24.986 52.17C25.526 51.81 26.146 51.63 26.846 51.63ZM36.8297 53.925V55.08H30.8297V53.925H36.8297ZM46.8379 51.765V60H45.4729V58.065C45.2629 58.735 44.8879 59.25 44.3479 59.61C43.8179 59.96 43.1979 60.135 42.4879 60.135C41.5379 60.135 40.7679 59.83 40.1779 59.22C39.5879 58.6 39.2929 57.715 39.2929 56.565V51.765H40.6579V56.43C40.6579 57.25 40.8679 57.885 41.2879 58.335C41.7079 58.775 42.2779 58.995 42.9979 58.995C43.7479 58.995 44.3479 58.755 44.7979 58.275C45.2479 57.785 45.4729 57.075 45.4729 56.145V51.765H46.8379ZM53.5697 51.66C54.2997 51.66 54.9497 51.83 55.5197 52.17C56.0897 52.51 56.5347 53 56.8547 53.64C57.1847 54.28 57.3497 55.03 57.3497 55.89C57.3497 56.75 57.1847 57.5 56.8547 58.14C56.5347 58.77 56.0897 59.255 55.5197 59.595C54.9497 59.935 54.2997 60.105 53.5697 60.105C52.7697 60.105 52.0897 59.905 51.5297 59.505C50.9797 59.095 50.5997 58.56 50.3897 57.9V63.9H49.0247V51.765H50.3897V53.865C50.5997 53.205 50.9797 52.675 51.5297 52.275C52.0897 51.865 52.7697 51.66 53.5697 51.66ZM53.1797 52.875C52.6497 52.875 52.1697 53 51.7397 53.25C51.3097 53.49 50.9747 53.84 50.7347 54.3C50.4947 54.76 50.3747 55.29 50.3747 55.89C50.3747 56.49 50.4947 57.02 50.7347 57.48C50.9747 57.93 51.3097 58.28 51.7397 58.53C52.1697 58.78 52.6497 58.905 53.1797 58.905C54.0297 58.905 54.7047 58.64 55.2047 58.11C55.7147 57.57 55.9697 56.83 55.9697 55.89C55.9697 54.95 55.7147 54.215 55.2047 53.685C54.7047 53.145 54.0297 52.875 53.1797 52.875ZM61.7121 51.66C62.6421 51.66 63.3871 51.905 63.9471 52.395C64.5171 52.875 64.8621 53.525 64.9821 54.345H63.6771C63.6171 53.855 63.4121 53.455 63.0621 53.145C62.7221 52.825 62.2621 52.665 61.6821 52.665C61.1921 52.665 60.8071 52.785 60.5271 53.025C60.2571 53.255 60.1221 53.57 60.1221 53.97C60.1221 54.27 60.2121 54.515 60.3921 54.705C60.5821 54.885 60.8121 55.025 61.0821 55.125C61.3621 55.215 61.7421 55.315 62.2221 55.425C62.8321 55.565 63.3221 55.71 63.6921 55.86C64.0721 56 64.3921 56.23 64.6521 56.55C64.9221 56.87 65.0571 57.3 65.0571 57.84C65.0571 58.51 64.8021 59.055 64.2921 59.475C63.7921 59.895 63.1221 60.105 62.2821 60.105C61.3021 60.105 60.5021 59.87 59.8821 59.4C59.2621 58.93 58.8971 58.275 58.7871 57.435H60.1071C60.1571 57.935 60.3721 58.34 60.7521 58.65C61.1421 58.96 61.6521 59.115 62.2821 59.115C62.7521 59.115 63.1171 58.995 63.3771 58.755C63.6471 58.515 63.7821 58.2 63.7821 57.81C63.7821 57.49 63.6871 57.235 63.4971 57.045C63.3071 56.855 63.0721 56.71 62.7921 56.61C62.5121 56.51 62.1271 56.405 61.6371 56.295C61.0271 56.155 60.5371 56.015 60.1671 55.875C59.8071 55.735 59.4971 55.515 59.2371 55.215C58.9871 54.905 58.8621 54.49 58.8621 53.97C58.8621 53.28 59.1171 52.725 59.6271 52.305C60.1371 51.875 60.8321 51.66 61.7121 51.66ZM71.9522 53.43C72.2222 52.86 72.6172 52.42 73.1372 52.11C73.6572 51.79 74.2772 51.63 74.9972 51.63V53.115H74.5772C73.8072 53.115 73.1772 53.315 72.6872 53.715C72.1972 54.105 71.9522 54.755 71.9522 55.665V60H70.5872V51.765H71.9522V53.43ZM83.919 55.425C83.919 55.715 83.899 55.965 83.859 56.175H77.274C77.304 57.115 77.569 57.82 78.069 58.29C78.579 58.76 79.199 58.995 79.929 58.995C80.589 58.995 81.139 58.83 81.579 58.5C82.029 58.16 82.304 57.71 82.404 57.15H83.859C83.759 57.72 83.534 58.23 83.184 58.68C82.844 59.13 82.399 59.48 81.849 59.73C81.299 59.98 80.679 60.105 79.989 60.105C79.199 60.105 78.499 59.935 77.889 59.595C77.279 59.255 76.799 58.77 76.449 58.14C76.109 57.5 75.939 56.75 75.939 55.89C75.939 55.03 76.109 54.28 76.449 53.64C76.799 53 77.279 52.51 77.889 52.17C78.499 51.83 79.199 51.66 79.989 51.66C80.789 51.66 81.484 51.83 82.074 52.17C82.674 52.51 83.129 52.965 83.439 53.535C83.759 54.105 83.919 54.735 83.919 55.425ZM82.539 55.515C82.569 54.905 82.469 54.395 82.239 53.985C82.009 53.575 81.694 53.27 81.294 53.07C80.894 52.87 80.459 52.77 79.989 52.77C79.239 52.77 78.609 53.005 78.099 53.475C77.589 53.935 77.314 54.615 77.274 55.515H82.539ZM89.1694 51.69C89.9294 51.69 90.5744 51.875 91.1044 52.245C91.6444 52.605 92.0344 53.095 92.2744 53.715V51.765H93.6394V63.9H92.2744V57.99C92.0244 58.64 91.6294 59.155 91.0894 59.535C90.5594 59.915 89.9194 60.105 89.1694 60.105C88.4394 60.105 87.7794 59.935 87.1894 59.595C86.5994 59.245 86.1344 58.755 85.7944 58.125C85.4644 57.485 85.2994 56.745 85.2994 55.905C85.2994 55.065 85.4644 54.33 85.7944 53.7C86.1344 53.06 86.5994 52.565 87.1894 52.215C87.7794 51.865 88.4394 51.69 89.1694 51.69ZM89.4694 52.875C88.6494 52.875 87.9794 53.145 87.4594 53.685C86.9494 54.215 86.6944 54.955 86.6944 55.905C86.6944 56.855 86.9494 57.595 87.4594 58.125C87.9694 58.645 88.6394 58.905 89.4694 58.905C89.9894 58.905 90.4594 58.785 90.8794 58.545C91.3094 58.295 91.6494 57.945 91.8994 57.495C92.1494 57.035 92.2744 56.5 92.2744 55.89C92.2744 55.28 92.1494 54.75 91.8994 54.3C91.6494 53.84 91.3094 53.49 90.8794 53.25C90.4594 53 89.9894 52.875 89.4694 52.875ZM103.132 51.765V60H101.767V58.065C101.557 58.735 101.182 59.25 100.642 59.61C100.112 59.96 99.4918 60.135 98.7818 60.135C97.8318 60.135 97.0618 59.83 96.4718 59.22C95.8818 58.6 95.5868 57.715 95.5868 56.565V51.765H96.9518V56.43C96.9518 57.25 97.1618 57.885 97.5818 58.335C98.0018 58.775 98.5718 58.995 99.2918 58.995C100.042 58.995 100.642 58.755 101.092 58.275C101.542 57.785 101.767 57.075 101.767 56.145V51.765H103.132ZM105.079 49.35C105.079 49.1 105.164 48.9 105.334 48.75C105.504 48.59 105.729 48.51 106.009 48.51C106.289 48.51 106.514 48.59 106.684 48.75C106.854 48.9 106.939 49.1 106.939 49.35C106.939 49.6 106.854 49.805 106.684 49.965C106.514 50.115 106.289 50.19 106.009 50.19C105.729 50.19 105.504 50.115 105.334 49.965C105.164 49.805 105.079 49.6 105.079 49.35ZM106.684 51.765V60H105.319V51.765H106.684ZM110.243 53.43C110.513 52.86 110.908 52.42 111.428 52.11C111.948 51.79 112.568 51.63 113.288 51.63V53.115H112.868C112.098 53.115 111.468 53.315 110.978 53.715C110.488 54.105 110.243 54.755 110.243 55.665V60H108.878V51.765H110.243V53.43ZM122.21 55.425C122.21 55.715 122.19 55.965 122.15 56.175H115.565C115.595 57.115 115.86 57.82 116.36 58.29C116.87 58.76 117.49 58.995 118.22 58.995C118.88 58.995 119.43 58.83 119.87 58.5C120.32 58.16 120.595 57.71 120.695 57.15H122.15C122.05 57.72 121.825 58.23 121.475 58.68C121.135 59.13 120.69 59.48 120.14 59.73C119.59 59.98 118.97 60.105 118.28 60.105C117.49 60.105 116.79 59.935 116.18 59.595C115.57 59.255 115.09 58.77 114.74 58.14C114.4 57.5 114.23 56.75 114.23 55.89C114.23 55.03 114.4 54.28 114.74 53.64C115.09 53 115.57 52.51 116.18 52.17C116.79 51.83 117.49 51.66 118.28 51.66C119.08 51.66 119.775 51.83 120.365 52.17C120.965 52.51 121.42 52.965 121.73 53.535C122.05 54.105 122.21 54.735 122.21 55.425ZM120.83 55.515C120.86 54.905 120.76 54.395 120.53 53.985C120.3 53.575 119.985 53.27 119.585 53.07C119.185 52.87 118.75 52.77 118.28 52.77C117.53 52.77 116.9 53.005 116.39 53.475C115.88 53.935 115.605 54.615 115.565 55.515H120.83ZM127.37 51.66C128.17 51.66 128.845 51.86 129.395 52.26C129.955 52.66 130.345 53.195 130.565 53.865V48.9H131.93V60H130.565V57.9C130.345 58.57 129.955 59.105 129.395 59.505C128.845 59.905 128.17 60.105 127.37 60.105C126.64 60.105 125.99 59.935 125.42 59.595C124.85 59.255 124.4 58.77 124.07 58.14C123.75 57.5 123.59 56.75 123.59 55.89C123.59 55.03 123.75 54.28 124.07 53.64C124.4 53 124.85 52.51 125.42 52.17C125.99 51.83 126.64 51.66 127.37 51.66ZM127.76 52.875C126.92 52.875 126.245 53.145 125.735 53.685C125.235 54.215 124.985 54.95 124.985 55.89C124.985 56.83 125.235 57.57 125.735 58.11C126.245 58.64 126.92 58.905 127.76 58.905C128.3 58.905 128.78 58.78 129.2 58.53C129.63 58.28 129.965 57.93 130.205 57.48C130.445 57.02 130.565 56.49 130.565 55.89C130.565 55.29 130.445 54.76 130.205 54.3C129.965 53.84 129.63 53.49 129.2 53.25C128.78 53 128.3 52.875 127.76 52.875ZM135.108 58.395V60H133.458V58.395H135.108Z" fill="#344563"/>
</svg>
