<svg width="24" height="12" viewBox="0 0 24 12" fill="none" xmlns="http://www.w3.org/2000/svg">
<path d="M5.08016 6.83691C4.52417 7.4248 3.87475 7.71875 3.13191 7.71875C2.25691 7.71875 1.55965 7.41341 1.04012 6.80273C0.520586 6.1875 0.26082 5.38086 0.26082 4.38281C0.26082 3.72656 0.392982 3.13184 0.657305 2.59863C0.921628 2.06543 1.2976 1.65072 1.78523 1.35449C2.27286 1.05827 2.83797 0.910156 3.48055 0.910156C4.48315 0.910156 5.2784 1.28385 5.86629 2.03125C6.45418 2.77865 6.74813 3.77897 6.74813 5.03223V5.49707C6.74813 7.29264 6.34253 8.66211 5.53133 9.60547C4.72013 10.5488 3.51017 11.0273 1.90145 11.041H1.7032V9.66699H1.94246C2.92228 9.65332 3.67423 9.41862 4.19832 8.96289C4.72241 8.5026 5.01635 7.79395 5.08016 6.83691ZM3.48055 6.41992C3.81323 6.41992 4.1254 6.32422 4.41707 6.13281C4.70874 5.94141 4.93432 5.67708 5.09383 5.33984V4.69043C5.09383 3.95671 4.94344 3.36654 4.64266 2.91992C4.34188 2.47331 3.95223 2.25 3.47371 2.25C2.9952 2.25 2.61238 2.44824 2.32527 2.84473C2.04272 3.23665 1.90145 3.7334 1.90145 4.33496C1.90145 4.95931 2.045 5.46289 2.33211 5.8457C2.61922 6.22852 3.00203 6.41992 3.48055 6.41992ZM9.15465 9.25C9.46454 9.25 9.7038 9.33887 9.87242 9.5166C10.041 9.68978 10.1254 9.90853 10.1254 10.1729C10.1254 10.4326 10.041 10.6491 9.87242 10.8223C9.7038 10.9909 9.46454 11.0752 9.15465 11.0752C8.85842 11.0752 8.62372 10.9909 8.45055 10.8223C8.27737 10.6536 8.19078 10.4372 8.19078 10.1729C8.19078 9.90853 8.27509 9.68978 8.44371 9.5166C8.61233 9.33887 8.84931 9.25 9.15465 9.25ZM9.15465 3.44629C9.46454 3.44629 9.7038 3.53516 9.87242 3.71289C10.041 3.88607 10.1254 4.10482 10.1254 4.36914C10.1254 4.62891 10.041 4.84538 9.87242 5.01855C9.7038 5.18717 9.46454 5.27148 9.15465 5.27148C8.85842 5.27148 8.62372 5.18717 8.45055 5.01855C8.27737 4.84993 8.19078 4.63346 8.19078 4.36914C8.19078 4.10482 8.27509 3.88607 8.44371 3.71289C8.61233 3.53516 8.84931 3.44629 9.15465 3.44629ZM17.1051 7.45215H18.3424V8.78516H17.1051V11H15.444V8.78516H11.1442L11.0963 7.77344L15.3893 1.04688H17.1051V7.45215ZM12.8395 7.45215H15.444V3.2959L15.3209 3.51465L12.8395 7.45215ZM23.6611 11H22.0068V3.00879L19.5663 3.84277V2.44141L23.4491 1.0127H23.6611V11Z" fill="black"/>
</svg>
